<?xml version="1.0" encoding="UTF-8" standalone="no"?>
<!-- Created with Inkscape (http://www.inkscape.org/) -->

<svg
   width="94.720825mm"
   height="35.983334mm"
   viewBox="0 0 94.720825 35.983334"
   version="1.1"
   id="svg1"
   xml:space="preserve"
   xmlns="http://www.w3.org/2000/svg"
   xmlns:svg="http://www.w3.org/2000/svg"><defs
     id="defs1" /><g
     id="layer1"
     transform="translate(131.74594,-624.76013)"><g
       id="g177"><g
         id="g176"><g
           id="g142"
           transform="translate(32.172607,416.60304)"><rect
             style="opacity:0;fill:#6e8894;fill-opacity:1;stroke:none;stroke-width:5.44692;stroke-linecap:square;stroke-linejoin:round;stroke-dasharray:none;stroke-opacity:1;paint-order:markers stroke fill"
             id="rect142"
             width="94.720833"
             height="35.983334"
             x="-163.91855"
             y="208.15707" /></g><path
           id="path73"
           style="color:#000000;font-style:normal;font-variant:normal;font-weight:normal;font-stretch:normal;font-size:medium;line-height:normal;font-family:sans-serif;font-variant-ligatures:normal;font-variant-position:normal;font-variant-caps:normal;font-variant-numeric:normal;font-variant-alternates:normal;font-variant-east-asian:normal;font-feature-settings:normal;font-variation-settings:normal;text-indent:0;text-align:start;text-decoration-line:none;text-decoration-style:solid;text-decoration-color:#000000;letter-spacing:normal;word-spacing:normal;text-transform:none;writing-mode:lr-tb;direction:ltr;text-orientation:mixed;dominant-baseline:auto;baseline-shift:baseline;text-anchor:start;white-space:normal;shape-padding:0;shape-margin:0;inline-size:0;clip-rule:nonzero;display:inline;overflow:visible;visibility:visible;isolation:auto;mix-blend-mode:normal;color-interpolation:sRGB;color-interpolation-filters:linearRGB;solid-color:#000000;solid-opacity:1;vector-effect:none;fill:#f1e0c5;fill-opacity:1;fill-rule:nonzero;stroke:none;stroke-width:0.108553;stroke-linecap:square;stroke-linejoin:miter;stroke-miterlimit:4;stroke-dasharray:none;stroke-dashoffset:0;stroke-opacity:1;-inkscape-stroke:none;color-rendering:auto;image-rendering:auto;shape-rendering:auto;text-rendering:auto;enable-background:accumulate;stop-color:#000000"
           d="m -82.730357,636.45673 c -0.01842,2.1e-4 -0.03941,9.8e-4 -0.06372,0.002 -0.05099,0.004 -0.116744,0.01 -0.218607,0.0426 -0.05094,0.0166 -0.111546,0.0404 -0.182313,0.0821 -0.06661,0.0392 -0.200048,0.16559 -0.216926,0.18146 -0.02251,0.0312 -0.126084,0.17488 -0.126103,0.17492 -2.2e-5,3e-5 -0.03639,0.0752 -0.046,0.0997 -0.01923,0.049 -0.02608,0.0749 -0.03163,0.0954 -0.0111,0.041 -0.01381,0.0578 -0.0165,0.0721 -0.0013,0.007 -0.0012,0.007 -0.0021,0.0127 l -0.567413,-0.35465 -3.356015,0.71915 v 1.97623 l 0.669509,0.10797 v 0.46066 c -0.535094,-0.47014 -1.269613,-0.75538 -2.070121,-0.75538 -0.99939,0 -1.958501,0.32146 -2.67669,0.97169 -0.153493,0.13896 -0.293318,0.29383 -0.419656,0.46106 -0.103591,-0.17306 -0.224805,-0.33593 -0.364175,-0.48569 -0.560848,-0.60261 -1.400054,-0.94706 -2.323507,-0.94706 -1.095307,0 -2.2058,0.51644 -2.918857,1.42047 l 0.01695,-0.795 -0.883459,-0.60724 -2.6165,0.42066 -0.60405,-0.41533 -2.57577,0.36619 v -0.29075 l 0.0578,-2.02412 -0.93372,-0.58346 -3.35579,0.71915 v 1.97623 l 0.66934,0.10797 v 0.99919 c -0.0622,-0.0938 -0.12879,-0.18393 -0.20015,-0.26966 -0.54998,-0.66075 -1.37199,-1.02425 -2.20453,-1.02425 -0.21964,0 -0.4361,0.0284 -0.64775,0.0767 l 0.0571,-2.00186 -0.93479,-0.5843 -3.32231,0.72236 v 1.99932 l 0.66951,0.0863 v 3.75014 c 0,0.24994 -0.004,0.57777 -0.006,0.8939 l -0.57712,0.1198 v 2.11041 l 3.6342,0.24978 0.0564,-0.19571 c 0.28145,0.0931 0.57374,0.15796 0.87628,0.15796 0.74194,0 1.43263,-0.28738 1.98363,-0.77906 v 0.61706 h 4.7933 v -0.42129 c 0.46089,0.4156 1.07699,0.58329 1.63802,0.58329 0.3331,0 0.64765,-0.0775 0.9505,-0.1855 l 0.0133,0.18488 3.981049,-0.1942 v -0.55125 c 0.633309,0.49507 1.444258,0.74607 2.296973,0.74607 1.104296,0 2.147156,-0.45938 2.793762,-1.30715 0.0998,0.12877 0.207855,0.24954 0.324853,0.36008 0.680973,0.64335 1.595042,0.94707 2.524894,0.94707 0.596189,0 1.175364,-0.14386 1.681484,-0.41381 v 0.25181 h 4.793089 2.779738 c -8.36e-4,0.053 -0.0011,0.10138 -0.0018,0.15331 l -0.613806,0.13143 v 2.16645 h 4.858164 v -2.15203 l -0.700081,-0.16408 c -8.9e-5,-0.006 -1.19e-4,-0.0122 -2.28e-4,-0.0176 0.142252,0.0222 0.284787,0.0445 0.430819,0.0445 1.027299,0 1.960064,-0.5487 2.555859,-1.43062 v 0.3837 c 0,0.30351 -0.0073,0.68639 -0.01251,1.03823 l -0.613581,0.13144 v 2.16643 h 4.857995 v -2.15202 l -0.700081,-0.16408 c -9.1e-5,-0.006 -1.19e-4,-0.0122 -2.28e-4,-0.0178 0.142259,0.0221 0.284778,0.0447 0.430819,0.0447 1.091647,0 2.077007,-0.61919 2.66418,-1.59986 0.134273,0.21964 0.291312,0.42196 0.471769,0.6019 0.664226,0.66234 1.596037,0.99796 2.583234,0.99796 0.735827,0 1.444294,-0.20425 2.026869,-0.59081 v 0.4288 h 5.030769 v -0.23072 c 0.318815,0.24488 0.715384,0.39273 1.141502,0.39273 1.030312,0 1.889042,-0.86246 1.889042,-1.87827 0,-1.01581 -0.834748,-1.89988 -1.889042,-1.89988 -0.84264,0 -1.544602,0.56493 -1.792667,1.3103 l -0.206884,-0.0445 c -0.0017,-0.29278 -0.0057,-0.59727 -0.0057,-0.83454 v -0.59024 c 0.0079,-0.0294 0.02708,-0.0611 0.03792,-0.0918 0.21104,0.0941 0.432419,0.16324 0.664462,0.16324 0.445276,0 0.915635,-0.19602 1.221438,-0.53853 0.305807,-0.34249 0.444703,-0.78473 0.461786,-1.22884 l 0.0035,-0.0922 -0.01503,-0.091 c -0.146942,-0.90004 -1.021997,-1.56851 -1.844558,-1.56851 -0.366582,0 -0.708567,0.10443 -1.01809,0.28261 l -0.608926,-0.37209 -2.777045,0.9446 c -0.558608,-0.54533 -1.357713,-0.85512 -2.232911,-0.85512 -1.160426,0 -2.337826,0.57977 -3.041652,1.58595 -0.103458,-0.19668 -0.22401,-0.37951 -0.361653,-0.54682 -0.547371,-0.66536 -1.369801,-1.03913 -2.207948,-1.03913 -0.400982,0 -0.791405,0.0911 -1.156761,0.24615 l -0.566291,-0.33305 -2.754663,0.94174 c -0.540273,-0.54914 -1.283631,-0.85484 -2.040558,-0.85484 -0.400915,0 -0.791244,0.0913 -1.156536,0.24615 l -0.566516,-0.33305 -2.224273,0.76039 c 0.120135,-0.32876 0.06735,-0.65264 -0.02502,-0.88654 -0.01313,-0.0333 -0.03429,-0.05 -0.04835,-0.0804 0.08555,-0.13345 0.161195,-0.27387 0.211201,-0.42612 0.02607,-0.0794 0.03897,-0.11029 0.06081,-0.23812 h -2.28e-4 c 0.06066,-0.35479 0.02625,-0.51187 0.0034,-0.81289 -0.0056,-0.0745 -0.01208,-0.15173 -0.01801,-0.21496 -0.0029,-0.0316 -0.0056,-0.0589 -0.0085,-0.0854 -0.0015,-0.0133 -0.0028,-0.025 -0.0057,-0.0459 -0.0015,-0.011 -0.0027,-0.0213 -0.0081,-0.0498 -0.0027,-0.0143 -0.0054,-0.0311 -0.01654,-0.0721 -0.0056,-0.0205 -0.01208,-0.0464 -0.03135,-0.0954 -0.0096,-0.0245 -0.0462,-0.0998 -0.04623,-0.0998 -2.1e-5,-5e-5 -0.140106,-0.19441 -0.140127,-0.19443 h -2.28e-4 c -3e-5,-3e-5 -0.124664,-0.11042 -0.124702,-0.11042 -3.8e-5,-2e-5 -0.07822,-0.0525 -0.113206,-0.071 -0.06997,-0.0371 -0.12749,-0.0572 -0.175132,-0.071 -0.09528,-0.0276 -0.153718,-0.0315 -0.198861,-0.0343 -0.09029,-0.006 -0.129499,2.1e-4 -0.161557,0.004 -0.06411,0.007 -0.08817,0.0137 -0.1109,0.0189 -0.04547,0.01 -0.06953,0.0176 -0.09559,0.0255 -0.05213,0.0157 -0.09736,0.031 -0.159032,0.056 -0.229137,0.0927 -0.438508,0.21888 -0.667883,0.36827 -0.229414,-0.14942 -0.438659,-0.27559 -0.667826,-0.36827 -0.05395,-0.0218 -0.09552,-0.0359 -0.139961,-0.0499 -0.04261,-0.0134 -0.0219,-0.0254 -0.216249,-0.0483 -0.02855,-0.004 -0.06057,-0.009 -0.115841,-0.009 z m 0.124534,0.009 0.01487,0.002 -0.0074,-10e-4 z m 0.759655,0.69588 c 0,0 6.74e-4,0.002 6.74e-4,0.002 -0.0049,9.7e-4 -0.01602,0.004 -0.01846,0.004 5.43e-4,-2.2e-4 0.0037,-10e-4 0.004,-10e-4 0.0046,-10e-4 0.01368,-0.005 0.01374,-0.005 z m -0.879365,0.21349 1.74e-4,6e-5 c 0.01734,0.002 0.07952,0.0213 0.123131,0.0389 0.149959,0.0606 0.38622,0.19713 0.659748,0.38106 0.07157,0.0481 0.174279,0.11931 0.228368,0.15846 0.01704,0.0123 0.03749,0.0271 0.04543,0.0327 0.0079,0.006 0.02795,0.0203 0.04443,0.0323 0.01648,0.0122 0.03111,0.0227 0.03248,0.0236 7.7e-5,1.1e-4 0.001,-6.5e-4 0.0012,-6.5e-4 1.63e-4,0 0.0012,7.6e-4 0.0013,6.5e-4 2e-6,0 5.4e-5,-5e-5 5.6e-5,-5e-5 0.0015,-8.8e-4 0.01592,-0.011 0.03237,-0.0234 0.01648,-0.0122 0.03648,-0.0266 0.04443,-0.0323 0.0079,-0.006 0.02845,-0.0204 0.04549,-0.0327 0.05408,-0.039 0.15674,-0.11029 0.228312,-0.15847 0.273527,-0.18393 0.509845,-0.32041 0.659804,-0.38106 0.04984,-0.0201 0.123905,-0.0426 0.127618,-0.0387 0.0026,0.002 0.01725,0.16091 0.02766,0.29821 0.02035,0.26832 0.02312,0.49567 0.0072,0.58891 -0.0041,0.0245 -0.01642,0.0708 -0.02811,0.10638 -0.03838,0.11688 -0.09937,0.22585 -0.182145,0.32547 -0.02423,0.0292 -0.09321,0.0983 -0.121221,0.12163 -0.04421,0.0367 -0.09757,0.0744 -0.142596,0.10053 -0.02328,0.0135 -0.113291,0.0588 -0.116853,0.0588 -0.0041,0 -0.0012,0.004 0.02799,0.0289 0.0832,0.0737 0.16811,0.16185 0.238577,0.24795 0.0675,0.0825 0.121904,0.17085 0.151684,0.24626 0.03857,0.0977 0.04164,0.18555 0.0089,0.25461 -0.02396,0.0506 -0.05336,0.0789 -0.109606,0.10566 -0.03959,0.0188 -0.07914,0.0298 -0.122177,0.0338 -0.0236,0.002 -0.08025,0.002 -0.108484,-6e-5 -0.109204,-0.009 -0.241157,-0.0439 -0.385382,-0.10199 -0.05779,-0.0233 -0.15862,-0.0713 -0.240148,-0.11432 l -0.04387,-0.0232 -8.47e-4,4.4e-4 -9e-4,-4.4e-4 -0.04381,0.0232 c -0.08152,0.0431 -0.182351,0.091 -0.240148,0.11432 -0.144225,0.0582 -0.276233,0.0932 -0.385439,0.10199 -0.02823,0.002 -0.08484,0.002 -0.108435,6e-5 -0.04303,-0.004 -0.08259,-0.015 -0.122179,-0.0338 -0.05624,-0.0267 -0.08571,-0.0552 -0.109667,-0.10566 -0.03271,-0.069 -0.02958,-0.15695 0.009,-0.25461 0.02978,-0.0754 0.08418,-0.16378 0.151685,-0.24626 0.07047,-0.0861 0.155317,-0.17431 0.238521,-0.24795 0.02921,-0.0259 0.03221,-0.0289 0.02799,-0.0289 -0.0035,0 -0.09358,-0.0453 -0.116853,-0.0588 -0.04503,-0.0261 -0.09833,-0.0638 -0.142541,-0.10053 -0.02801,-0.0233 -0.09699,-0.0925 -0.121221,-0.12163 -0.08278,-0.0996 -0.143768,-0.20863 -0.182145,-0.32547 -0.01171,-0.0356 -0.02397,-0.0819 -0.02816,-0.10638 -0.01593,-0.0932 -0.01315,-0.32059 0.0072,-0.58891 0.01037,-0.1373 0.02512,-0.29545 0.02771,-0.29821 4.67e-4,-5.3e-4 0.002,-6.4e-4 0.0045,-3.2e-4 z m -29.260817,0.46593 0.17278,0.10798 -0.0432,1.51174 v 1.52245 c 0.45351,-0.46431 0.96102,-0.69105 1.56571,-0.69105 1.17696,0 2.1164,0.93944 2.1164,2.73189 0,1.74926 -1.09061,2.81822 -2.31078,2.81822 -0.60469,0 -1.05822,-0.21595 -1.42534,-0.64786 l -0.18356,0.63708 -2.04078,-0.14035 v -0.5075 l 0.5723,-0.11883 c 0.011,-0.5183 0.011,-1.18776 0.011,-1.64127 v -4.55669 l -0.66946,-0.0864 v -0.45354 z m 6.61549,0 0.17278,0.10798 -0.0432,1.51168 v 3.95203 c 0,0.55071 0.011,1.09064 0.0216,1.64133 l 0.59389,0.11871 v 0.5075 h -2.95863 v -0.5075 l 0.59385,-0.12959 c 0.011,-0.5399 0.0216,-1.09059 0.0216,-1.63049 v -4.52433 l -0.66945,-0.10798 v -0.45354 z m 20.998004,0 0.172777,0.10798 -0.04319,1.51168 v 3.95203 c 0,0.55071 0.01074,1.09064 0.02159,1.64133 l 0.59389,0.11871 v 0.5075 h -2.958628 v -0.5075 l 0.59389,-0.12959 c 0.01074,-0.5399 0.02159,-1.09059 0.02159,-1.63049 v -4.52433 l -0.669454,-0.10798 v -0.45354 z m 1.545676,0.49405 h 5.6e-5 c 6.7e-5,0 1.64e-4,-10e-6 1.64e-4,0 -0.0044,0.004 -0.0077,0.009 -0.01208,0.0127 9.76e-4,-9.9e-4 0.0035,-0.005 0.0044,-0.005 0.01608,-0.0166 0.0021,-0.002 0.0074,-0.007 z m 2.473398,0 h 5.5e-5 c 0.0054,0.005 -0.0085,-0.009 0.0074,0.007 0.0015,10e-4 0.006,0.007 0.0077,0.009 -0.0055,-0.005 -0.0099,-0.011 -0.01548,-0.0161 8e-5,-4e-5 2.71e-4,-2.1e-4 3.9e-4,-2.1e-4 z m -14.388522,1.95708 c 1.425323,0 2.235155,0.98263 2.235155,2.28918 0,0.22676 -0.0216,0.39952 -0.0648,0.57229 h -3.120578 c 0.07558,1.14458 0.691038,1.66286 1.446891,1.66286 0.583087,0 0.982657,-0.24832 1.306594,-0.58306 l 0.377921,0.3455 c -0.442713,0.85304 -1.220184,1.26334 -2.26758,1.26334 -1.576493,0 -2.688693,-1.02579 -2.688693,-2.76426 0,-1.80325 1.382154,-2.78585 2.775082,-2.78585 z m 5.784028,0 c 1.144579,0 1.943599,0.71264 2.019184,1.57647 -0.118781,0.38874 -0.345519,0.56153 -0.734243,0.56153 -0.421118,0 -0.777441,-0.25918 -0.820631,-1.02583 l -0.07557,-0.53987 c -0.06478,-0.011 -0.129616,-0.011 -0.205201,-0.011 -0.615481,0 -1.295711,0.57229 -1.295711,2.03001 0,1.24176 0.604658,1.93285 1.511682,1.93285 0.518301,0 0.89624,-0.24833 1.209379,-0.60466 l 0.37792,0.33472 c -0.421117,0.87463 -1.187757,1.29571 -2.213558,1.29571 -1.468515,0 -2.688693,-0.93938 -2.688693,-2.75342 0,-1.77086 1.306546,-2.79668 2.915434,-2.79668 z m 8.0911,0 0.183547,0.11871 -0.03243,1.56571 v 1.43611 c 0,0.45352 2.7e-5,1.123 0.01086,1.6521 l 0.539871,0.10797 v 0.5075 h -2.861415 v -0.5075 l 0.583065,-0.12959 c 0.01086,-0.51829 0.01086,-1.17698 0.01086,-1.63049 v -0.51827 c 0,-0.59389 -0.01086,-0.92864 -0.03243,-1.36056 l -0.669452,-0.0971 v -0.42112 z m 3.278827,0 0.183602,0.10797 0.04319,0.61549 c 0.464308,-0.4859 0.98259,-0.72347 1.59807,-0.72347 1.176971,0 2.1164,0.96103 2.1164,2.75348 0,1.73847 -1.09061,2.79663 -2.310773,2.79663 -0.572288,0 -1.004174,-0.19431 -1.360504,-0.57224 v 0.43189 c 0,0.52909 0.01074,1.10141 0.02159,1.76007 l 0.691051,0.16196 v 0.5075 h -3.023421 v -0.5075 l 0.604661,-0.12959 c 0.01074,-0.68026 0.02159,-1.25252 0.02159,-1.78162 v -2.92625 c 0,-0.5939 -0.01074,-0.82066 -0.03237,-1.25258 l -0.669452,-0.0971 v -0.42112 z m 6.518273,0 0.183546,0.10797 0.0432,0.61549 c 0.464309,-0.4859 0.982647,-0.72347 1.598126,-0.72347 1.176972,0 2.116399,0.96103 2.116399,2.75348 0,1.73847 -1.09061,2.79663 -2.310773,2.79663 -0.572289,0 -1.004227,-0.19431 -1.360558,-0.57224 v 0.43189 c 0,0.52909 0.01074,1.10141 0.02159,1.76007 l 0.691106,0.16196 v 0.5075 h -3.02342 v -0.5075 l 0.604661,-0.12959 c 0.01074,-0.68026 0.0216,-1.25252 0.0216,-1.78162 v -2.92625 c 0,-0.5939 -0.01074,-0.82066 -0.03237,-1.25258 l -0.669508,-0.0971 v -0.42112 z m 7.436119,0 c 1.425322,0 2.235156,0.98263 2.235156,2.28918 0,0.22676 -0.02159,0.39952 -0.0648,0.57229 h -3.120579 c 0.07558,1.14458 0.691039,1.66286 1.446892,1.66286 0.583087,0 0.982601,-0.24832 1.306537,-0.58306 l 0.377922,0.3455 c -0.442716,0.85304 -1.220128,1.26334 -2.267523,1.26334 -1.576494,0 -2.688695,-1.02579 -2.688695,-2.76426 0,-1.80325 1.382153,-2.78585 2.775082,-2.78585 z m 4.898549,0 0.194373,0.11871 0.09721,1.27417 c 0.291544,-0.92861 0.917794,-1.39293 1.446892,-1.39293 0.475107,0 0.85306,0.26994 0.939443,0.79904 -0.02159,0.56149 -0.334752,0.88543 -0.766668,0.88543 -0.323937,0 -0.572308,-0.16198 -0.831459,-0.5075 l -0.06479,-0.0864 c -0.323937,0.30233 -0.615439,0.79906 -0.723418,1.29576 v 0.73424 c 0,0.44272 -3.1e-5,1.06903 0.01074,1.57653 l 0.853056,0.18355 v 0.50751 h -3.196195 v -0.50751 l 0.593891,-0.1187 c 0.01086,-0.5291 0.01074,-1.18781 0.01074,-1.64133 v -0.63708 c 0,-0.59388 -0.01074,-0.80983 -0.03237,-1.24175 l -0.658683,-0.0971 v -0.42113 z m -43.237822,0.0648 0.17278,0.11871 -0.054,1.52251 v 1.91126 c 0,0.66946 0.21594,0.88541 0.58306,0.88541 0.30235,0 0.63708,-0.20515 0.92862,-0.4859 l 0.0432,-3.05585 -0.59389,-0.12951 v -0.42112 l 2.148768,-0.34555 0.172777,0.1187 -0.03237,1.52251 v 3.06662 l 0.561467,0.11871 v 0.5075 l -2.213562,0.10797 -0.0648,-0.8962 c -0.46431,0.60469 -1.04739,0.93939 -1.74925,0.93939 -0.91782,0 -1.5441,-0.5183 -1.52252,-1.94362 l 0.0432,-2.63467 -0.62624,-0.14035 v -0.45354 z m 7.122941,0.49673 c -0.41032,0 -0.799038,0.42108 -0.84223,1.73843 h 0.91779 c 0.518301,0 0.658684,-0.19437 0.658684,-0.68028 0,-0.71266 -0.334722,-1.05815 -0.734244,-1.05815 z m 31.108347,0 c -0.410321,0 -0.799038,0.42108 -0.84223,1.73843 h 0.917791 c 0.518301,0 0.658682,-0.19437 0.658682,-0.68028 0,-0.71266 -0.334723,-1.05815 -0.734243,-1.05815 z m -47.337388,0.37793 c -0.26995,0 -0.51831,0.12957 -0.74507,0.31313 v 3.08821 c 0.21596,0.19436 0.45355,0.30229 0.7343,0.30229 0.62628,0 1.09057,-0.60467 1.09057,-1.87882 0,-1.27415 -0.43192,-1.82481 -1.0798,-1.82481 z m 34.527582,0 c -0.269947,0 -0.507487,0.12953 -0.734244,0.3023 v 3.13141 c 0.205161,0.17276 0.431931,0.26992 0.701877,0.26992 0.647874,0 1.101394,-0.58304 1.101394,-1.86799 0,-1.27416 -0.431951,-1.83564 -1.069027,-1.83564 z m 6.518273,0 c -0.269946,0 -0.507486,0.12953 -0.734242,0.3023 v 3.13141 c 0.205159,0.17276 0.431928,0.26992 0.701875,0.26992 0.647873,0 1.101394,-0.58304 1.101394,-1.86799 0,-1.27416 -0.431951,-1.83564 -1.069027,-1.83564 z m 14.512215,2.66703 c 0.550693,0 0.97181,0.45355 0.97181,0.98264 0,0.5291 -0.421117,0.96099 -0.97181,0.96099 -0.550695,0 -0.971812,-0.43189 -0.971812,-0.96099 0,-0.52909 0.421117,-0.98264 0.971812,-0.98264 z" /></g></g></g><style
     id="style2"
     type="text/css">
	.st0{fill-rule:evenodd;clip-rule:evenodd;fill:#FF0000;fill-opacity:0;}
	.st1{fill:#D40000;}
	.st2{opacity:0.4217;fill-rule:evenodd;clip-rule:evenodd;fill:#0000FF;enable-background:new    ;}
	.st3{fill-rule:evenodd;clip-rule:evenodd;fill:#D40000;}
	.st4{stroke:#000000;stroke-width:5;stroke-miterlimit:10;}
	.st5{stroke:#000000;stroke-width:1.4295;}
</style><style
     type="text/css"
     id="style2-6">
	.st0{fill-rule:evenodd;clip-rule:evenodd;fill:#FF0000;fill-opacity:0;}
	.st1{fill:#D40000;}
	.st2{opacity:0.4217;fill-rule:evenodd;clip-rule:evenodd;fill:#0000FF;enable-background:new    ;}
	.st3{fill-rule:evenodd;clip-rule:evenodd;fill:#D40000;}
	.st4{stroke:#000000;stroke-width:5;stroke-miterlimit:10;}
	.st5{stroke:#000000;stroke-width:1.4295;}
</style></svg>
