<?xml version="1.0" encoding="UTF-8" standalone="no"?>
<!-- Created with Inkscape (http://www.inkscape.org/) -->

<svg
   width="94.720825mm"
   height="35.983334mm"
   viewBox="0 0 94.720825 35.983334"
   version="1.1"
   id="svg1"
   xml:space="preserve"
   xmlns="http://www.w3.org/2000/svg"
   xmlns:svg="http://www.w3.org/2000/svg"><defs
     id="defs1" /><g
     id="layer1"
     transform="translate(131.74594,-171.11541)"><g
       id="g58"
       transform="translate(0,-233.757)"><g
         style="fill:#f1e0c5;fill-opacity:1"
         id="g56"
         transform="matrix(0.05391007,0,0,0.05391007,-119.83814,389.17245)"><path
           d="m 263.75,580.6582 v 34.25 34.25 34.25 H 298 v -34.25 -8.5625 h 34.25 v -17.125 H 298 v -8.5625 -34.25 z m 68.5,42.8125 h 34.25 v -42.8125 h -34.25 z m 0,17.125 v 42.8125 h 34.25 v -42.8125 z"
           style="opacity:1;fill:#f1e0c5;fill-opacity:1;fill-rule:evenodd;stroke:none;stroke-width:1.11803;stroke-linecap:round;stroke-miterlimit:4;stroke-dasharray:none"
           id="path44" /><path
           d="m 400.75,580.6582 v 34.25 34.25 34.25 H 435 v -34.25 -8.5625 h 34.25 v 8.5625 34.25 h 34.25 v -34.25 -34.25 -34.25 H 469.25 435 Z m 34.25,34.25 h 34.25 v 8.5625 H 435 Z"
           style="opacity:1;fill:#f1e0c5;fill-opacity:1;fill-rule:evenodd;stroke:none;stroke-width:1;stroke-linecap:round;stroke-miterlimit:4;stroke-dasharray:none"
           id="path45" /><path
           d="m 537.75,580.6582 v 34.25 34.25 34.25 H 572 606.25 640.5 v -34.25 -8.5625 h -17.125 v -17.125 H 640.5 v -8.5625 -34.25 H 606.25 572 Z m 34.25,34.25 h 34.25 v 8.5625 h -17.125 v 17.125 h 17.125 v 8.5625 H 572 Z"
           style="opacity:1;fill:#f1e0c5;fill-opacity:1;fill-rule:evenodd;stroke:none;stroke-width:1;stroke-linecap:round;stroke-miterlimit:4;stroke-dasharray:none"
           id="path46" /><path
           d="m 674.75,580.6582 v 34.25 34.25 34.25 H 709 743.25 777.5 v -34.25 -34.25 -34.25 H 743.25 709 Z m 34.25,34.25 h 34.25 v 34.25 H 709 Z"
           style="opacity:1;fill:#f1e0c5;fill-opacity:1;fill-rule:evenodd;stroke:none;stroke-width:1;stroke-linecap:round;stroke-miterlimit:4;stroke-dasharray:none"
           id="path47" /><path
           d="m 811.75,580.6582 v 34.25 34.25 34.25 H 846 880.25 914.5 v -34.25 -34.25 -34.25 H 880.25 846 Z m 34.25,34.25 h 34.25 v 34.25 H 846 Z"
           style="opacity:1;fill:#f1e0c5;fill-opacity:1;fill-rule:evenodd;stroke:none;stroke-width:1;stroke-linecap:round;stroke-miterlimit:4;stroke-dasharray:none"
           id="path48" /><path
           d="m 948.75,580.6582 v 34.25 34.25 34.25 H 983 v -34.25 -34.25 h 8.5625 v 17.125 h 17.125 v -17.125 h 8.5625 v 34.25 34.25 h 34.25 v -34.25 -34.25 -34.25 h -34.25 -8.5625 v 17.125 h -17.125 v -17.125 H 983 Z"
           style="opacity:1;fill:#f1e0c5;fill-opacity:1;fill-rule:evenodd;stroke:none;stroke-width:1;stroke-linecap:round;stroke-miterlimit:4;stroke-dasharray:none"
           id="path49" /><path
           d="m 195.25,512.1582 v 34.25 34.25 34.25 34.25 34.25 34.25 17.125 h 17.125 v 17.125 h 17.125 34.25 34.25 34.25 34.25 34.25 34.25 34.25 34.25 34.25 34.25 34.25 34.25 34.25 34.25 34.25 34.25 34.25 34.25 34.25 34.25 34.25 34.25 34.25 34.25 34.25 34.25 v -34.25 -34.25 -34.25 -34.25 -34.25 -34.25 -17.125 h -17.125 v -17.125 H 1085.75 1051.5 1017.25 983 948.75 914.5 880.25 846 811.75 777.5 743.25 709 674.75 640.5 606.25 572 537.75 503.5 469.25 435 400.75 366.5 332.25 298 263.75 229.5 Z m 34.25,34.25 h 34.25 34.25 34.25 34.25 34.25 34.25 34.25 34.25 34.25 34.25 34.25 34.25 34.25 34.25 34.25 34.25 34.25 34.25 34.25 34.25 34.25 34.25 34.25 34.25 34.25 v 34.25 34.25 34.25 34.25 34.25 H 1051.5 1017.25 983 948.75 914.5 880.25 846 811.75 777.5 743.25 709 674.75 640.5 606.25 572 537.75 503.5 469.25 435 400.75 366.5 332.25 298 263.75 229.5 v -34.25 -34.25 -34.25 -34.25 z"
           style="opacity:1;fill:#f1e0c5;fill-opacity:1;fill-rule:evenodd;stroke:none;stroke-width:1;stroke-linecap:round;stroke-miterlimit:4;stroke-dasharray:none"
           id="path56" /></g><g
         id="g57"><rect
           style="opacity:0;fill:#6e8894;fill-opacity:1;stroke:none;stroke-width:5.44692;stroke-linecap:square;stroke-linejoin:round;stroke-dasharray:none;stroke-opacity:1;paint-order:markers stroke fill"
           id="rect56"
           width="94.720833"
           height="35.983334"
           x="-131.74594"
           y="404.87241" /><text
           xml:space="preserve"
           style="font-style:normal;font-variant:normal;font-weight:bold;font-stretch:normal;font-size:2.96689px;line-height:2.7;font-family:Poppins;-inkscape-font-specification:'Poppins, Bold';font-variant-ligatures:normal;font-variant-caps:normal;font-variant-numeric:normal;font-variant-east-asian:normal;text-align:start;letter-spacing:0.0988966px;writing-mode:lr-tb;direction:ltr;text-anchor:start;fill:#f1e0c5;fill-opacity:1;stroke:none;stroke-width:1.97793;stroke-linecap:square;stroke-linejoin:round;paint-order:markers stroke fill"
           x="-129.83208"
           y="409.0853"
           id="text56"><tspan
             id="tspan56"
             style="fill:#f1e0c5;fill-opacity:1;stroke-width:1.97793"
             x="-129.83208"
             y="409.0853">FOSS</tspan></text></g></g></g></svg>
