<?xml version="1.0" encoding="UTF-8" standalone="no"?>
<!-- Created with Inkscape (http://www.inkscape.org/) -->

<svg
   width="94.720825mm"
   height="35.983334mm"
   viewBox="0 0 94.720825 35.983334"
   version="1.1"
   id="svg1"
   xml:space="preserve"
   xmlns="http://www.w3.org/2000/svg"
   xmlns:svg="http://www.w3.org/2000/svg"><defs
     id="defs1" /><g
     id="layer1"
     transform="translate(131.74594,-171.1154)"><g
       id="g84"
       transform="translate(40.897934)"><g
         style="fill:#f1e0c5;fill-opacity:1"
         id="g56"
         transform="matrix(0.05391007,0,0,0.05391007,-160.73608,155.41545)"><path
           d="m 263.75,580.6582 v 34.25 34.25 34.25 H 298 v -34.25 -8.5625 h 34.25 v -17.125 H 298 v -8.5625 -34.25 z m 68.5,42.8125 h 34.25 v -42.8125 h -34.25 z m 0,17.125 v 42.8125 h 34.25 v -42.8125 z"
           style="opacity:1;fill:#f1e0c5;fill-opacity:1;fill-rule:evenodd;stroke:none;stroke-width:1.11803;stroke-linecap:round;stroke-miterlimit:4;stroke-dasharray:none"
           id="path44" /><path
           d="m 400.75,580.6582 v 34.25 34.25 34.25 H 435 v -34.25 -8.5625 h 34.25 v 8.5625 34.25 h 34.25 v -34.25 -34.25 -34.25 H 469.25 435 Z m 34.25,34.25 h 34.25 v 8.5625 H 435 Z"
           style="opacity:1;fill:#f1e0c5;fill-opacity:1;fill-rule:evenodd;stroke:none;stroke-width:1;stroke-linecap:round;stroke-miterlimit:4;stroke-dasharray:none"
           id="path45" /><path
           d="m 537.75,580.6582 v 34.25 34.25 34.25 H 572 606.25 640.5 v -34.25 -8.5625 h -17.125 v -17.125 H 640.5 v -8.5625 -34.25 H 606.25 572 Z m 34.25,34.25 h 34.25 v 8.5625 h -17.125 v 17.125 h 17.125 v 8.5625 H 572 Z"
           style="opacity:1;fill:#f1e0c5;fill-opacity:1;fill-rule:evenodd;stroke:none;stroke-width:1;stroke-linecap:round;stroke-miterlimit:4;stroke-dasharray:none"
           id="path46" /><path
           d="m 674.75,580.6582 v 34.25 34.25 34.25 H 709 743.25 777.5 v -34.25 -34.25 -34.25 H 743.25 709 Z m 34.25,34.25 h 34.25 v 34.25 H 709 Z"
           style="opacity:1;fill:#f1e0c5;fill-opacity:1;fill-rule:evenodd;stroke:none;stroke-width:1;stroke-linecap:round;stroke-miterlimit:4;stroke-dasharray:none"
           id="path47" /><path
           d="m 811.75,580.6582 v 34.25 34.25 34.25 H 846 880.25 914.5 v -34.25 -34.25 -34.25 H 880.25 846 Z m 34.25,34.25 h 34.25 v 34.25 H 846 Z"
           style="opacity:1;fill:#f1e0c5;fill-opacity:1;fill-rule:evenodd;stroke:none;stroke-width:1;stroke-linecap:round;stroke-miterlimit:4;stroke-dasharray:none"
           id="path48" /><path
           d="m 948.75,580.6582 v 34.25 34.25 34.25 H 983 v -34.25 -34.25 h 8.5625 v 17.125 h 17.125 v -17.125 h 8.5625 v 34.25 34.25 h 34.25 v -34.25 -34.25 -34.25 h -34.25 -8.5625 v 17.125 h -17.125 v -17.125 H 983 Z"
           style="opacity:1;fill:#f1e0c5;fill-opacity:1;fill-rule:evenodd;stroke:none;stroke-width:1;stroke-linecap:round;stroke-miterlimit:4;stroke-dasharray:none"
           id="path49" /><path
           d="m 195.25,512.1582 v 34.25 34.25 34.25 34.25 34.25 34.25 17.125 h 17.125 v 17.125 h 17.125 34.25 34.25 34.25 34.25 34.25 34.25 34.25 34.25 34.25 34.25 34.25 34.25 34.25 34.25 34.25 34.25 34.25 34.25 34.25 34.25 34.25 34.25 34.25 34.25 34.25 34.25 v -34.25 -34.25 -34.25 -34.25 -34.25 -34.25 -17.125 h -17.125 v -17.125 H 1085.75 1051.5 1017.25 983 948.75 914.5 880.25 846 811.75 777.5 743.25 709 674.75 640.5 606.25 572 537.75 503.5 469.25 435 400.75 366.5 332.25 298 263.75 229.5 Z m 34.25,34.25 h 34.25 34.25 34.25 34.25 34.25 34.25 34.25 34.25 34.25 34.25 34.25 34.25 34.25 34.25 34.25 34.25 34.25 34.25 34.25 34.25 34.25 34.25 34.25 34.25 34.25 v 34.25 34.25 34.25 34.25 34.25 H 1051.5 1017.25 983 948.75 914.5 880.25 846 811.75 777.5 743.25 709 674.75 640.5 606.25 572 537.75 503.5 469.25 435 400.75 366.5 332.25 298 263.75 229.5 v -34.25 -34.25 -34.25 -34.25 z"
           style="opacity:1;fill:#f1e0c5;fill-opacity:1;fill-rule:evenodd;stroke:none;stroke-width:1;stroke-linecap:round;stroke-miterlimit:4;stroke-dasharray:none"
           id="path56" /></g><g
         id="g83"><rect
           style="opacity:0;fill:#6e8894;fill-opacity:1;stroke:none;stroke-width:5.44692;stroke-linecap:square;stroke-linejoin:round;stroke-dasharray:none;stroke-opacity:1;paint-order:markers stroke fill"
           id="rect56"
           width="94.720833"
           height="35.983334"
           x="-172.64388"
           y="171.1154" /><path
           d="m -169.1902,173.24554 v 0.40646 h -0.84853 v 0.4391 h 0.63491 v 0.3946 h -0.63491 v 0.84259 h -0.50734 v -2.08275 z m 1.35093,2.10352 q -0.29373,0 -0.53998,-0.13648 -0.24328,-0.13647 -0.38866,-0.37976 -0.14241,-0.24625 -0.14241,-0.55184 0,-0.30559 0.14241,-0.54887 0.14538,-0.24329 0.38866,-0.37977 0.24625,-0.13647 0.53998,-0.13647 0.29372,0 0.537,0.13647 0.24625,0.13648 0.3857,0.37977 0.14241,0.24328 0.14241,0.54887 0,0.30559 -0.14241,0.55184 -0.14241,0.24329 -0.3857,0.37976 -0.24328,0.13648 -0.537,0.13648 z m 0,-0.46283 q 0.24921,0 0.39756,-0.16615 0.15131,-0.16615 0.15131,-0.4391 0,-0.27592 -0.15131,-0.4391 -0.14835,-0.16614 -0.39756,-0.16614 -0.25219,0 -0.4035,0.16317 -0.14835,0.16318 -0.14835,0.44207 0,0.27592 0.14835,0.44207 0.15131,0.16318 0.4035,0.16318 z m 2.19945,0.46283 q -0.22845,0 -0.40943,-0.0742 -0.18098,-0.0742 -0.29076,-0.21955 -0.10681,-0.14538 -0.11274,-0.35009 h 0.53997 q 0.0119,0.1157 0.0801,0.17801 0.0682,0.0593 0.17801,0.0593 0.11275,0 0.17802,-0.0504 0.0653,-0.0534 0.0653,-0.14538 0,-0.0771 -0.0534,-0.12757 -0.0504,-0.0504 -0.12758,-0.0831 -0.0742,-0.0326 -0.21362,-0.0742 -0.20175,-0.0623 -0.32932,-0.12461 -0.12758,-0.0623 -0.21955,-0.18395 -0.092,-0.12164 -0.092,-0.31745 0,-0.29076 0.21065,-0.45394 0.21065,-0.16614 0.54888,-0.16614 0.34416,0 0.55481,0.16614 0.21065,0.16318 0.22548,0.4569 h -0.54887 q -0.006,-0.10087 -0.0742,-0.15724 -0.0682,-0.0593 -0.17504,-0.0593 -0.092,0 -0.14835,0.0504 -0.0564,0.0475 -0.0564,0.13944 0,0.10088 0.0949,0.15725 0.0949,0.0564 0.29669,0.12164 0.20175,0.0682 0.32636,0.13054 0.12758,0.0623 0.21955,0.18098 0.092,0.11868 0.092,0.30559 0,0.17802 -0.092,0.32339 -0.089,0.14538 -0.26109,0.23142 -0.17208,0.086 -0.40646,0.086 z m 1.92353,0 q -0.22845,0 -0.40943,-0.0742 -0.18098,-0.0742 -0.29075,-0.21955 -0.10681,-0.14538 -0.11275,-0.35009 h 0.53998 q 0.0119,0.1157 0.0801,0.17801 0.0682,0.0593 0.17802,0.0593 0.11274,0 0.17801,-0.0504 0.0653,-0.0534 0.0653,-0.14538 0,-0.0771 -0.0534,-0.12757 -0.0504,-0.0504 -0.12758,-0.0831 -0.0742,-0.0326 -0.21361,-0.0742 -0.20175,-0.0623 -0.32933,-0.12461 -0.12758,-0.0623 -0.21955,-0.18395 -0.092,-0.12164 -0.092,-0.31745 0,-0.29076 0.21065,-0.45394 0.21065,-0.16614 0.54887,-0.16614 0.34416,0 0.55481,0.16614 0.21065,0.16318 0.22548,0.4569 h -0.54887 q -0.006,-0.10087 -0.0742,-0.15724 -0.0682,-0.0593 -0.17505,-0.0593 -0.092,0 -0.14834,0.0504 -0.0564,0.0475 -0.0564,0.13944 0,0.10088 0.0949,0.15725 0.0949,0.0564 0.29668,0.12164 0.20175,0.0682 0.32636,0.13054 0.12758,0.0623 0.21955,0.18098 0.092,0.11868 0.092,0.30559 0,0.17802 -0.092,0.32339 -0.089,0.14538 -0.26108,0.23142 -0.17208,0.086 -0.40647,0.086 z"
           id="text56"
           style="font-weight:bold;font-size:2.96689px;line-height:2.7;font-family:Poppins;-inkscape-font-specification:'Poppins, Bold';letter-spacing:0.0988966px;fill:#f1e0c5;stroke-width:1.97793;stroke-linecap:square;stroke-linejoin:round;paint-order:markers stroke fill"
           aria-label="FOSS" /></g></g></g></svg>
