<?xml version="1.0" encoding="UTF-8" standalone="no"?>
<!-- Created with Inkscape (http://www.inkscape.org/) -->

<svg
   width="94.720825mm"
   height="35.983334mm"
   viewBox="0 0 94.720825 35.983334"
   version="1.1"
   id="svg1"
   xml:space="preserve"
   xmlns="http://www.w3.org/2000/svg"
   xmlns:svg="http://www.w3.org/2000/svg"><defs
     id="defs1" /><g
     id="layer1"
     transform="translate(126.93242,-849.43242)"><path
       style="fill:#6e8894;fill-opacity:1"
       d="m 29.10424,886.43959 c -3.32673,-2.1106 -6.1096,-2.8144 -11.13592,-2.816 -3.24778,-0.001 -4.66583,0.1635 -11.5093799,1.336 -10.46596,1.7932 -11.37229,1.9001 -16.27187,1.9198 -3.6734901,0.015 -4.5675101,-0.069 -6.7602001,-0.6345 -4.70003,-1.2121 -8.23295,-3.287 -12.07315,-7.0909 -2.23002,-2.209 -4.07093,-5.1179 -3.65982,-5.7831 0.25869,-0.4185 0.74344,0.035 2.16435,2.0266 1.03887,1.4558 1.35764,1.715 2.55578,2.0782 3.57568,1.0837 8.68345,0.6767 21.3587701,-1.7021 12.86052,-2.4134 16.3563399,-2.6081 21.8150999,-1.2148 2.19195,0.5595 6.01921,2.4506 8.01703,3.9613 2.15278,1.6279 6.9651,6.3493 7.69035,7.545 0.56803,0.9365 0.74145,1.8521 0.35082,1.8521 -0.11707,0 -1.26091,-0.6649 -2.54186,-1.4776 z"
       id="path137" /><g
       id="g114"><path
         d="m -102.08437,870.22345 q -0.65778,0 -1.21613,-0.20651 -0.5507,-0.20651 -0.95607,-0.58129 -0.40538,-0.38243 -0.63483,-0.89489 -0.22181,-0.51245 -0.22181,-1.11669 0,-0.61189 0.22181,-1.1167 0.22945,-0.51245 0.63483,-0.88723 0.40537,-0.38243 0.95607,-0.58894 0.55835,-0.20652 1.20848,-0.20652 0.65778,0 1.20848,0.20652 0.5507,0.20651 0.956071,0.58894 0.405375,0.37478 0.627185,0.88723 0.229457,0.50481 0.229457,1.1167 0,0.60424 -0.229457,1.11669 -0.22181,0.51246 -0.627185,0.89489 -0.405371,0.37478 -0.956071,0.58129 -0.5507,0.20651 -1.20083,0.20651 z m -0.008,-1.46088 q 0.2524,0 0.46656,-0.0918 0.22181,-0.0918 0.38243,-0.26005 0.16827,-0.17592 0.26006,-0.42068 0.0918,-0.2524 0.0918,-0.56599 0,-0.31359 -0.0918,-0.55835 -0.0918,-0.2524 -0.26006,-0.42067 -0.16062,-0.17592 -0.38243,-0.2677 -0.21416,-0.0918 -0.46656,-0.0918 -0.2524,0 -0.47421,0.0918 -0.21416,0.0918 -0.38243,0.2677 -0.16062,0.16827 -0.25241,0.42067 -0.0918,0.24476 -0.0918,0.55835 0,0.31359 0.0918,0.56599 0.0918,0.24476 0.25241,0.42068 0.16827,0.16826 0.38243,0.26005 0.22181,0.0918 0.47421,0.0918 z m 6.751152,1.46088 q -1.231423,0 -1.919796,-0.66543 -0.688373,-0.66542 -0.688373,-1.86625 v -2.94471 h 1.805067 v 2.89117 q 0,0.61189 0.221809,0.87194 0.221809,0.2524 0.59659,0.2524 0.38243,0 0.59659,-0.2524 0.221809,-0.26005 0.221809,-0.87194 v -2.89117 h 1.774473 v 2.94471 q 0,1.20083 -0.688373,1.86625 -0.688373,0.66543 -1.919796,0.66543 z m 3.944126,-0.12238 v -5.35401 h 2.577575 q 0.749562,0 1.292612,0.24476 0.550698,0.24475 0.848993,0.70367 0.298296,0.45126 0.298296,1.0708 0,0.61953 -0.298296,1.0708 -0.298295,0.44362 -0.848993,0.68073 -0.54305,0.2371 -1.292612,0.2371 h -1.575609 l 0.803102,-0.74191 v 2.08806 z m 3.20476,0 -1.315558,-1.95039 h 1.912148 l 1.330854,1.95039 z m -1.399692,-1.8892 -0.803102,-0.8184 h 1.46088 q 0.374781,0 0.550699,-0.16827 0.183566,-0.16826 0.183566,-0.45891 0,-0.29065 -0.183566,-0.45892 -0.175918,-0.16827 -0.550699,-0.16827 h -1.46088 l 0.803102,-0.81839 z m 8.561322,1.8892 -1.713284,-5.35401 h 1.858608 l 1.384394,4.52032 h -0.933128 l 1.46853,-4.52032 h 1.659744 l 1.369097,4.52032 h -0.894885 l 1.445584,-4.52032 h 1.713284 l -1.713284,5.35401 h -1.935093 l -1.116695,-3.70191 h 0.520104 l -1.177882,3.70191 z m 11.00377,0.12238 q -0.657779,0 -1.216126,-0.20651 -0.550699,-0.20651 -0.956074,-0.58129 -0.405375,-0.38243 -0.634833,-0.89489 -0.221809,-0.51245 -0.221809,-1.11669 0,-0.61189 0.221809,-1.1167 0.229458,-0.51245 0.634833,-0.88723 0.405375,-0.38243 0.956074,-0.58894 0.558347,-0.20652 1.208477,-0.20652 0.657779,0 1.208477,0.20652 0.550699,0.20651 0.956074,0.58894 0.405375,0.37478 0.627184,0.88723 0.229458,0.50481 0.229458,1.1167 0,0.60424 -0.229458,1.11669 -0.221809,0.51246 -0.627184,0.89489 -0.405375,0.37478 -0.956074,0.58129 -0.550698,0.20651 -1.200828,0.20651 z m -0.0076,-1.46088 q 0.252404,0 0.466564,-0.0918 0.221809,-0.0918 0.38243,-0.26005 0.168269,-0.17592 0.260052,-0.42068 0.09178,-0.2524 0.09178,-0.56599 0,-0.31359 -0.09178,-0.55835 -0.09178,-0.2524 -0.260052,-0.42067 -0.160621,-0.17592 -0.38243,-0.2677 -0.21416,-0.0918 -0.466564,-0.0918 -0.252403,0 -0.474213,0.0918 -0.21416,0.0918 -0.382429,0.2677 -0.16062,0.16827 -0.252403,0.42067 -0.09178,0.24476 -0.09178,0.55835 0,0.31359 0.09178,0.56599 0.09178,0.24476 0.252403,0.42068 0.168269,0.16826 0.382429,0.26005 0.22181,0.0918 0.474213,0.0918 z m 4.188874,1.3385 v -5.35401 h 2.577575 q 0.749562,0 1.292612,0.24476 0.550698,0.24475 0.848993,0.70367 0.298295,0.45126 0.298295,1.0708 0,0.61953 -0.298295,1.0708 -0.298295,0.44362 -0.848993,0.68073 -0.54305,0.2371 -1.292612,0.2371 h -1.575609 l 0.803102,-0.74191 v 2.08806 z m 3.20476,0 -1.315558,-1.95039 h 1.912148 l 1.330854,1.95039 z m -1.399692,-1.8892 -0.803102,-0.8184 h 1.46088 q 0.374781,0 0.550699,-0.16827 0.183566,-0.16826 0.183566,-0.45891 0,-0.29065 -0.183566,-0.45892 -0.175918,-0.16827 -0.550699,-0.16827 h -1.46088 l 0.803102,-0.81839 z m 6.016896,0.74192 -0.09943,-1.98099 2.019228,-2.22574 h 1.965687 l -2.263982,2.49344 -1.001966,1.02491 z m -1.613853,1.14728 v -5.35401 h 1.774473 v 5.35401 z m 3.518352,0 -1.57561,-2.08041 1.170234,-1.23907 2.493441,3.31948 z"
         id="text113"
         style="font-weight:900;font-size:7.64859px;line-height:1.2;font-family:Montserrat;-inkscape-font-specification:'Montserrat, Heavy';letter-spacing:0.509906px;fill:#f1e0c5;stroke-width:10.1981;stroke-linecap:square;stroke-linejoin:round;paint-order:markers stroke fill"
         aria-label="OUR WORK" /><rect
         style="opacity:0;fill:#6e8894;fill-opacity:1;stroke:none;stroke-width:5.44692;stroke-linecap:square;stroke-linejoin:round;stroke-dasharray:none;stroke-opacity:1;paint-order:markers stroke fill"
         id="rect113"
         width="94.720833"
         height="35.983334"
         x="-126.93243"
         y="849.43237" /></g></g><style
     id="style2"
     type="text/css">
	.st0{fill-rule:evenodd;clip-rule:evenodd;fill:#FF0000;fill-opacity:0;}
	.st1{fill:#D40000;}
	.st2{opacity:0.4217;fill-rule:evenodd;clip-rule:evenodd;fill:#0000FF;enable-background:new    ;}
	.st3{fill-rule:evenodd;clip-rule:evenodd;fill:#D40000;}
	.st4{stroke:#000000;stroke-width:5;stroke-miterlimit:10;}
	.st5{stroke:#000000;stroke-width:1.4295;}
</style><style
     type="text/css"
     id="style2-6">
	.st0{fill-rule:evenodd;clip-rule:evenodd;fill:#FF0000;fill-opacity:0;}
	.st1{fill:#D40000;}
	.st2{opacity:0.4217;fill-rule:evenodd;clip-rule:evenodd;fill:#0000FF;enable-background:new    ;}
	.st3{fill-rule:evenodd;clip-rule:evenodd;fill:#D40000;}
	.st4{stroke:#000000;stroke-width:5;stroke-miterlimit:10;}
	.st5{stroke:#000000;stroke-width:1.4295;}
</style></svg>
