<?xml version="1.0" encoding="UTF-8" standalone="no"?>
<!-- Created with Inkscape (http://www.inkscape.org/) -->

<svg
   width="94.720825mm"
   height="35.983334mm"
   viewBox="0 0 94.720825 35.983334"
   version="1.1"
   id="svg1"
   xml:space="preserve"
   xmlns="http://www.w3.org/2000/svg"
   xmlns:svg="http://www.w3.org/2000/svg"><defs
     id="defs1" /><g
     id="layer1"
     transform="translate(131.74594,-208.15707)"><g
       id="g86"
       transform="translate(32.172607)"><text
         xml:space="preserve"
         style="font-style:normal;font-variant:normal;font-weight:bold;font-stretch:normal;font-size:10.3918px;line-height:2.7;font-family:'Space Mono';-inkscape-font-specification:'Space Mono, Bold';font-variant-ligatures:normal;font-variant-caps:normal;font-variant-numeric:normal;font-variant-east-asian:normal;text-align:start;letter-spacing:0.0406368px;writing-mode:lr-tb;direction:ltr;text-anchor:start;fill:#f1e0c5;fill-opacity:1;stroke:none;stroke-width:0.812741;stroke-linecap:square;stroke-linejoin:round;stroke-dasharray:none;stroke-opacity:1;paint-order:markers stroke fill"
         x="-141.76537"
         y="228.33066"
         id="text97"><tspan
           style="font-style:normal;font-variant:normal;font-weight:bold;font-stretch:normal;font-size:10.3918px;font-family:'Space Mono';-inkscape-font-specification:'Space Mono, Bold';font-variant-ligatures:normal;font-variant-caps:normal;font-variant-numeric:normal;font-variant-east-asian:normal;letter-spacing:0.0406368px;fill:#f1e0c5;fill-opacity:1;stroke-width:0.812741"
           x="-141.76537"
           y="228.33066"
           id="tspan3">TankÅbon</tspan></text><rect
         style="fill:#f1e0c5;fill-opacity:1;stroke-width:2.76129;stroke-linecap:square;stroke-linejoin:round;paint-order:markers stroke fill"
         id="rect4"
         width="50.414467"
         height="1.3229166"
         x="-141.76537"
         y="229.91818" /><g
         id="g85"><rect
           style="opacity:0;fill:#6e8894;fill-opacity:1;stroke:none;stroke-width:5.44692;stroke-linecap:square;stroke-linejoin:round;stroke-dasharray:none;stroke-opacity:1;paint-order:markers stroke fill"
           id="rect7"
           width="94.720833"
           height="35.983334"
           x="-163.91855"
           y="208.15707" /><path
           d="m -160.46487,210.28721 v 0.40646 h -0.84853 v 0.4391 h 0.63492 v 0.3946 h -0.63492 v 0.84259 h -0.50734 v -2.08275 z m 1.35093,2.10352 q -0.29372,0 -0.53998,-0.13647 -0.24328,-0.13648 -0.38866,-0.37977 -0.14241,-0.24625 -0.14241,-0.55184 0,-0.30559 0.14241,-0.54887 0.14538,-0.24329 0.38866,-0.37976 0.24626,-0.13648 0.53998,-0.13648 0.29372,0 0.53701,0.13648 0.24625,0.13647 0.38569,0.37976 0.14241,0.24328 0.14241,0.54887 0,0.30559 -0.14241,0.55184 -0.14241,0.24329 -0.38569,0.37977 -0.24329,0.13647 -0.53701,0.13647 z m 0,-0.46283 q 0.24922,0 0.39756,-0.16615 0.15131,-0.16614 0.15131,-0.4391 0,-0.27592 -0.15131,-0.4391 -0.14834,-0.16614 -0.39756,-0.16614 -0.25219,0 -0.4035,0.16318 -0.14834,0.16317 -0.14834,0.44206 0,0.27592 0.14834,0.44207 0.15131,0.16318 0.4035,0.16318 z m 2.19945,0.46283 q -0.22845,0 -0.40943,-0.0742 -0.18098,-0.0742 -0.29075,-0.21955 -0.10681,-0.14538 -0.11275,-0.35009 h 0.53998 q 0.0119,0.11571 0.0801,0.17801 0.0682,0.0593 0.17802,0.0593 0.11274,0 0.17801,-0.0504 0.0653,-0.0534 0.0653,-0.14538 0,-0.0771 -0.0534,-0.12757 -0.0504,-0.0504 -0.12758,-0.0831 -0.0742,-0.0326 -0.21361,-0.0742 -0.20175,-0.0623 -0.32933,-0.12461 -0.12758,-0.0623 -0.21955,-0.18394 -0.092,-0.12165 -0.092,-0.31746 0,-0.29076 0.21065,-0.45394 0.21065,-0.16614 0.54887,-0.16614 0.34416,0 0.55481,0.16614 0.21065,0.16318 0.22548,0.45691 h -0.54887 q -0.006,-0.10088 -0.0742,-0.15725 -0.0682,-0.0593 -0.17505,-0.0593 -0.092,0 -0.14834,0.0504 -0.0564,0.0475 -0.0564,0.13944 0,0.10088 0.0949,0.15725 0.095,0.0564 0.29669,0.12164 0.20175,0.0682 0.32636,0.13054 0.12758,0.0623 0.21955,0.18098 0.092,0.11868 0.092,0.30559 0,0.17802 -0.092,0.3234 -0.089,0.14537 -0.26108,0.23141 -0.17208,0.086 -0.40647,0.086 z m 1.92353,0 q -0.22845,0 -0.40943,-0.0742 -0.18098,-0.0742 -0.29075,-0.21955 -0.10681,-0.14538 -0.11274,-0.35009 h 0.53997 q 0.0119,0.11571 0.0801,0.17801 0.0682,0.0593 0.17801,0.0593 0.11274,0 0.17801,-0.0504 0.0653,-0.0534 0.0653,-0.14538 0,-0.0771 -0.0534,-0.12757 -0.0504,-0.0504 -0.12758,-0.0831 -0.0742,-0.0326 -0.21361,-0.0742 -0.20175,-0.0623 -0.32933,-0.12461 -0.12757,-0.0623 -0.21955,-0.18394 -0.092,-0.12165 -0.092,-0.31746 0,-0.29076 0.21065,-0.45394 0.21065,-0.16614 0.54887,-0.16614 0.34416,0 0.55481,0.16614 0.21065,0.16318 0.22549,0.45691 h -0.54888 q -0.006,-0.10088 -0.0742,-0.15725 -0.0682,-0.0593 -0.17505,-0.0593 -0.092,0 -0.14834,0.0504 -0.0564,0.0475 -0.0564,0.13944 0,0.10088 0.0949,0.15725 0.0949,0.0564 0.29669,0.12164 0.20175,0.0682 0.32635,0.13054 0.12758,0.0623 0.21955,0.18098 0.092,0.11868 0.092,0.30559 0,0.17802 -0.092,0.3234 -0.089,0.14537 -0.26108,0.23141 -0.17208,0.086 -0.40647,0.086 z"
           id="text43"
           style="font-weight:bold;font-size:2.96689px;line-height:2.7;font-family:Poppins;-inkscape-font-specification:'Poppins, Bold';letter-spacing:0.0988966px;fill:#f1e0c5;stroke-width:1.97793;stroke-linecap:square;stroke-linejoin:round;paint-order:markers stroke fill"
           aria-label="FOSS" /></g></g></g></svg>
