<?xml version="1.0" encoding="UTF-8" standalone="no"?>
<!-- Created with Inkscape (http://www.inkscape.org/) -->

<svg
   width="94.720825mm"
   height="35.983334mm"
   viewBox="0 0 94.720825 35.983334"
   version="1.1"
   id="svg1"
   xml:space="preserve"
   xmlns="http://www.w3.org/2000/svg"
   xmlns:svg="http://www.w3.org/2000/svg"><defs
     id="defs1" /><g
     id="layer1"
     transform="translate(131.74594,-208.15707)"><g
       id="g87"><g
         id="g86"><path
           d="m -109.0316,221.0564 h 5.23747 v 1.30936 h -1.93288 v 5.9649 h -1.37172 v -5.9649 h -1.93287 z m 9.985584,6.52605 q -0.207836,0.48841 -0.581941,0.69625 -0.374103,0.19744 -0.872913,0.19744 -0.46763,0 -0.8833,-0.17666 -0.40528,-0.17666 -0.71704,-0.51959 -0.31175,-0.34293 -0.4988,-0.83134 -0.17666,-0.48842 -0.17666,-1.11192 v -0.16627 q 0,-0.61312 0.17666,-1.10153 0.17666,-0.48842 0.47802,-0.83135 0.30136,-0.34293 0.69625,-0.51959 0.40528,-0.18705 0.86252,-0.18705 0.55077,0 0.883304,0.18705 0.342929,0.18705 0.540373,0.58194 h 0.187053 v -0.6235 h 1.309366 v 3.59556 q 0,0.31175 0.280579,0.31175 h 0.197444 v 1.24702 h -0.893695 q -0.353321,0 -0.58194,-0.20784 -0.218228,-0.20783 -0.218228,-0.54037 z m -1.163884,-0.35332 q 0.571551,0 0.91448,-0.37411 0.34293,-0.38449 0.34293,-1.03918 v -0.1247 q 0,-0.65468 -0.34293,-1.02879 -0.342929,-0.38449 -0.91448,-0.38449 -0.57155,0 -0.91448,0.38449 -0.34293,0.37411 -0.34293,1.02879 v 0.1247 q 0,0.65469 0.34293,1.03918 0.34293,0.37411 0.91448,0.37411 z m 5.537896,1.10153 h -1.309367 v -5.15433 h 1.309367 v 0.76899 h 0.187052 q 0.176661,-0.43646 0.571549,-0.67547 0.394889,-0.23901 0.924871,-0.23901 0.374104,0 0.69625,0.1247 0.332538,0.11431 0.581941,0.36371 0.249403,0.24941 0.384497,0.6339 0.145485,0.3845 0.145485,0.91448 v 3.26303 h -1.309367 v -2.93049 q 0,-0.55077 -0.270187,-0.86252 -0.259795,-0.32214 -0.758601,-0.32214 -0.581941,0 -0.872911,0.39488 -0.280579,0.3845 -0.280579,1.03918 z m 6.816086,-3.26303 h 0.249403 l 1.371717,-1.8913 h 1.434069 v 0.0623 l -1.662688,2.35893 v 0.18706 l 1.828957,2.48364 v 0.0623 h -1.49642 l -1.475635,-2.01601 h -0.249403 v 2.01601 h -1.309367 v -7.27426 h 1.309367 z m 9.725789,0.74821 q 0,0.64429 -0.218228,1.1431 -0.218228,0.48841 -0.592332,0.83134 -0.374105,0.33254 -0.86252,0.5092 -0.478023,0.17666 -1.008004,0.17666 -0.529982,0 -1.018397,-0.17666 -0.478023,-0.17666 -0.852127,-0.5092 -0.374105,-0.34293 -0.592333,-0.83134 -0.218228,-0.49881 -0.218228,-1.1431 v -0.1247 q 0,-0.6339 0.218228,-1.12231 0.218228,-0.49881 0.592333,-0.84174 0.374104,-0.34293 0.852127,-0.51959 0.488415,-0.17666 1.018397,-0.17666 0.529981,0 1.008004,0.17666 0.488415,0.17666 0.86252,0.51959 0.374104,0.34293 0.592332,0.84174 0.218228,0.48841 0.218228,1.12231 z m -2.681084,1.41329 q 0.280578,0 0.529981,-0.0935 0.249404,-0.0935 0.436456,-0.27019 0.187052,-0.17666 0.29097,-0.42606 0.11431,-0.25979 0.11431,-0.58194 v -0.20784 q 0,-0.32214 -0.11431,-0.57155 -0.103918,-0.25979 -0.29097,-0.43645 -0.187052,-0.17666 -0.436456,-0.27019 -0.249403,-0.0935 -0.529981,-0.0935 -0.280579,0 -0.529982,0.0935 -0.249403,0.0935 -0.436456,0.27019 -0.187052,0.17666 -0.301362,0.43645 -0.103918,0.24941 -0.103918,0.57155 v 0.20784 q 0,0.32215 0.103918,0.58194 0.11431,0.2494 0.301362,0.42606 0.187053,0.17666 0.436456,0.27019 0.249403,0.0935 0.529982,0.0935 z m 1.527594,-4.8218 h -3.055189 v -1.05996 h 3.055189 z m 3.594628,5.92333 h -1.309367 v -7.27426 h 1.309367 v 2.86813 h 0.187052 q 0.207836,-0.42606 0.602725,-0.65468 0.394888,-0.23901 1.008004,-0.23901 0.457239,0 0.86252,0.17666 0.415672,0.17666 0.717034,0.51959 0.311754,0.33254 0.488414,0.82095 0.187053,0.48842 0.187053,1.11193 v 0.18705 q 0,0.6339 -0.176661,1.12231 -0.17666,0.48842 -0.478023,0.83135 -0.301362,0.33253 -0.717034,0.50919 -0.40528,0.16627 -0.883303,0.16627 -0.353321,0 -0.613116,-0.0727 -0.259795,-0.0727 -0.457239,-0.19744 -0.187053,-0.12471 -0.322146,-0.28058 -0.124702,-0.16627 -0.218228,-0.34293 h -0.187052 z m 1.371717,-1.10153 q 0.613117,0 0.987221,-0.37411 0.384497,-0.38449 0.384497,-1.03918 v -0.1247 q 0,-0.65468 -0.384497,-1.02879 -0.374104,-0.38449 -0.987221,-0.38449 -0.613116,0 -0.997612,0.39488 -0.374105,0.3845 -0.374105,1.0184 v 0.1247 q 0,0.6339 0.374105,1.02879 0.384496,0.3845 0.997612,0.3845 z m 8.987972,-1.41329 q 0,0.64429 -0.218228,1.1431 -0.218228,0.48841 -0.592332,0.83134 -0.374105,0.33254 -0.86252,0.5092 -0.478023,0.17666 -1.008004,0.17666 -0.529982,0 -1.018397,-0.17666 -0.478023,-0.17666 -0.852127,-0.5092 -0.374105,-0.34293 -0.592333,-0.83134 -0.218228,-0.49881 -0.218228,-1.1431 v -0.1247 q 0,-0.6339 0.218228,-1.12231 0.218228,-0.49881 0.592333,-0.84174 0.374104,-0.34293 0.852127,-0.51959 0.488415,-0.17666 1.018397,-0.17666 0.529981,0 1.008004,0.17666 0.488415,0.17666 0.86252,0.51959 0.374104,0.34293 0.592332,0.84174 0.218228,0.48841 0.218228,1.12231 z m -2.681084,1.41329 q 0.280578,0 0.529981,-0.0935 0.249404,-0.0935 0.436456,-0.27019 0.187052,-0.17666 0.29097,-0.42606 0.11431,-0.25979 0.11431,-0.58194 v -0.20784 q 0,-0.32214 -0.11431,-0.57155 -0.103918,-0.25979 -0.29097,-0.43645 -0.187052,-0.17666 -0.436456,-0.27019 -0.249403,-0.0935 -0.529981,-0.0935 -0.280579,0 -0.529982,0.0935 -0.249403,0.0935 -0.436456,0.27019 -0.187052,0.17666 -0.301362,0.43645 -0.103918,0.24941 -0.103918,0.57155 v 0.20784 q 0,0.32215 0.103918,0.58194 0.11431,0.2494 0.301362,0.42606 0.187053,0.17666 0.436456,0.27019 0.249403,0.0935 0.529982,0.0935 z m 5.34045,1.10153 h -1.309367 v -5.15433 h 1.309367 v 0.76899 h 0.187052 q 0.176661,-0.43646 0.571549,-0.67547 0.394888,-0.23901 0.92487,-0.23901 0.374105,0 0.696251,0.1247 0.332537,0.11431 0.581941,0.36371 0.249403,0.24941 0.384496,0.6339 0.145485,0.3845 0.145485,0.91448 v 3.26303 h -1.309366 v -2.93049 q 0,-0.55077 -0.270187,-0.86252 -0.259795,-0.32214 -0.758602,-0.32214 -0.58194,0 -0.872911,0.39488 -0.280578,0.3845 -0.280578,1.03918 z"
           id="text97"
           style="font-weight:bold;font-size:10.3918px;line-height:2.7;font-family:'Space Mono';-inkscape-font-specification:'Space Mono, Bold';letter-spacing:0.0406368px;fill:#f1e0c5;stroke-width:0.812741;stroke-linecap:square;stroke-linejoin:round;paint-order:markers stroke fill"
           aria-label="TankÅbon" /><rect
           style="fill:#f1e0c5;fill-opacity:1;stroke-width:2.76129;stroke-linecap:square;stroke-linejoin:round;paint-order:markers stroke fill"
           id="rect4"
           width="50.414467"
           height="1.3229166"
           x="-109.59276"
           y="229.91818" /></g><g
         id="g85"
         transform="translate(32.172607)"><rect
           style="opacity:0;fill:#6e8894;fill-opacity:1;stroke:none;stroke-width:5.44692;stroke-linecap:square;stroke-linejoin:round;stroke-dasharray:none;stroke-opacity:1;paint-order:markers stroke fill"
           id="rect7"
           width="94.720833"
           height="35.983334"
           x="-163.91855"
           y="208.15707" /><path
           d="m -160.46487,210.28721 v 0.40646 h -0.84853 v 0.4391 h 0.63492 v 0.3946 h -0.63492 v 0.84259 h -0.50734 v -2.08275 z m 1.35093,2.10352 q -0.29372,0 -0.53998,-0.13647 -0.24328,-0.13648 -0.38866,-0.37977 -0.14241,-0.24625 -0.14241,-0.55184 0,-0.30559 0.14241,-0.54887 0.14538,-0.24329 0.38866,-0.37976 0.24626,-0.13648 0.53998,-0.13648 0.29372,0 0.53701,0.13648 0.24625,0.13647 0.38569,0.37976 0.14241,0.24328 0.14241,0.54887 0,0.30559 -0.14241,0.55184 -0.14241,0.24329 -0.38569,0.37977 -0.24329,0.13647 -0.53701,0.13647 z m 0,-0.46283 q 0.24922,0 0.39756,-0.16615 0.15131,-0.16614 0.15131,-0.4391 0,-0.27592 -0.15131,-0.4391 -0.14834,-0.16614 -0.39756,-0.16614 -0.25219,0 -0.4035,0.16318 -0.14834,0.16317 -0.14834,0.44206 0,0.27592 0.14834,0.44207 0.15131,0.16318 0.4035,0.16318 z m 2.19945,0.46283 q -0.22845,0 -0.40943,-0.0742 -0.18098,-0.0742 -0.29075,-0.21955 -0.10681,-0.14538 -0.11275,-0.35009 h 0.53998 q 0.0119,0.11571 0.0801,0.17801 0.0682,0.0593 0.17802,0.0593 0.11274,0 0.17801,-0.0504 0.0653,-0.0534 0.0653,-0.14538 0,-0.0771 -0.0534,-0.12757 -0.0504,-0.0504 -0.12758,-0.0831 -0.0742,-0.0326 -0.21361,-0.0742 -0.20175,-0.0623 -0.32933,-0.12461 -0.12758,-0.0623 -0.21955,-0.18394 -0.092,-0.12165 -0.092,-0.31746 0,-0.29076 0.21065,-0.45394 0.21065,-0.16614 0.54887,-0.16614 0.34416,0 0.55481,0.16614 0.21065,0.16318 0.22548,0.45691 h -0.54887 q -0.006,-0.10088 -0.0742,-0.15725 -0.0682,-0.0593 -0.17505,-0.0593 -0.092,0 -0.14834,0.0504 -0.0564,0.0475 -0.0564,0.13944 0,0.10088 0.0949,0.15725 0.095,0.0564 0.29669,0.12164 0.20175,0.0682 0.32636,0.13054 0.12758,0.0623 0.21955,0.18098 0.092,0.11868 0.092,0.30559 0,0.17802 -0.092,0.3234 -0.089,0.14537 -0.26108,0.23141 -0.17208,0.086 -0.40647,0.086 z m 1.92353,0 q -0.22845,0 -0.40943,-0.0742 -0.18098,-0.0742 -0.29075,-0.21955 -0.10681,-0.14538 -0.11274,-0.35009 h 0.53997 q 0.0119,0.11571 0.0801,0.17801 0.0682,0.0593 0.17801,0.0593 0.11274,0 0.17801,-0.0504 0.0653,-0.0534 0.0653,-0.14538 0,-0.0771 -0.0534,-0.12757 -0.0504,-0.0504 -0.12758,-0.0831 -0.0742,-0.0326 -0.21361,-0.0742 -0.20175,-0.0623 -0.32933,-0.12461 -0.12757,-0.0623 -0.21955,-0.18394 -0.092,-0.12165 -0.092,-0.31746 0,-0.29076 0.21065,-0.45394 0.21065,-0.16614 0.54887,-0.16614 0.34416,0 0.55481,0.16614 0.21065,0.16318 0.22549,0.45691 h -0.54888 q -0.006,-0.10088 -0.0742,-0.15725 -0.0682,-0.0593 -0.17505,-0.0593 -0.092,0 -0.14834,0.0504 -0.0564,0.0475 -0.0564,0.13944 0,0.10088 0.0949,0.15725 0.0949,0.0564 0.29669,0.12164 0.20175,0.0682 0.32635,0.13054 0.12758,0.0623 0.21955,0.18098 0.092,0.11868 0.092,0.30559 0,0.17802 -0.092,0.3234 -0.089,0.14537 -0.26108,0.23141 -0.17208,0.086 -0.40647,0.086 z"
           id="text43"
           style="font-weight:bold;font-size:2.96689px;line-height:2.7;font-family:Poppins;-inkscape-font-specification:'Poppins, Bold';letter-spacing:0.0988966px;fill:#f1e0c5;stroke-width:1.97793;stroke-linecap:square;stroke-linejoin:round;paint-order:markers stroke fill"
           aria-label="FOSS" /></g></g></g></svg>
