<?xml version="1.0" encoding="UTF-8" standalone="no"?>
<!-- Created with Inkscape (http://www.inkscape.org/) -->

<svg
   width="266.94778mm"
   height="92.801376mm"
   viewBox="0 0 266.94778 92.801376"
   version="1.1"
   id="svg1"
   xml:space="preserve"
   xmlns="http://www.w3.org/2000/svg"
   xmlns:svg="http://www.w3.org/2000/svg"><defs
     id="defs1" /><g
     id="layer1"
     transform="translate(-1908.329,-338.14624)"><g
       id="g63"
       transform="matrix(0.50899972,0,0,0.50899972,1320.8776,243.92601)"
       style="stroke:#f1e0c5;stroke-width:10.3962;stroke-linejoin:round;stroke-dasharray:none;stroke-opacity:1"><path
         id="path6"
         style="fill:#111427;fill-opacity:1;stroke:#f1e0c5;stroke-width:10.3962;stroke-linecap:round;stroke-linejoin:round;stroke-dasharray:none;stroke-opacity:1"
         d="m 1450.8534,303.40304 a 18.567308,18.567308 0 0 1 -18.5648,18.56731 18.567308,18.567308 0 0 1 0,-2.2e-4 v 6e-4 a 18.567308,18.567308 0 0 1 18.5673,18.55682 v 0.01 h 2e-4 a 18.567308,18.567308 0 0 1 18.5598,-18.56731 18.567308,18.567308 0 0 1 0.01,4.5e-4 v -6.1e-4 a 18.567308,18.567308 0 0 1 -18.5673,-18.5623 18.567308,18.567308 0 0 1 2e-4,-0.005 z" /><path
         id="path7"
         style="fill:#111427;fill-opacity:1;stroke:#f1e0c5;stroke-width:10.3962;stroke-linecap:round;stroke-linejoin:round;stroke-dasharray:none;stroke-opacity:1"
         d="m 1381.8764,303.40304 a 18.567308,18.567308 0 0 1 -18.5648,18.56731 18.567308,18.567308 0 0 1 0,-2.2e-4 v 6e-4 a 18.567308,18.567308 0 0 1 18.5674,18.55683 v 0.01 h 2e-4 a 18.567308,18.567308 0 0 1 18.5598,-18.56731 18.567308,18.567308 0 0 1 0.01,4.5e-4 v -6e-4 a 18.567308,18.567308 0 0 1 -18.5673,-18.5623 18.567308,18.567308 0 0 1 2e-4,-0.005 z" /><path
         id="path62"
         style="fill:#111427;fill-opacity:1;stroke:#f1e0c5;stroke-width:10.3962;stroke-linecap:round;stroke-linejoin:round;stroke-dasharray:none;stroke-opacity:1"
         d="m 1416.365,303.40304 a 18.567308,18.567308 0 0 1 -18.5648,18.56731 18.567308,18.567308 0 0 1 0,-2.2e-4 v 6e-4 a 18.567308,18.567308 0 0 1 18.5673,18.55682 v 0.01 h 2e-4 a 18.567308,18.567308 0 0 1 18.5598,-18.56731 18.567308,18.567308 0 0 1 0.01,4.5e-4 v -6.1e-4 a 18.567308,18.567308 0 0 1 -18.5673,-18.5623 18.567308,18.567308 0 0 1 2e-4,-0.005 z" /></g><path
       style="-inkscape-font-specification:'Montserrat, Heavy';fill:#f1e0c5;stroke-linecap:square;stroke-linejoin:round;paint-order:markers stroke fill"
       d="m 1990.1289,419.24414 c -0.892,0 -1.7827,0.12442 -2.6484,0.50391 a 2.6460995,2.6460995 0 0 0 -0.012,0.006 c -0.7716,0.34287 -1.5319,0.90113 -2.0625,1.67578 a 2.6460995,2.6460995 0 0 0 -0.01,0.008 c -0.4928,0.72537 -0.7734,1.6514 -0.7734,2.51953 0,0.59123 0.16,1.25247 0.4628,1.89063 l -0.332,0.7539 a 2.6460995,2.6460995 0 0 0 1.0508,3.33399 c 0.6175,0.37288 1.2569,0.59904 1.9238,0.76172 0.6905,0.1684 1.4009,0.25 2.1153,0.25 0.8954,0 1.7869,-0.11975 2.6601,-0.50782 a 2.6460995,2.6460995 0 0 0 0.029,-0.0117 c 0.7547,-0.34593 1.5001,-0.894 2.0274,-1.66796 0.4901,-0.7169 0.7851,-1.64321 0.7851,-2.5254 0,-0.65783 -0.129,-1.40584 -0.5293,-2.11132 -0.036,-0.0636 -0.1123,-0.0999 -0.1523,-0.16211 l 0.2168,-0.52149 a 2.6460995,2.6460995 0 0 0 -1.1446,-3.32031 c -0.5744,-0.32383 -1.1922,-0.54663 -1.8222,-0.68359 -0.587,-0.12761 -1.1882,-0.19141 -1.7891,-0.19141 z m 14.3399,0 c -0.7765,0 -1.5612,0.12683 -2.3008,0.40039 a 2.6460995,2.6460995 0 0 0 -0.012,0.006 c -0.7191,0.26962 -1.4012,0.68419 -1.9708,1.21875 -0.5638,0.52375 -1.0252,1.16899 -1.3378,1.86719 a 2.6460995,2.6460995 0 0 0 -0.01,0.0176 c -0.3277,0.74583 -0.4785,1.55496 -0.4785,2.34179 0,0.78505 0.1527,1.59096 0.4726,2.33008 a 2.6460995,2.6460995 0 0 0 0.012,0.0312 c 0.3123,0.69751 0.7689,1.34144 1.3261,1.86719 a 2.6460995,2.6460995 0 0 0 0.02,0.0176 c 0.5701,0.52716 1.2495,0.93368 1.9629,1.20117 a 2.6460995,2.6460995 0 0 0 0.012,0.004 c 0.7433,0.27492 1.5315,0.4004 2.3105,0.4004 0.7765,0 1.5618,-0.12641 2.3028,-0.4043 0.7133,-0.26749 1.3927,-0.67401 1.9628,-1.20117 a 2.6460995,2.6460995 0 0 0 0.02,-0.0176 c 0.5592,-0.52763 1.0129,-1.18043 1.3203,-1.88477 0.3287,-0.74077 0.4902,-1.55343 0.4902,-2.34375 0,-0.79073 -0.1606,-1.60502 -0.4961,-2.35156 -0.3076,-0.70154 -0.7627,-1.35159 -1.3261,-1.875 -0.5696,-0.53456 -1.2517,-0.94913 -1.9707,-1.21875 -0.7448,-0.27929 -1.5335,-0.40625 -2.3125,-0.40625 z m 12.1503,0.14063 a 2.6460995,2.6460995 0 0 0 -2.6464,2.64648 v 6.13086 a 2.6460995,2.6460995 0 0 0 2.6464,2.64648 h 2.0664 a 2.6460995,2.6460995 0 0 0 1.9629,-1.96289 h 0.5938 a 2.6460995,2.6460995 0 0 0 2.6465,-2.64648 v -1.5586 a 2.6460995,2.6460995 0 0 0 -0.3457,-0.3457 2.6460995,2.6460995 0 0 0 0.705,-0.70508 v -1.55859 a 2.6460995,2.6460995 0 0 0 -2.6464,-2.64648 z m 13.1563,0 a 2.6460995,2.6460995 0 0 0 -2.6445,2.64648 v 1.60156 a 2.6460995,2.6460995 0 0 0 1.7949,1.79688 v 2.73242 a 2.6460995,2.6460995 0 0 0 2.6465,2.64648 h 2.0664 a 2.6460995,2.6460995 0 0 0 2.6465,-2.64648 v -2.73438 a 2.6460995,2.6460995 0 0 0 1.7949,-1.79492 v -1.60156 a 2.6460995,2.6460995 0 0 0 -2.6465,-2.64648 z m 13.5449,0 a 2.6460995,2.6460995 0 0 0 -2.5215,3.45312 l 1.9629,6.13086 a 2.6460995,2.6460995 0 0 0 2.5196,1.83984 h 2.2167 a 2.6460995,2.6460995 0 0 0 1.0235,-0.74804 2.6460995,2.6460995 0 0 0 1.0078,0.74804 h 2.2168 a 2.6460995,2.6460995 0 0 0 2.5195,-1.83984 l 1.9629,-6.13086 a 2.6460995,2.6460995 0 0 0 -2.5215,-3.45312 h -1.9609 a 2.6460995,2.6460995 0 0 0 -1.1094,0.80859 2.6460995,2.6460995 0 0 0 -1.0898,-0.80859 h -1.9004 a 2.6460995,2.6460995 0 0 0 -1.1094,0.80664 2.6460995,2.6460995 0 0 0 -1.0898,-0.80664 z m 20.5762,0 a 2.6460995,2.6460995 0 0 0 -2.4238,1.58593 l -2.6817,6.13086 a 2.6460995,2.6460995 0 0 0 2.4258,3.70703 h 2.1016 a 2.6460995,2.6460995 0 0 0 1.5566,-1.07031 h 0.039 a 2.6460995,2.6460995 0 0 0 1.5566,1.07031 h 2.1387 a 2.6460995,2.6460995 0 0 0 2.4238,-3.70703 l -2.6797,-6.13086 a 2.6460995,2.6460995 0 0 0 -2.4258,-1.58593 z m 12.9824,0 a 2.6460995,2.6460995 0 0 0 -2.6465,2.64648 v 6.13086 a 2.6460995,2.6460995 0 0 0 2.6465,2.64648 h 2.0664 a 2.6460995,2.6460995 0 0 0 0.5567,-0.55664 2.6460995,2.6460995 0 0 0 1.0468,0.55664 h 2.2071 a 2.6460995,2.6460995 0 0 0 2.1855,-4.13867 l -0.2441,-0.35742 c 0.2816,-0.64685 0.5742,-1.31013 0.5742,-1.96875 0,-0.89504 -0.2476,-1.86992 -0.7793,-2.67773 -0.5151,-0.78731 -1.2897,-1.40679 -2.1035,-1.76954 -0.8276,-0.37102 -1.7017,-0.51171 -2.5586,-0.51171 z m 14.4629,0 a 2.6460995,2.6460995 0 0 0 -2.6465,2.64648 v 6.13086 a 2.6460995,2.6460995 0 0 0 2.6465,2.64648 h 5.0977 a 2.6460995,2.6460995 0 0 0 2.6464,-2.64648 v -1.55859 a 2.6460995,2.6460995 0 0 0 -0.6406,-0.63868 2.6460995,2.6460995 0 0 0 0.168,-0.16797 v -1.48828 a 2.6460995,2.6460995 0 0 0 -0.1797,-0.17968 2.6460995,2.6460995 0 0 0 0.5371,-0.53907 v -1.55859 a 2.6460995,2.6460995 0 0 0 -2.6445,-2.64648 z m -99.7285,1.63867 0.014,0.004 c 0,-5e-4 0,5e-4 -0.01,0 0,-7.5e-4 -0.01,-0.003 -0.01,-0.004 z m 14.4004,0.20117 0.031,0.0117 c -0.01,-0.003 -0.013,-10e-4 -0.02,-0.004 0,-0.002 -0.01,-0.006 -0.012,-0.008 z m 76.1035,0.64258 0.041,0.0371 c -0.01,-0.008 -0.019,-0.008 -0.027,-0.0156 -0.01,-0.006 -0.01,-0.0158 -0.014,-0.0215 z m -74.8067,0.23633 0.084,0.0879 c -0.014,-0.0151 -0.037,-0.0202 -0.051,-0.0352 -0.015,-0.0157 -0.018,-0.0372 -0.033,-0.0527 z m -13.8281,0.58984 0.029,0.0195 c -0.01,-0.004 -0.015,-0.005 -0.022,-0.01 0,-0.002 0,-0.007 -0.01,-0.01 z m 7.2383,0.83398 c 0,0.005 -2e-4,0.009 0,0.0137 0,0.004 -0.01,0.008 -0.01,0.0117 z m 7.4941,0 0.01,0.0254 c 0,-0.004 -0.01,-0.008 -0.01,-0.0117 0,-0.005 -2e-4,-0.009 0,-0.0137 z m -3.746,1.00977 c 0.2253,0 0.359,0.0304 0.455,0.0664 0.1176,0.0441 0.1617,0.0784 0.209,0.12304 a 2.6460995,2.6460995 0 0 0 0.019,0.0176 c 0.045,0.0413 0.057,0.0572 0.086,0.125 a 2.6460995,2.6460995 0 0 0 0.02,0.043 c 0.01,0.0188 0.025,0.0472 0.025,0.18359 0,0.12636 -0.015,0.16006 -0.031,0.19727 a 2.6460995,2.6460995 0 0 0 -0.014,0.0312 c -0.029,0.0673 -0.05,0.0947 -0.098,0.14062 -0.047,0.042 -0.096,0.0778 -0.2168,0.12305 -0.1,0.0374 -0.229,0.0684 -0.4453,0.0684 -0.2234,0 -0.3618,-0.0323 -0.4707,-0.0723 -0.1136,-0.0435 -0.1637,-0.0783 -0.209,-0.11914 -0.05,-0.0481 -0.078,-0.09 -0.1093,-0.15625 -0.017,-0.0412 -0.035,-0.0847 -0.035,-0.21289 0,-0.14201 0.018,-0.18165 0.029,-0.20703 0.032,-0.0699 0.056,-0.10034 0.1035,-0.14453 a 2.6460995,2.6460995 0 0 0 0.019,-0.0176 c 0.045,-0.0425 0.092,-0.0761 0.1973,-0.11719 0.1129,-0.0418 0.2487,-0.0723 0.4649,-0.0723 z m 1.5761,4.41797 -0.031,0.0137 c 0.01,-0.002 0.01,-0.007 0.016,-0.01 0.01,-0.002 0.011,-0.002 0.016,-0.004 z"
       id="text73" /><path
       style="-inkscape-font-specification:'Sansilk, Normal';fill:#f1e0c5;stroke-linecap:square"
       d="m 2110.8125,598.14258 c -1.1998,0 -2.5225,0.45886 -3.4004,1.40429 -0.8779,0.94544 -1.207,2.17258 -1.207,3.27149 0,1.24026 0.127,1.0829 -0.1016,1.69531 -3.6756,8.97284 -10.3046,20.53849 -16.8828,28.48438 l -0.01,0.01 -0.01,0.01 c -0.7984,0.98265 -2.7097,3.17206 -4.6895,5.00195 -0.9899,0.91495 -2.0071,1.74459 -2.8418,2.28125 -0.1978,0.1272 -0.1542,0.0727 -0.3261,0.1582 0,-1.01542 0.1318,-2.44335 0.4882,-4.09961 0.8127,-3.77646 2.2169,-7.81659 2.5293,-8.7539 l 0.012,-0.0371 0.012,-0.0391 c 0.076,-0.25308 0.2758,-0.85307 0.457,-1.48243 0.1812,-0.62935 0.3984,-1.14361 0.3984,-2.1875 0,-1.29258 -0.4988,-2.30152 -1.2363,-3.1289 -0.7374,-0.82739 -1.8545,-1.54492 -3.3027,-1.54492 -1.3187,0 -1.8957,0.44708 -2.5703,0.85742 -0.6747,0.41034 -1.3427,0.91308 -2.0703,1.50781 -1.4554,1.18946 -3.1249,2.74664 -4.9004,4.4707 -2.0574,1.99776 -3.9885,3.93326 -6.0371,5.98829 2.0949,-4.22323 4.3334,-8.34416 7.0429,-12.23047 0.1574,-0.21399 1.0766,-1.17378 1.9395,-2.13868 0.4341,-0.48545 0.8694,-0.99543 1.2636,-1.59375 0.3943,-0.59831 0.8731,-1.25465 0.8731,-2.53906 0,-1.32175 -0.6289,-2.38266 -1.3945,-3.08789 -0.7657,-0.70523 -1.729,-1.18164 -2.9434,-1.18164 -1.7611,0 -2.8721,0.84616 -3.9336,1.75 -1.0615,0.90384 -2.0717,2.04419 -3.1113,3.38281 -2.0793,2.67725 -4.2404,6.14861 -6.2481,9.78321 -1.237,2.23938 -2.1739,4.38787 -3.2109,6.58593 -0.2719,0.0183 -0.4551,0.0773 -0.6641,0.12891 0.06,-0.32628 0.1013,-0.61829 0.168,-0.95508 0.1391,-0.7019 0.3008,-1.29056 0.3008,-2.19726 0,-1.03734 -0.2731,-2.125 -1.0235,-3.06836 -0.7504,-0.94336 -2.0794,-1.60742 -3.3808,-1.60742 -0.5608,0 -0.8973,0.15599 -1.2774,0.28125 0,-0.003 0,-7.9e-4 0,-0.004 0,-2.39392 -2.1588,-4.81055 -4.7441,-4.81055 -1.3929,0 -2.7001,0.5796 -3.6328,1.66797 l -0.045,0.0527 -0.043,0.0566 c -0.8816,1.14607 -1.4849,2.50742 -2.2422,4.29101 -0.7573,1.7836 -1.5477,3.88703 -2.2754,6.01367 -0.196,0.57289 -0.3213,1.08295 -0.5058,1.65235 h -0.08 l -0.7207,1.35742 v 0.004 l -0.023,0.0449 c -1.2231,2.30507 -3.2844,3.47849 -4.0742,3.78515 0.021,-0.54817 0.1236,-1.40918 0.6914,-2.875 v -0.008 -0.01 c 0.3578,-0.94332 0.7298,-1.85174 1.0371,-2.69922 0.3074,-0.84749 0.6231,-1.48868 0.6231,-2.70313 0,-1.41445 -0.5443,-2.19061 -1.1719,-2.91992 -0.6275,-0.72931 -1.4427,-1.55273 -3.0976,-1.55273 -1.0409,0 -1.9716,0.4744 -2.5469,0.95507 -0.066,0.0552 -0.077,0.10307 -0.1367,0.15821 -0.8343,-0.48992 -1.774,-0.84375 -2.7285,-0.84375 -3.818,0 -6.8761,2.49998 -9.336,5.29492 -0.3905,0.44374 -0.6332,0.95257 -0.9922,1.41406 -0.2995,0.2775 -0.5764,0.57666 -0.7793,0.9043 l 0.1114,-0.16602 c -1.0727,1.47103 -2.3142,2.83035 -3.4141,3.78711 -0.1947,0.16939 -0.1867,0.10967 -0.375,0.24805 0.2062,-0.88609 0.5081,-1.98296 1.0254,-3.35938 v -0.002 c 1.5624,-4.09298 4.1983,-8.40896 6.6113,-11.89258 2.4133,-3.48406 4.4372,-5.90439 5.3516,-7.25195 0.2717,-0.33439 1.3359,-1.49149 1.3359,-3.24609 0,-1.11821 -0.3737,-2.09864 -1.0644,-2.93165 -0.6908,-0.833 -1.8495,-1.54101 -3.2051,-1.54101 -2.1768,0 -3.0028,1.11162 -3.877,1.90625 l -0.01,0.008 -0.01,0.008 c -5.8434,5.40512 -12.7583,15.10722 -14.9864,24.67969 -4e-4,0.002 0,0.004 0,0.006 -0.01,0.0318 -0.01,0.062 -0.016,0.0937 -0.9625,1.2417 -2.0037,2.44783 -2.955,3.27539 -0.1941,0.16878 -0.1854,0.11006 -0.3731,0.24805 0.2063,-0.88609 0.5062,-1.98298 1.0235,-3.35938 v -0.002 c 1.5624,-4.09298 4.2002,-8.40896 6.6132,-11.89258 2.3797,-3.43544 4.3454,-5.7921 5.2774,-7.15039 l 0.029,-0.0391 c 0.2268,-0.28985 1.3808,-1.50155 1.3808,-3.30859 0,-1.11821 -0.3756,-2.09864 -1.0664,-2.93165 -0.6907,-0.833 -1.8475,-1.54101 -3.2031,-1.54101 -2.1767,0 -3.0028,1.11162 -3.8769,1.90625 l -0.01,0.008 -0.01,0.008 c -4.7913,4.43191 -10.1568,11.77149 -13.2149,19.54102 -0.2991,-0.86546 -0.7756,-1.53574 -1.3632,-2.06641 l 0.5527,-0.97851 -1.1621,0.48437 c -0.1617,-0.11177 -0.3047,-0.28655 -0.4668,-0.3789 -1.1009,-0.62711 -2.2435,-0.93164 -3.4492,-0.93164 -4.0912,0 -7.5429,2.58187 -9.9551,5.71875 -0.5587,0.72658 -1.0599,1.50574 -1.5078,2.31054 -0.271,0.24663 -0.5046,0.47917 -0.6875,0.66211 -1.1905,1.17362 -2.5611,2.50825 -3.8438,3.61914 -0.5,0.43306 -0.7356,0.51726 -1.1894,0.85352 0.1402,-0.74811 0.2419,-1.43282 0.5703,-2.5 v -0.002 -0.004 c 1.2661,-4.14361 2.8816,-8.16335 4.3086,-11.25977 1.57,-0.0388 3.8155,0.27735 6.5567,0.27735 1.8667,0 3.9316,-1.35492 3.9316,-3.66016 0,-1.06991 -0.6424,-2.16643 -1.3008,-2.70898 -0.6583,-0.54255 -1.2769,-0.75922 -1.8535,-0.92383 -1.1531,-0.32922 -2.2611,-0.39665 -3.3398,-0.45508 -0.235,-0.0127 -0.3781,-0.0193 -0.6055,-0.0293 0.5728,-1.14849 1.2129,-2.32316 1.2129,-4.07031 0,-1.49593 -0.7209,-2.54571 -1.7168,-3.2207 0.1323,-0.58228 0.3027,-1.14834 0.3027,-1.78516 0,-1.82465 -0.8044,-3.51849 -1.9218,-4.64258 -1.1175,-1.12408 -2.4581,-1.78755 -3.795,-2.2539 -2.6737,-0.9327 -5.4641,-1.09571 -7.3496,-1.09571 -15.0905,0 -32.8845,7.2718 -44.7129,15.79102 -1.3991,1.00461 -3.4026,2.5463 -5.166,4.43359 -1.7641,1.88806 -3.5117,4.11991 -3.5117,7.11719 0,1.74826 0.5795,3.39579 1.5762,4.58008 0.9966,1.18428 2.2813,1.87964 3.5293,2.31055 2.4959,0.86182 5.0506,0.83007 6.8769,0.83007 5.0524,0 9.7884,-0.67578 14.3438,-0.67578 0.7553,0 2.9955,0.17191 4.9961,0.36719 -2.5791,0.61189 -7.1967,1.74152 -11.7246,3.54297 -2.4878,0.98976 -4.8774,2.14177 -6.8282,3.63086 -1.9508,1.48909 -3.7031,3.53113 -3.7031,6.2539 0,1.433 0.5942,2.79657 1.4219,3.73047 0.8276,0.93391 1.8185,1.51332 2.7949,1.92774 1.9529,0.82884 3.9285,1.04687 5.4648,1.04687 1.7264,0 3.4084,-0.24046 5.0508,-0.70898 8.2771,-2.31623 14.4026,-6.29691 19.4004,-13.39453 1.5952,-0.34576 3.189,-0.62615 4.7832,-0.89649 -0.074,2.06043 0.096,3.90303 0.8067,5.41016 1.1966,2.53619 4.1354,3.78792 6.5898,3.49023 3.0337,-0.36794 5.928,-2.10137 8.5781,-4.42578 0.2671,0.39366 0.5108,0.79736 0.8711,1.14844 1.0867,1.05875 2.7072,1.79883 4.4512,1.79883 3.1759,0 6.0556,-1.49772 8.7637,-3.14063 0.641,-0.38887 1.0221,-0.73501 1.6308,-1.14258 0.3201,0.8129 0.7549,1.57844 1.3574,2.26954 1.2458,1.42894 3.3294,2.2011 5.336,1.98828 2.0066,-0.21282 3.9847,-1.14803 6.1601,-2.69922 v 0 c 0.054,-0.0388 0.1077,-0.10484 0.1621,-0.14453 0.1848,0.27894 0.2846,0.59496 0.5117,0.85547 1.2458,1.42895 3.3313,2.2011 5.3379,1.98828 1.581,-0.16769 3.17,-0.90184 4.8262,-1.91407 0.9725,1.12044 2.4639,2.00782 4.1894,2.00782 3.0337,0 4.9192,-2.00353 6.4102,-3.61914 0.4347,1.05136 1.0024,2.00363 1.8457,2.66797 1.3568,1.06884 3.0101,1.37871 4.4668,1.3125 2.1302,-0.0968 3.9899,-0.90315 5.6758,-1.83594 0.042,0.11528 0.037,0.21005 0.088,0.32812 0.58,1.35335 2.3823,2.83789 4.3086,2.83789 0.7944,0 1.4823,-0.17246 2.1992,-0.55078 0.7168,-0.37832 1.5459,-1.03577 1.9355,-2.20508 l -0.047,0.125 c 0.7602,-1.9462 2.3761,-5.25444 3.9941,-7.89257 0.2204,-0.35937 0.3986,-0.54047 0.6172,-0.8711 0.039,0.0795 0.04,0.17779 0.082,0.25586 0.8172,1.52399 2.329,2.7898 4.1641,3.13867 -0.3241,1.12387 -0.5762,2.19848 -0.5762,3.25586 0,1.30437 0.2908,2.65113 1.1211,3.89649 0.8302,1.24535 2.4696,2.33593 4.2988,2.33593 3.0168,0 4.6868,-1.85182 5.793,-2.81054 l 0.023,-0.0215 0.023,-0.0215 c 3.389,-3.08489 6.6089,-6.34692 9.873,-9.56836 -0.2159,1.26572 -0.3613,2.55968 -0.3613,3.89062 0,2.21879 0.449,4.53912 1.7851,6.53125 1.3362,1.99214 3.7999,3.48829 6.6797,3.48829 4.8559,0 8.9574,-3.3988 12.6504,-7.01172 3.693,-3.61293 6.8643,-7.74894 8.6953,-10.23633 v -0.006 l 0.01,-0.006 c 2.4548,-3.3753 5.9154,-8.25503 8.8027,-13.47852 2.8874,-5.22348 5.3028,-10.73405 5.3028,-15.95312 0,-1.0465 -0.098,-2.24766 -0.8203,-3.49805 -0.7221,-1.25038 -2.4296,-2.32812 -4.127,-2.32812 z m 42.2031,7.98437 c -1.5931,0 -2.3412,0.66182 -3.0078,1.14453 -0.6666,0.48272 -1.1935,0.98067 -1.457,1.21485 l -0.014,0.0117 -0.014,0.0137 c -4.8923,4.47302 -9.3271,11.37414 -12.4882,18.20898 -0.1324,-0.71624 -0.3649,-1.42846 -0.877,-2.07226 -0.7504,-0.94335 -2.0814,-1.60742 -3.3828,-1.60742 -0.5608,0 -0.8972,0.15599 -1.2774,0.28125 0,-0.003 0,-7.9e-4 0,-0.004 0,-2.39378 -2.1588,-4.81055 -4.7441,-4.81055 -1.3929,0 -2.7001,0.5796 -3.6328,1.66797 l -0.045,0.0527 -0.043,0.0566 c -0.8816,1.14607 -1.4849,2.50742 -2.2422,4.29101 -0.56,1.31891 -1.1242,2.89836 -1.6816,4.44727 -0.4093,0.0113 -1.1889,-0.0274 -1.3477,-0.0274 -0.3092,0 -1.3243,-0.0359 -1.9609,-0.0703 -0.6834,-1.22766 -1.7488,-2.20902 -2.9961,-2.55664 -2.0414,-0.56891 -4.2177,0.0625 -5.8399,1.57227 -6e-4,5.9e-4 0,0.001 0,0.002 -2.3069,2.13686 -4.1389,5.24483 -5.1289,8.50195 -0.4952,1.62902 -0.7756,3.29972 -0.6152,4.98242 0.1595,1.67338 0.8536,3.4629 2.3281,4.68555 2.5678,2.19231 6.239,2.00357 9.0664,0.21289 l 0.055,-0.0352 0.055,-0.0371 c 1.2899,-0.90882 2.2753,-2.04896 3.1347,-3.27149 0.071,0.56697 0.2107,1.19286 0.4981,1.86328 0.58,1.35335 2.3823,2.83789 4.3086,2.83789 0.7944,0 1.4824,-0.17246 2.1992,-0.55078 0.7168,-0.37832 1.5458,-1.03609 1.9355,-2.20508 l -0.047,0.125 c 0.7602,-1.94622 2.3781,-5.25444 3.996,-7.89257 0.2199,-0.35855 0.3972,-0.53919 0.6153,-0.86914 0.039,0.0789 0.04,0.17637 0.082,0.2539 0.7015,1.30824 1.9049,2.46041 3.3906,2.98438 -0.1525,0.71155 -0.3427,1.29578 -0.3261,2.39453 0.013,0.84293 0.1044,1.85196 0.8164,2.90234 0.712,1.05038 2.2113,1.77539 3.5039,1.77539 1.6437,0 2.7107,-0.55814 3.6211,-1.92383 l 0.092,-0.13671 0.074,-0.14649 c 0.2935,-0.58671 0.5488,-0.9784 0.5488,-2.13086 l -0.012,0.25586 c 0.082,-0.84948 0.196,-1.57505 0.3223,-2.26953 0.7559,0.48997 1.2444,0.86183 2.1015,1.35547 0.8729,0.50267 1.714,0.98109 2.586,1.39648 -1.3819,1.10184 -2.7016,2.25192 -3.7891,3.52149 -1.5783,1.84259 -2.8535,3.9624 -2.8535,6.49804 0,1.99066 0.9354,3.83478 2.3144,4.97461 1.3791,1.13984 3.1084,1.66407 4.8653,1.66407 4.6342,0 9.383,-2.98526 13.5976,-6.69922 4.2147,-3.71397 7.9258,-8.15955 7.9258,-13.20117 0,-0.10811 -0.04,-0.23913 -0.043,-0.34961 0.7149,-0.20045 1.123,-0.34369 2.1036,-0.55664 0.854,-0.18549 1.7167,-0.37699 2.5468,-0.64258 0.8302,-0.26559 1.674,-0.40313 2.6368,-1.57227 l 0.1894,-0.22851 0.1328,-0.26563 c 0.1158,-0.23039 0.1759,-0.37932 0.2559,-0.60351 0.08,-0.2242 0.2285,-0.24584 0.2285,-1.19336 0,-0.86739 -0.3462,-1.98582 -1.1524,-2.71875 -0.8061,-0.73294 -1.7969,-0.94141 -2.5761,-0.94141 -0.5697,0 -0.6565,0.0518 -0.9492,0.10156 -0.2928,0.0497 -0.6319,0.11495 -1.0157,0.19336 -0.7674,0.15683 -1.7091,0.36735 -2.6738,0.59766 -0.7856,0.18754 -1.5495,0.3884 -2.2773,0.58594 0.8479,-0.58831 1.7606,-1.17398 2.9941,-2.2129 v -0.004 c 0.7603,-0.63535 1.625,-1.89327 1.625,-3.31445 0,-1.42326 -0.78,-2.66961 -1.6738,-3.36915 -0.8939,-0.69953 -1.8984,-1.0371 -3.002,-1.0371 -2.8904,0 -5.0878,1.56367 -7.2343,3.38671 -0.485,0.41189 -0.8714,0.9197 -1.3301,1.36524 -0.6679,-1.45194 -2.134,-2.38281 -3.8106,-2.38281 -2.2818,0 -3.2985,1.19981 -3.7304,1.45898 v 0.004 l -0.01,0.002 c -0.2566,0.1555 -0.6204,0.25634 -0.9082,0.40039 2.4707,-4.00678 5.3713,-7.78548 8.3887,-11.83984 l 0.01,-0.01 c 0.7208,-0.96067 1.6055,-2.08599 1.6055,-3.94726 0,-2.66113 -1.954,-4.53907 -4.5391,-4.53907 z m -189.2539,1.23047 c 0.6537,0 1.4169,0.0287 2.0567,0.0918 -0.032,0.0697 -0.016,0.0431 -0.055,0.12305 -1.1992,2.15051 -5.1152,4.92225 -8.0996,6.71289 -0.5072,0.29387 -1.2993,0.81305 -2.0547,1.34179 -1.6962,0.0515 -3.3399,-0.024 -5.0567,0.11524 l -0.059,0.006 -0.057,0.006 c -0.8644,0.10804 -1.7412,0.34114 -2.627,0.93164 -0.8857,0.5905 -1.8554,1.83676 -1.8554,3.31836 0,1.54462 1.162,2.87308 2.1347,3.3789 0.9728,0.50583 1.8722,0.61914 2.7442,0.61914 1.5531,0 3.0242,-0.1242 4.5137,-0.22265 0.4929,0.25189 1.0506,0.42578 1.7168,0.42578 1.1774,0 1.5711,-0.30253 1.9121,-0.58203 0.5091,-0.0328 1.01,-0.023 1.5156,-0.0469 -0.8926,2.05985 -1.6242,4.25725 -2.4199,6.56836 -2.0896,0.0767 -3.9722,0.3528 -5.7266,0.625 -1.0905,-2.1588 -3.0416,-3.67792 -5.1992,-4.64453 -2.5427,-1.13912 -5.4662,-1.73086 -8.4473,-2.0918 -5.9622,-0.72188 -12.2621,-0.45117 -15.1953,-0.45117 -0.3237,0 -1.0553,-0.0465 -1.6641,-0.0625 0.5164,-0.41174 1.1054,-0.89921 1.375,-1.0918 l 0.022,-0.0156 0.02,-0.0137 c 11.1841,-8.30634 26.8039,-15.04102 40.5058,-15.04102 z m 142.4219,9.2207 c -0.1412,0.2646 -0.2136,0.51951 -0.3594,0.78321 -0.1733,0.31352 -0.3784,0.59427 -0.5566,0.90625 0.309,-0.56469 0.6183,-1.1263 0.916,-1.68946 z m -191.1191,6.76368 c -0.1536,0.39202 -0.295,0.80781 -0.295,1.39843 0,0.9012 0.4399,1.80973 0.9395,2.3418 0.483,0.51441 0.9715,0.76985 1.4219,0.96875 -0.661,-0.0822 -1.4705,-0.0378 -1.9551,-0.20508 -0.6381,-0.22031 -1.0153,-0.48461 -1.209,-0.71484 -0.1938,-0.23023 -0.334,-0.45249 -0.334,-1.17383 0,-0.41112 0.5714,-1.47914 1.4317,-2.61523 z m 74.9082,4.58593 0.033,0.12305 c -0.01,-0.0258 -0.027,-0.0389 -0.033,-0.0645 -0.01,-0.0213 0.01,-0.0372 0,-0.0586 z m 52.1718,2.81055 1.666,1.49414 c -0.3455,0.48002 -0.6985,0.92343 -1.0351,1.44922 -0.1892,-0.70551 -0.5254,-1.34498 -1.0488,-1.83984 0.1371,-0.39426 0.2778,-0.71551 0.4179,-1.10352 z m -52.2773,0.30274 c 0,10e-4 0,0.002 -0.01,0.004 0,7.4e-4 0,-7.3e-4 0,0 z m 120.3906,0.48046 v 0.69532 c -0.057,0.0146 -0.1278,0.005 -0.1836,0.0215 -0.6184,0.18251 -1.0195,0.5473 -1.4961,0.85547 0.3333,-0.42558 0.6638,-0.97452 0.9824,-1.26953 v -0.004 -0.004 c 0.3435,-0.32067 0.5829,-0.29586 0.6894,-0.29493 z m -157.5273,0.0137 0.164,0.41406 c -0.034,-0.11027 -0.1025,-0.19544 -0.1406,-0.30274 -0.03,-0.0669 0.013,-0.0387 -0.023,-0.11132 z m 200.3808,1.43554 c 0.087,1.66404 0.9285,2.7743 1.8164,3.62696 -0.761,0.43003 -1.339,0.78493 -2.2168,1.30468 -0.4817,-0.94093 -1.2646,-1.48897 -1.9296,-1.97265 l -0.01,-0.008 -0.01,-0.006 c -0.6092,-0.4351 -1.3223,-0.7877 -2.0196,-1.17969 0.4643,-0.14434 0.631,-0.15517 1.0918,-0.31446 1.1517,-0.39806 2.241,-0.88963 3.2754,-1.45117 z m -175.0039,0.0703 0.6992,0.97656 c -0.036,0.0228 -0.1123,0.0841 -0.1464,0.10547 -0.084,0.0367 -0.1993,0.014 -0.2852,0.043 -0.03,-0.34366 -0.1028,-0.70889 -0.2676,-1.125 z m 28.7578,3.05273 -0.023,0.0469 c 0,-0.004 -10e-5,-0.01 0,-0.0137 0.01,-0.0129 0.015,-0.0203 0.021,-0.0332 z m 51.4727,1.14062 -0.2227,0.19336 c 0.01,-0.0174 0,-0.0178 0.012,-0.0352 0.063,-0.0714 0.1498,-0.083 0.2109,-0.15821 z m 80.9707,0 -0.6914,0.59961 c 0.1346,-0.0808 0.1312,-0.18319 0.2461,-0.26757 0.1365,-0.14182 0.3165,-0.17355 0.4453,-0.33204 z m -17.5352,0.0566 c -0.535,1 -0.9867,1.8867 -1.4296,2.82812 0.1076,-0.63503 0.1373,-1.02019 0.4082,-2.04687 0.057,-0.21461 0.1623,-0.50529 0.2246,-0.73047 0.2196,0.003 0.3633,-0.01 0.5879,-0.01 0.068,0 0.1401,-0.0373 0.2089,-0.041 z m -170.0449,1.8789 -0.059,0.0801 c 0.019,-0.0256 -0.024,0.0205 -0.01,0.002 0.021,-0.0306 0.047,-0.0513 0.068,-0.082 z m 19.3555,1.31641 c 0,0.006 0.01,0.0116 0.01,0.0176 4e-4,10e-4 -4e-4,0.003 0,0.004 z m 163.8008,1.53711 v 0.043 c 0,0.0112 0,-0.0316 0,-0.0391 z m -78.4102,0.53515 c 0.2092,0.31426 0.3663,0.62816 0.7168,0.85938 -0.1793,0.10137 -0.636,0.39224 -0.623,0.40625 -0.085,-0.15973 -0.2149,-0.52825 -0.2149,-0.88477 0,-0.0136 0.1159,-0.34743 0.1211,-0.38086 z m 52.3574,1.67969 -0.098,0.0391 c 0.021,-0.008 0.034,-0.0234 0.055,-0.0312 0.012,-0.005 0.031,-0.003 0.043,-0.008 z"
       id="text74"
       transform="skewY(-7.0211793)" /><path
       d="m 1950.4336,633.19735 c 0,-0.13532 0,-0.3383 -0.068,-0.47362 -2.3004,-7.51026 -20.7039,-6.49536 -26.861,-6.49536 -0.9472,0 -6.0894,0.13532 -6.0894,-1.48852 0,-1.3532 3.3154,-3.78896 4.2626,-4.46556 11.5699,-8.59282 27.5376,-15.5618 42.0845,-15.5618 1.3532,0 5.0745,-0.20298 5.0745,1.89448 0,0.81192 -0.4059,1.55618 -0.7442,2.23278 -1.7592,3.18002 -6.0218,5.88642 -9.0665,7.71324 -0.8119,0.47362 -1.7591,0.94724 -2.4357,1.55618 -0.6766,0.60894 -0.8796,1.15022 -0.8796,2.09746 0,0.6766 0.6766,1.3532 1.3532,1.3532 0.6766,0 2.5711,-2.0298 3.383,-2.57108 3.6536,-2.43576 11.7052,-7.51026 11.7052,-12.38178 0,-4.60088 -7.0367,-5.34514 -10.4197,-5.34514 -14.2086,0 -31.8002,7.1043 -43.1671,15.29116 -2.6387,1.89448 -7.5779,5.88642 -7.5779,9.40474 0,4.93918 5.7511,5.0745 9.3371,5.0745 4.8039,0 9.5401,-0.6766 14.3439,-0.6766 2.2328,0 12.5171,0.27064 12.5171,3.383 0,0.3383 -0.203,0.6766 -0.5413,0.81192 -1.5561,0.60894 -3.7889,0.81192 -5.4128,1.15022 -4.6008,1.08256 -21.1775,5.00684 -21.1775,11.09624 0,3.18002 4.6008,4.0596 7.0366,4.0596 1.4885,0 2.9094,-0.20298 4.3302,-0.60894 7.9839,-2.23278 13.3967,-5.7511 18.1329,-12.58476 0.406,-0.54128 0.5413,-0.6766 1.2179,-0.81192 2.1651,-0.47362 4.3302,-0.87958 6.4954,-1.21788 0.8795,-0.13532 1.8268,-0.20298 2.6387,-0.40596 0.5413,-0.13532 1.0826,-0.54128 1.0826,-1.15022 0,-1.08256 -1.3532,-1.3532 -2.1652,-1.3532 -2.7064,0 -5.3451,0.6766 -8.0515,0.94724 z m -23.5457,14.74988 c -0.7442,0 -3.5183,-0.0677 -3.5183,-1.28554 0,-3.383 17.9299,-8.52516 21.2452,-8.52516 h 1.0149 c -3.7889,5.14216 -12.3817,9.8107 -18.7418,9.8107 z m 37.6129,-27.13166 c -1.5561,4.46556 -4.1272,8.93112 -5.0745,13.59966 -3.2476,16.17074 8.7282,10.75794 15.3589,2.09746 0.6089,-0.74426 1.0825,-1.28554 1.0825,-1.75916 0,-0.54128 -0.203,-1.3532 -0.9472,-1.3532 -0.406,0 -0.7443,0.40596 -1.2856,0.94724 -4.8038,4.7362 -12.923,12.5171 -8.8634,-0.6766 1.4885,-4.87152 3.4506,-9.74304 5.0745,-13.05838 2.4357,-0.60894 5.4804,0.20298 8.3222,0.20298 0.7442,0 1.2855,-0.47362 1.2855,-1.0149 0,-2.16512 -7.8486,-1.0149 -8.3898,-2.0298 0.6089,-1.6915 2.5034,-4.46556 2.5034,-6.15706 0,-0.74426 -0.8119,-1.42086 -1.7592,-1.42086 -0.6089,0 -1.3532,0.27064 -1.6915,0.6766 -1.5562,2.30044 -2.6387,4.87152 -4.3302,7.17196 -5.0069,0 -10.0137,-0.0677 -15.0205,0.3383 -1.0826,0.13532 -2.1652,0.6766 -2.1652,1.62384 0,0.94724 1.1503,1.3532 2.2328,1.3532 4.4656,0 8.9311,-0.74426 13.6673,-0.54128 z m 12.3082,16.17074 c 1.1502,0.13532 2.1651,-0.0677 3.0447,-0.47362 1.9621,-1.21788 8.3221,-5.27748 7.5779,-7.84856 -0.3383,-1.42086 -2.1651,-2.23278 -3.5183,-2.23278 -5.6835,0 -11.8405,8.05154 -10.2844,13.32902 0.5413,1.89448 1.8269,3.51832 3.992,3.51832 4.3979,0 10.6226,-4.87152 14.0733,-7.4426 1.0149,-0.60894 0.9472,-2.97704 -0.9473,-2.30044 -1.1502,0.40596 -16.3737,12.24646 -13.9379,3.45066 z m 2.0298,-3.92428 c 1.0825,-1.21788 2.4357,-2.3681 4.0596,-3.0447 -0.8796,1.55618 -2.3005,2.30044 -4.0596,3.0447 z m 25.637,1.89448 c 0.6766,-1.3532 -0.8119,-2.43576 -1.6915,-1.0149 -4.7362,6.49536 -12.1111,10.75794 -7.3749,-1.82682 3.383,-8.86346 10.9609,-17.79458 12.2464,-19.68906 0.406,-0.54128 0.8796,-0.94724 0.8796,-1.75916 0,-0.87958 -0.6766,-1.82682 -1.6238,-1.82682 -0.609,0 -1.3532,0.54128 -2.0975,1.21788 -5.4128,5.00684 -12.1788,14.61456 -14.2086,23.3427 -1.8268,7.64558 0.9473,13.1937 8.7282,7.64558 1.8944,-1.3532 3.7889,-3.24768 5.1421,-6.0894 z m 12.1728,0 c 0.6766,-1.3532 -0.8119,-2.43576 -1.6915,-1.0149 -4.7362,6.49536 -12.1111,10.75794 -7.3749,-1.82682 3.383,-8.86346 10.9609,-17.79458 12.2464,-19.68906 0.406,-0.54128 0.8796,-0.94724 0.8796,-1.75916 0,-0.87958 -0.6766,-1.82682 -1.6238,-1.82682 -0.609,0 -1.3532,0.54128 -2.0975,1.21788 -5.4128,5.00684 -12.1788,14.61456 -14.2086,23.3427 -1.8268,7.64558 0.9472,13.1937 8.7281,7.64558 1.8945,-1.3532 3.789,-3.24768 5.1422,-6.0894 z m 20.9009,-0.0677 c -3.5183,6.63068 -11.9081,8.32218 -8.1868,-1.28554 0.7442,-1.96214 1.4885,-3.65364 1.4885,-4.46556 0,-0.74426 -0.8796,-1.82682 -1.6239,-1.82682 -1.2855,0 -1.8944,2.09746 -2.7064,2.90938 -0.4059,-1.55618 -0.8795,-2.63874 -2.7064,-2.63874 -4.8038,0 -11.0962,7.71324 -11.0962,12.04348 0,1.82682 1.2179,3.7213 3.18,3.7213 3.383,0 5.9541,-5.4128 8.6605,-6.766 -0.3383,1.28554 -0.406,2.43576 -0.2706,3.383 0.8795,5.81876 6.9013,3.7213 10.3519,1.3532 2.5711,-1.82682 4.8716,-4.26258 5.6158,-6.4277 0,-0.0677 0.068,-0.20298 0.068,-0.27064 0,-0.6766 -0.5413,-1.21788 -1.2179,-1.21788 -0.7443,0 -1.2179,0.87958 -1.5562,1.48852 z m -12.0435,-3.11236 c -0.5412,0.94724 -3.5859,4.19492 -5.8187,6.0894 -2.1651,1.75916 -3.5183,1.89448 -1.4209,-1.21788 1.6239,-2.30044 4.5332,-5.0745 6.0218,-5.0745 0.4059,0 0.8119,0.0677 1.2178,0.20298 z m 18.3299,-0.3383 c 0.4059,-0.74426 3.0447,-7.51026 3.0447,-8.1192 0,-1.21788 -0.812,-2.16512 -2.0975,-2.16512 -0.6089,0 -1.2179,0.27064 -1.6238,0.74426 -2.0298,2.63874 -6.6984,16.30606 -6.6984,19.55374 0,1.48852 0.203,3.58598 2.2328,3.58598 0.6089,0 1.4209,-0.3383 1.6238,-0.94724 1.6915,-4.33024 6.5631,-13.39668 8.8635,-13.32902 -0.5413,3.51832 1.0826,6.4277 3.383,6.4277 1.2855,0 2.8417,-0.54128 3.7213,-1.62384 0.3383,-0.20298 0.4736,-0.6766 0.4736,-1.0149 0,-0.54128 -0.5413,-1.21788 -1.0825,-1.21788 -0.7443,0 -1.5562,0.94724 -2.7064,0.94724 -2.2328,0 -0.406,-5.00684 -0.406,-6.56302 0,-1.08256 -0.6089,-2.0298 -1.7592,-2.0298 -1.6238,0 -5.4128,4.66854 -6.9689,5.7511 z m 33.6209,-3.31534 c -1.3532,3.99194 -2.977,8.25452 -2.977,12.5171 0,3.65364 1.6238,7.37494 5.8187,7.37494 6.766,0 15.6295,-11.29922 19.2155,-16.17074 4.8715,-6.69834 13.5996,-19.21544 13.5996,-27.87592 0,-1.55618 -0.4736,-3.18002 -2.3004,-3.18002 -1.2856,0 -1.9622,0.81192 -1.9622,2.0298 0,1.0149 0.1354,1.55618 -0.2706,2.63874 -3.789,9.26942 -10.4873,20.9746 -17.321,29.22912 -1.7591,2.16512 -7.7809,8.93112 -10.9609,8.93112 -4.3302,0 1.0149,-15.2235 1.5562,-16.84734 0.203,-0.6766 0.7443,-2.23278 0.7443,-2.90938 0,-0.94724 -0.8796,-2.0298 -1.8945,-2.0298 -2.3005,0 -12.1788,10.75794 -18.1329,16.44138 -5.6158,5.4128 -4.4656,2.63874 -2.6387,-1.62384 2.8417,-6.4277 6.0217,-12.58476 10.0813,-18.40352 0.8796,-1.21788 3.586,-3.51832 3.586,-4.7362 0,-0.87958 -0.8796,-1.62384 -1.6915,-1.62384 -5.0069,0 -18.2006,25.77846 -18.2006,31.05594 0,1.6915 0.8796,3.58598 2.7741,3.58598 1.4209,0 3.0447,-1.28554 4.0596,-2.16512 5.2775,-4.80386 10.4196,-9.87836 15.4265,-14.95286 0.4736,-0.47362 0.9472,-0.87958 1.4885,-1.28554 z m 35.4478,3.383 c 0,-2.84172 -3.1124,-3.51832 -5.1422,-1.62384 -3.6536,3.383 -6.9013,11.43454 -3.5183,14.2086 1.4885,1.28554 3.9243,1.28554 5.9541,0 2.977,-2.09746 4.4655,-5.34514 5.0068,-9.26942 2.0975,-0.3383 4.2626,-0.13532 6.3601,-0.13532 0.8119,0 1.2855,-0.54128 1.2855,-1.3532 0,-2.09746 -4.6685,-1.6915 -6.0894,-1.6915 -0.8796,0 -1.8268,-0.13532 -3.8566,-0.13532 z m -0.3383,3.383 c -0.4736,2.7064 -1.7592,5.81876 -4.7362,6.90132 -1.4885,0.60894 -2.4358,-0.13532 -0.8119,-3.18002 0.8795,-1.6915 3.18,-4.80386 5.5481,-3.7213 z m 12.2404,-3.45066 c 0.4059,-0.74426 3.0447,-7.51026 3.0447,-8.1192 0,-1.21788 -0.8119,-2.16512 -2.0975,-2.16512 -0.6089,0 -1.2179,0.27064 -1.6238,0.74426 -2.0298,2.63874 -6.6984,16.30606 -6.6984,19.55374 0,1.48852 0.203,3.58598 2.2328,3.58598 0.609,0 1.4209,-0.3383 1.6239,-0.94724 1.6915,-4.33024 6.563,-13.39668 8.8634,-13.32902 -0.5413,3.51832 1.0826,6.4277 3.383,6.4277 1.2856,0 2.8417,-0.54128 3.7213,-1.62384 0.3383,-0.20298 0.4736,-0.6766 0.4736,-1.0149 0,-0.54128 -0.5412,-1.21788 -1.0825,-1.21788 -0.7443,0 -1.5562,0.94724 -2.7064,0.94724 -2.2328,0 -0.406,-5.00684 -0.406,-6.56302 0,-1.08256 -0.6089,-2.0298 -1.7591,-2.0298 -1.6239,0 -5.4128,4.66854 -6.969,5.7511 z m 17.3149,-0.54128 c 3.0447,-6.63068 7.3749,-12.04348 11.7051,-17.86224 0.609,-0.81192 1.0826,-1.62384 1.0826,-2.3681 0,-1.0149 -0.9472,-1.89448 -1.8945,-1.89448 -0.8796,0 -2.0974,1.15022 -2.7064,1.6915 -7.1043,6.49536 -14.2086,19.89204 -15.6971,28.28188 -0.2706,1.42086 -1.3532,5.20982 1.2179,5.20982 0.5413,0 1.1502,-0.3383 1.4208,-0.74426 0.1354,-0.27064 0.2707,-0.6766 0.2707,-0.94724 0.203,-2.09746 0.4059,-4.33024 1.6238,-6.02174 2.0298,1.42086 7.375,5.0745 9.8107,5.0745 0.8796,0 1.5562,-0.6766 1.5562,-1.55618 0,-0.54128 -0.5413,-1.15022 -1.2855,-1.6915 -1.8945,-1.3532 -6.5631,-3.383 -6.5631,-4.33024 2.0298,-0.60894 11.0963,-2.57108 11.0963,-5.00684 0,-0.81192 -0.7443,-1.48852 -1.5562,-1.48852 -0.8119,0 -1.6915,0.6766 -2.3681,1.08256 -2.2328,1.3532 -5.1422,2.23278 -7.7132,2.57108 z m 22.1863,6.63068 c 1.8945,-1.08256 7.172,-1.42086 8.1192,-2.57108 0.068,-0.13532 0.203,-0.47362 0.203,-0.60894 0,-0.6766 -0.4059,-1.0149 -1.0825,-1.0149 -0.6766,0 -7.2397,1.48852 -8.4575,2.09746 -0.609,-0.60894 -2.7064,-2.30044 -2.9771,-2.84172 2.2328,-2.43576 3.6537,-2.84172 5.8188,-4.66854 0.4059,-0.3383 0.6766,-0.74426 0.6766,-1.28554 0,-1.08256 -1.0826,-1.75916 -2.0298,-1.75916 -2.9094,0 -8.8635,4.7362 -8.8635,7.84856 0,2.57108 3.586,3.24768 3.6537,4.3979 -4.4656,2.57108 -18.2006,9.60772 -18.2006,15.9001 0,2.50342 2.0975,3.99194 4.5332,3.99194 6.4277,0 18.8772,-10.35198 18.8772,-17.2533 0,-0.74426 -0.068,-1.48852 -0.2707,-2.23278 z m -3.383,1.82682 c -0.8795,4.12726 -9.2017,10.4873 -12.923,12.38178 -0.406,0.20298 -2.4358,1.08256 -2.7741,1.08256 h -0.4736 c -0.068,-0.13532 -0.203,-0.3383 -0.203,-0.47362 0,-0.20298 0.1353,-0.40596 0.203,-0.60894 2.5034,-4.7362 11.3669,-10.62262 16.1707,-12.38178 z"
       id="text75"
       style="font-size:67.66px;line-height:1.3;font-family:Sansilk;-inkscape-font-specification:'Sansilk, Normal';letter-spacing:0.264583px;fill:#111427;stroke-width:3.96875;stroke-linecap:square"
       transform="skewY(-7.0211793)"
       aria-label="StellarWorks" /><g
       id="g82"
       transform="matrix(0.50899972,0,0,0.50899972,1320.8776,243.92601)"><path
         id="path77"
         style="fill:#111427;fill-opacity:1;stroke-width:2.91817;stroke-linecap:round"
         d="m 1450.8534,303.40304 a 18.567308,18.567308 0 0 1 -18.5648,18.56731 18.567308,18.567308 0 0 1 0,-2.2e-4 v 6e-4 a 18.567308,18.567308 0 0 1 18.5673,18.55682 v 0.01 h 2e-4 a 18.567308,18.567308 0 0 1 18.5598,-18.56731 18.567308,18.567308 0 0 1 0.01,4.5e-4 v -6.1e-4 a 18.567308,18.567308 0 0 1 -18.5673,-18.5623 18.567308,18.567308 0 0 1 2e-4,-0.005 z" /><path
         id="path81"
         style="fill:#111427;fill-opacity:1;stroke-width:2.91817;stroke-linecap:round"
         d="m 1381.8764,303.40304 a 18.567308,18.567308 0 0 1 -18.5648,18.56731 18.567308,18.567308 0 0 1 0,-2.2e-4 v 6e-4 a 18.567308,18.567308 0 0 1 18.5674,18.55683 v 0.01 h 2e-4 a 18.567308,18.567308 0 0 1 18.5598,-18.56731 18.567308,18.567308 0 0 1 0.01,4.5e-4 v -6e-4 a 18.567308,18.567308 0 0 1 -18.5673,-18.5623 18.567308,18.567308 0 0 1 2e-4,-0.005 z" /><path
         id="path82"
         style="fill:#111427;fill-opacity:1;stroke-width:2.91817;stroke-linecap:round"
         d="m 1416.365,303.40304 a 18.567308,18.567308 0 0 1 -18.5648,18.56731 18.567308,18.567308 0 0 1 0,-2.2e-4 v 6e-4 a 18.567308,18.567308 0 0 1 18.5673,18.55682 v 0.01 h 2e-4 a 18.567308,18.567308 0 0 1 18.5598,-18.56731 18.567308,18.567308 0 0 1 0.01,4.5e-4 v -6.1e-4 a 18.567308,18.567308 0 0 1 -18.5673,-18.5623 18.567308,18.567308 0 0 1 2e-4,-0.005 z" /></g><path
       d="m 1989.8485,428.30204 q -0.7708,0 -1.4891,-0.17518 -0.7182,-0.17518 -1.1824,-0.45547 l 0.6657,-1.50655 q 0.4379,0.25401 0.9722,0.41168 0.5431,0.1489 1.0511,0.1489 0.2978,0 0.4642,-0.035 0.1752,-0.0438 0.254,-0.11386 0.079,-0.0788 0.079,-0.18394 0,-0.16642 -0.184,-0.26277 -0.1839,-0.0964 -0.4905,-0.15766 -0.2978,-0.0701 -0.6569,-0.14015 -0.3591,-0.0788 -0.727,-0.20146 -0.3591,-0.12262 -0.6657,-0.32408 -0.2978,-0.20146 -0.4817,-0.52554 -0.184,-0.33284 -0.184,-0.82334 0,-0.56934 0.3154,-1.03357 0.324,-0.47298 0.9547,-0.75327 0.6394,-0.28029 1.5854,-0.28029 0.6218,0 1.2262,0.13139 0.6044,0.13138 1.0861,0.40291 l -0.6219,1.49779 q -0.4554,-0.22773 -0.8846,-0.3416 -0.4204,-0.11387 -0.8234,-0.11387 -0.2978,0 -0.4729,0.0526 -0.1752,0.0525 -0.2541,0.14014 -0.07,0.0876 -0.07,0.1927 0,0.15766 0.1839,0.25401 0.184,0.0876 0.4818,0.1489 0.3065,0.0613 0.6656,0.13139 0.3679,0.0701 0.727,0.19269 0.3592,0.12263 0.657,0.32409 0.3065,0.20145 0.4905,0.52554 0.1839,0.32408 0.1839,0.80583 0,0.56057 -0.3241,1.03356 -0.3153,0.46422 -0.9459,0.75327 -0.6307,0.28029 -1.5854,0.28029 z m 14.6293,0 q -0.7532,0 -1.3926,-0.23649 -0.6307,-0.2365 -1.0949,-0.66569 -0.4642,-0.43795 -0.727,-1.0248 -0.254,-0.58685 -0.254,-1.27881 0,-0.70072 0.254,-1.27882 0.2628,-0.58685 0.727,-1.01604 0.4642,-0.43795 1.0949,-0.67445 0.6394,-0.23649 1.3839,-0.23649 0.7533,0 1.3839,0.23649 0.6307,0.2365 1.0949,0.67445 0.4642,0.42919 0.7182,1.01604 0.2628,0.5781 0.2628,1.27882 0,0.69196 -0.2628,1.27881 -0.254,0.58685 -0.7182,1.0248 -0.4642,0.42919 -1.0949,0.66569 -0.6306,0.23649 -1.3752,0.23649 z m -0.01,-1.67297 q 0.289,0 0.5343,-0.10511 0.254,-0.10511 0.4379,-0.2978 0.1927,-0.20146 0.2978,-0.48175 0.1051,-0.28905 0.1051,-0.64816 0,-0.35912 -0.1051,-0.63941 -0.1051,-0.28905 -0.2978,-0.48175 -0.1839,-0.20145 -0.4379,-0.30656 -0.2453,-0.10511 -0.5343,-0.10511 -0.2891,0 -0.5431,0.10511 -0.2452,0.10511 -0.4379,0.30656 -0.184,0.1927 -0.2891,0.48175 -0.1051,0.28029 -0.1051,0.63941 0,0.35911 0.1051,0.64816 0.1051,0.28029 0.2891,0.48175 0.1927,0.19269 0.4379,0.2978 0.254,0.10511 0.5431,0.10511 z m 14.0775,-1.98829 h 2.6978 v 1.5591 h -2.6978 z m 0.1402,3.52112 h -2.0671 v -6.1313 h 4.9838 v 1.5591 h -2.9167 z m 12.8863,0 v -4.52841 h -1.7956 v -1.60289 h 5.6583 v 1.60289 h -1.7956 v 4.52841 z m 13.7097,0 -1.962,-6.1313 h 2.1284 l 1.5854,5.17656 h -1.0686 l 1.6817,-5.17656 h 1.9007 l 1.5679,5.17656 h -1.0248 l 1.6554,-5.17656 h 1.962 l -1.962,6.1313 h -2.216 l -1.2788,-4.23936 h 0.5956 l -1.3489,4.23936 z m 15.9344,0 2.6803,-6.1313 h 2.0321 l 2.6802,6.1313 h -2.1372 l -1.9795,-5.1503 h 0.8058 l -1.9795,5.1503 z m 1.5942,-1.0686 0.5255,-1.48903 h 2.8204 l 0.5255,1.48903 z m 14.0688,1.0686 v -6.1313 h 2.9517 q 0.8584,0 1.4803,0.28028 0.6307,0.28029 0.9723,0.80583 0.3416,0.51678 0.3416,1.22626 0,0.70948 -0.3416,1.22626 -0.3416,0.50802 -0.9723,0.77955 -0.6219,0.27153 -1.4803,0.27153 h -1.8043 l 0.9197,-0.84962 v 2.39121 z m 3.67,0 -1.5066,-2.23355 h 2.1898 l 1.524,2.23355 z m -1.6029,-2.16348 -0.9197,-0.93721 h 1.673 q 0.4291,0 0.6306,-0.1927 0.2102,-0.1927 0.2102,-0.52554 0,-0.33284 -0.2102,-0.52554 -0.2015,-0.1927 -0.6306,-0.1927 h -1.673 l 0.9197,-0.93721 z m 14.2878,-1.69048 h 2.7328 v 1.48903 h -2.7328 z m 0.1401,2.29485 h 3.0657 v 1.55911 h -5.0978 v -6.1313 h 4.9839 v 1.5591 h -2.9518 z"
       id="text82"
       style="font-weight:900;font-size:8.759px;line-height:2.7;font-family:Montserrat;-inkscape-font-specification:'Montserrat, Heavy';letter-spacing:7.9375px;fill:#111427;stroke-width:0.685042;stroke-linecap:round;stroke-linejoin:round;paint-order:fill markers stroke"
       aria-label="SOFTWARE" /></g></svg>
