<?xml version="1.0" encoding="UTF-8" standalone="no"?>
<!-- Created with Inkscape (http://www.inkscape.org/) -->

<svg
   width="107.14453mm"
   height="37.351776mm"
   viewBox="0 0 107.14453 37.351776"
   version="1.1"
   id="svg1"
   xml:space="preserve"
   xmlns="http://www.w3.org/2000/svg"
   xmlns:svg="http://www.w3.org/2000/svg"><defs
     id="defs1" /><g
     id="layer1"
     transform="translate(-4.1234562,-104.81454)"><g
       id="g81"
       transform="matrix(0.40138965,0,0,0.40138965,-626.76492,-30.81171)"><g
         id="g76"
         transform="matrix(0.50899972,0,0,0.50899972,984.29606,243.92601)"
         style="stroke:#f1e0c5;stroke-width:10.3962;stroke-linejoin:round;stroke-dasharray:none;stroke-opacity:1"><path
           id="path74"
           style="fill:#111427;fill-opacity:1;stroke:#f1e0c5;stroke-width:10.3962;stroke-linecap:round;stroke-linejoin:round;stroke-dasharray:none;stroke-opacity:1"
           d="m 1450.8534,303.40304 a 18.567308,18.567308 0 0 1 -18.5648,18.56731 18.567308,18.567308 0 0 1 0,-2.2e-4 v 6e-4 a 18.567308,18.567308 0 0 1 18.5673,18.55682 v 0.01 h 2e-4 a 18.567308,18.567308 0 0 1 18.5598,-18.56731 18.567308,18.567308 0 0 1 0.01,4.5e-4 v -6.1e-4 a 18.567308,18.567308 0 0 1 -18.5673,-18.5623 18.567308,18.567308 0 0 1 2e-4,-0.005 z" /><path
           id="path75"
           style="fill:#111427;fill-opacity:1;stroke:#f1e0c5;stroke-width:10.3962;stroke-linecap:round;stroke-linejoin:round;stroke-dasharray:none;stroke-opacity:1"
           d="m 1381.8764,303.40304 a 18.567308,18.567308 0 0 1 -18.5648,18.56731 18.567308,18.567308 0 0 1 0,-2.2e-4 v 6e-4 a 18.567308,18.567308 0 0 1 18.5674,18.55683 v 0.01 h 2e-4 a 18.567308,18.567308 0 0 1 18.5598,-18.56731 18.567308,18.567308 0 0 1 0.01,4.5e-4 v -6e-4 a 18.567308,18.567308 0 0 1 -18.5673,-18.5623 18.567308,18.567308 0 0 1 2e-4,-0.005 z" /><path
           id="path76"
           style="fill:#111427;fill-opacity:1;stroke:#f1e0c5;stroke-width:10.3962;stroke-linecap:round;stroke-linejoin:round;stroke-dasharray:none;stroke-opacity:1"
           d="m 1416.365,303.40304 a 18.567308,18.567308 0 0 1 -18.5648,18.56731 18.567308,18.567308 0 0 1 0,-2.2e-4 v 6e-4 a 18.567308,18.567308 0 0 1 18.5673,18.55682 v 0.01 h 2e-4 a 18.567308,18.567308 0 0 1 18.5598,-18.56731 18.567308,18.567308 0 0 1 0.01,4.5e-4 v -6.1e-4 a 18.567308,18.567308 0 0 1 -18.5673,-18.5623 18.567308,18.567308 0 0 1 2e-4,-0.005 z" /></g><text
         xml:space="preserve"
         style="font-style:normal;font-variant:normal;font-weight:900;font-stretch:normal;font-size:8.759px;line-height:2.7;font-family:Montserrat;-inkscape-font-specification:'Montserrat, Heavy';font-variant-ligatures:normal;font-variant-caps:normal;font-variant-numeric:normal;font-variant-east-asian:normal;text-align:start;letter-spacing:7.9375px;writing-mode:lr-tb;direction:ltr;text-anchor:start;fill:none;fill-opacity:1;stroke:#f1e0c5;stroke-width:5.29167;stroke-linecap:square;stroke-linejoin:round;stroke-dasharray:none;stroke-opacity:1;paint-order:markers stroke fill"
         x="1650.4816"
         y="428.1619"
         id="text76"><tspan
           id="tspan76"
           style="font-style:normal;font-variant:normal;font-weight:900;font-stretch:normal;font-size:8.759px;line-height:2.7;font-family:Montserrat;-inkscape-font-specification:'Montserrat, Heavy';font-variant-ligatures:normal;font-variant-caps:normal;font-variant-numeric:normal;font-variant-east-asian:normal;letter-spacing:7.9375px;fill:none;stroke:#f1e0c5;stroke-width:5.29167;stroke-linecap:square;stroke-linejoin:round;stroke-dasharray:none;stroke-opacity:1;paint-order:markers stroke fill"
           x="1650.4816"
           y="428.1619">SOFTWARE</tspan></text><text
         xml:space="preserve"
         style="font-style:normal;font-variant:normal;font-weight:normal;font-stretch:normal;font-size:67.66px;line-height:1.3;font-family:Sansilk;-inkscape-font-specification:'Sansilk, Normal';font-variant-ligatures:normal;font-variant-caps:normal;font-variant-numeric:normal;font-variant-east-asian:normal;text-align:start;letter-spacing:0.264583px;writing-mode:lr-tb;direction:ltr;text-anchor:start;fill:none;fill-opacity:1;stroke:#f1e0c5;stroke-width:5.29167;stroke-linecap:square;stroke-dasharray:none;stroke-opacity:1"
         x="1574.3386"
         y="609.94458"
         id="text77"
         transform="skewY(-7.0211793)"><tspan
           id="tspan77"
           style="font-style:normal;font-variant:normal;font-weight:normal;font-stretch:normal;font-size:67.66px;font-family:Sansilk;-inkscape-font-specification:'Sansilk, Normal';font-variant-ligatures:normal;font-variant-caps:normal;font-variant-numeric:normal;font-variant-east-asian:normal;fill:none;fill-opacity:1;stroke:#f1e0c5;stroke-width:5.29167;stroke-dasharray:none;stroke-opacity:1"
           x="1574.3386"
           y="609.94458">StellarWorks</tspan></text><text
         xml:space="preserve"
         style="font-style:normal;font-variant:normal;font-weight:normal;font-stretch:normal;font-size:67.66px;line-height:1.3;font-family:Sansilk;-inkscape-font-specification:'Sansilk, Normal';font-variant-ligatures:normal;font-variant-caps:normal;font-variant-numeric:normal;font-variant-east-asian:normal;text-align:start;letter-spacing:0.264583px;writing-mode:lr-tb;direction:ltr;text-anchor:start;fill:#111427;fill-opacity:1;stroke-width:3.96875;stroke-linecap:square"
         x="1574.3386"
         y="609.94458"
         id="text78"
         transform="skewY(-7.0211793)"><tspan
           id="tspan78"
           style="font-style:normal;font-variant:normal;font-weight:normal;font-stretch:normal;font-size:67.66px;font-family:Sansilk;-inkscape-font-specification:'Sansilk, Normal';font-variant-ligatures:normal;font-variant-caps:normal;font-variant-numeric:normal;font-variant-east-asian:normal;fill:#111427;fill-opacity:1;stroke-width:3.96875"
           x="1574.3386"
           y="609.94458">StellarWorks</tspan></text><g
         id="g80"
         transform="matrix(0.50899972,0,0,0.50899972,984.29606,243.92601)"><path
           id="path78"
           style="fill:#111427;fill-opacity:1;stroke-width:2.91817;stroke-linecap:round"
           d="m 1450.8534,303.40304 a 18.567308,18.567308 0 0 1 -18.5648,18.56731 18.567308,18.567308 0 0 1 0,-2.2e-4 v 6e-4 a 18.567308,18.567308 0 0 1 18.5673,18.55682 v 0.01 h 2e-4 a 18.567308,18.567308 0 0 1 18.5598,-18.56731 18.567308,18.567308 0 0 1 0.01,4.5e-4 v -6.1e-4 a 18.567308,18.567308 0 0 1 -18.5673,-18.5623 18.567308,18.567308 0 0 1 2e-4,-0.005 z" /><path
           id="path79"
           style="fill:#111427;fill-opacity:1;stroke-width:2.91817;stroke-linecap:round"
           d="m 1381.8764,303.40304 a 18.567308,18.567308 0 0 1 -18.5648,18.56731 18.567308,18.567308 0 0 1 0,-2.2e-4 v 6e-4 a 18.567308,18.567308 0 0 1 18.5674,18.55683 v 0.01 h 2e-4 a 18.567308,18.567308 0 0 1 18.5598,-18.56731 18.567308,18.567308 0 0 1 0.01,4.5e-4 v -6e-4 a 18.567308,18.567308 0 0 1 -18.5673,-18.5623 18.567308,18.567308 0 0 1 2e-4,-0.005 z" /><path
           id="path80"
           style="fill:#111427;fill-opacity:1;stroke-width:2.91817;stroke-linecap:round"
           d="m 1416.365,303.40304 a 18.567308,18.567308 0 0 1 -18.5648,18.56731 18.567308,18.567308 0 0 1 0,-2.2e-4 v 6e-4 a 18.567308,18.567308 0 0 1 18.5673,18.55682 v 0.01 h 2e-4 a 18.567308,18.567308 0 0 1 18.5598,-18.56731 18.567308,18.567308 0 0 1 0.01,4.5e-4 v -6.1e-4 a 18.567308,18.567308 0 0 1 -18.5673,-18.5623 18.567308,18.567308 0 0 1 2e-4,-0.005 z" /></g><text
         xml:space="preserve"
         style="font-style:normal;font-variant:normal;font-weight:900;font-stretch:normal;font-size:8.759px;line-height:2.7;font-family:Montserrat;-inkscape-font-specification:'Montserrat, Heavy';font-variant-ligatures:normal;font-variant-caps:normal;font-variant-numeric:normal;font-variant-east-asian:normal;text-align:start;letter-spacing:7.9375px;writing-mode:lr-tb;direction:ltr;text-anchor:start;fill:#111427;fill-opacity:1;stroke:none;stroke-width:0.685042;stroke-linecap:round;stroke-linejoin:round;stroke-dasharray:none;paint-order:fill markers stroke"
         x="1650.4816"
         y="428.1619"
         id="text80"><tspan
           id="tspan80"
           style="font-style:normal;font-variant:normal;font-weight:900;font-stretch:normal;font-size:8.759px;line-height:2.7;font-family:Montserrat;-inkscape-font-specification:'Montserrat, Heavy';font-variant-ligatures:normal;font-variant-caps:normal;font-variant-numeric:normal;font-variant-east-asian:normal;letter-spacing:7.9375px;fill:#111427;fill-opacity:1;stroke:none;stroke-width:0.685042"
           x="1650.4816"
           y="428.1619">SOFTWARE</tspan></text></g></g></svg>
