<?xml version="1.0" encoding="UTF-8" standalone="no"?>
<!-- Created with Inkscape (http://www.inkscape.org/) -->

<svg
   width="279.52533mm"
   height="143.26605mm"
   viewBox="0 0 279.52533 143.26605"
   version="1.1"
   id="svg1"
   xml:space="preserve"
   xmlns="http://www.w3.org/2000/svg"
   xmlns:svg="http://www.w3.org/2000/svg"><defs
     id="defs1" /><g
     id="layer1"
     transform="translate(82.070232,-434.69328)"><g
       id="g70"><path
         id="path63"
         style="opacity:0.1;fill:#111427;fill-opacity:1;stroke-width:9.11159;stroke-linecap:round"
         d="m 139.46498,434.69449 a 57.973926,57.973926 0 0 1 -57.966091,57.97393 57.973926,57.973926 0 0 1 0,-6.9e-4 v 0.002 a 57.973926,57.973926 0 0 1 57.973901,57.94118 v 0.0312 h 6.2e-4 a 57.973926,57.973926 0 0 1 57.95049,-57.97394 57.973926,57.973926 0 0 1 0.0312,0.001 v -0.002 a 57.973926,57.973926 0 0 1 -57.9739,-57.95828 57.973926,57.973926 0 0 1 6.2e-4,-0.0156 z" /><path
         id="path68"
         style="opacity:0.1;fill:#111427;fill-opacity:1;stroke-width:9.11159;stroke-linecap:round"
         d="m 57.683995,462.01187 a 57.973926,57.973926 0 0 1 -57.96609507,57.97393 57.973926,57.973926 0 0 1 0,-6.9e-4 v 0.002 A 57.973926,57.973926 0 0 1 57.691801,577.92816 v 0.0312 h 6.24e-4 a 57.973926,57.973926 0 0 1 57.950485,-57.97394 57.973926,57.973926 0 0 1 0.0312,10e-4 v -0.002 a 57.973926,57.973926 0 0 1 -57.973899,-57.95828 57.973926,57.973926 0 0 1 6.24e-4,-0.0156 z" /><path
         id="path69"
         style="opacity:0.1;fill:#111427;fill-opacity:1;stroke-width:9.11159;stroke-linecap:round"
         d="m -24.080125,434.69449 a 57.973926,57.973926 0 0 0 57.96609,57.97393 57.973926,57.973926 0 0 0 0,-6.9e-4 v 0.002 a 57.973926,57.973926 0 0 0 -57.9739,57.94118 v 0.0312 h -6.2e-4 a 57.973926,57.973926 0 0 0 -57.95049,-57.97394 57.973926,57.973926 0 0 0 -0.0312,0.001 v -0.002 a 57.973926,57.973926 0 0 0 57.9739,-57.95828 57.973926,57.973926 0 0 0 -6.2e-4,-0.0156 z" /></g></g></svg>
