<?xml version="1.0" encoding="UTF-8" standalone="no"?>
<!-- Created with Inkscape (http://www.inkscape.org/) -->

<svg
   width="19.032471mm"
   height="9.7547665mm"
   viewBox="0 0 19.032471 9.7547665"
   version="1.1"
   id="svg1"
   xml:space="preserve"
   xmlns="http://www.w3.org/2000/svg"
   xmlns:svg="http://www.w3.org/2000/svg"><defs
     id="defs1" /><g
     id="layer1"
     transform="translate(-96.069059,-337.46026)"><g
       id="g144"
       style="fill:#f1e0c5;fill-opacity:1"
       transform="matrix(0.06808854,0,0,0.06808854,79.24184,319.41093)"><path
         id="path141"
         style="opacity:1;fill:#f1e0c5;fill-opacity:1;stroke-width:9.11159;stroke-linecap:round"
         d="m 468.67262,265.08716 a 57.973926,57.973926 0 0 1 -57.96609,57.97393 57.973926,57.973926 0 0 1 0,-6.9e-4 v 0.002 a 57.973926,57.973926 0 0 1 57.9739,57.94118 v 0.0312 h 6.2e-4 a 57.973926,57.973926 0 0 1 57.95049,-57.97394 57.973926,57.973926 0 0 1 0.0312,0.001 v -0.002 a 57.973926,57.973926 0 0 1 -57.9739,-57.95828 57.973926,57.973926 0 0 1 6.2e-4,-0.0156 z" /><path
         id="path142"
         style="opacity:1;fill:#f1e0c5;fill-opacity:1;stroke-width:9.11159;stroke-linecap:round"
         d="m 386.89163,292.40454 a 57.973926,57.973926 0 0 1 -57.96609,57.97393 57.973926,57.973926 0 0 1 0,-6.9e-4 v 0.002 a 57.973926,57.973926 0 0 1 57.9739,57.94105 v 0.0312 h 6.3e-4 a 57.973926,57.973926 0 0 1 57.95048,-57.97394 57.973926,57.973926 0 0 1 0.0312,0.001 v -0.002 a 57.973926,57.973926 0 0 1 -57.9739,-57.95828 57.973926,57.973926 0 0 1 6.2e-4,-0.0156 z" /><path
         id="path143"
         style="opacity:1;fill:#f1e0c5;fill-opacity:1;stroke-width:9.11159;stroke-linecap:round"
         d="m 305.12752,265.08716 a 57.973926,57.973926 0 0 0 57.96609,57.97393 57.973926,57.973926 0 0 0 0,-6.9e-4 v 0.002 a 57.973926,57.973926 0 0 0 -57.97391,57.94118 v 0.0312 h -6.1e-4 a 57.973926,57.973926 0 0 0 -57.95049,-57.97394 57.973926,57.973926 0 0 0 -0.0312,0.001 v -0.002 a 57.973926,57.973926 0 0 0 57.9739,-57.95828 57.973926,57.973926 0 0 0 -6.2e-4,-0.0156 z" /></g></g><style
     id="style2"
     type="text/css">
	.st0{fill-rule:evenodd;clip-rule:evenodd;fill:#FF0000;fill-opacity:0;}
	.st1{fill:#D40000;}
	.st2{opacity:0.4217;fill-rule:evenodd;clip-rule:evenodd;fill:#0000FF;enable-background:new    ;}
	.st3{fill-rule:evenodd;clip-rule:evenodd;fill:#D40000;}
	.st4{stroke:#000000;stroke-width:5;stroke-miterlimit:10;}
	.st5{stroke:#000000;stroke-width:1.4295;}
</style><style
     type="text/css"
     id="style2-6">
	.st0{fill-rule:evenodd;clip-rule:evenodd;fill:#FF0000;fill-opacity:0;}
	.st1{fill:#D40000;}
	.st2{opacity:0.4217;fill-rule:evenodd;clip-rule:evenodd;fill:#0000FF;enable-background:new    ;}
	.st3{fill-rule:evenodd;clip-rule:evenodd;fill:#D40000;}
	.st4{stroke:#000000;stroke-width:5;stroke-miterlimit:10;}
	.st5{stroke:#000000;stroke-width:1.4295;}
</style></svg>
