<?xml version="1.0" encoding="UTF-8" standalone="no"?>
<!-- Created with Inkscape (http://www.inkscape.org/) -->

<svg
   width="115.28154mm"
   height="21.289333mm"
   viewBox="0 0 115.28154 21.289333"
   version="1.1"
   id="svg1"
   xml:space="preserve"
   xmlns="http://www.w3.org/2000/svg"
   xmlns:svg="http://www.w3.org/2000/svg"><defs
     id="defs1" /><g
     id="layer1"
     transform="translate(-42.519076,-865.53048)"><path
       style="fill:#6e8894;fill-opacity:1"
       d="m 63.47665,886.43999 c -5.07052,-0.7829 -8.70617,-2.1912 -13.02051,-5.0438 -2.45492,-1.6232 -5.70216,-4.7703 -7.10916,-6.89 -1.01762,-1.5332 -1.1276,-2.492 -0.16007,-1.3957 3.68091,4.1712 4.80886,5.0229 8.23843,6.2211 3.52906,1.233 6.67019,1.7435 10.7284,1.7436 7.10696,2e-4 11.69851,-1.0144 25.92917,-5.7298 4.7672,-1.5796 6.58333,-2.1563 17.59479,-5.5875 5.1888,-1.6168 10.46717,-2.9715 14.41979,-3.7007 3.71706,-0.6857 13.16154,-0.7068 15.92222,-0.035 6.23918,1.5173 11.03808,4.2213 15.77265,8.8873 2.34009,2.3063 6.00826,6.8276 6.00826,7.4058 0,0.7871 -1.45318,-0.066 -3.57188,-2.0967 -3.07856,-2.951 -10.99638,-5.681 -17.99167,-6.2034 -4.64169,-0.3466 -13.65384,0.8678 -21.69583,2.9235 -2.47385,0.6324 -8.15252,2.2281 -12.61926,3.5459 -12.81669,3.7816 -18.36294,5.1086 -24.9723,5.975 -3.72318,0.488 -10.2477,0.4787 -13.47303,-0.019 z"
       id="path138" /></g><style
     id="style2"
     type="text/css">
	.st0{fill-rule:evenodd;clip-rule:evenodd;fill:#FF0000;fill-opacity:0;}
	.st1{fill:#D40000;}
	.st2{opacity:0.4217;fill-rule:evenodd;clip-rule:evenodd;fill:#0000FF;enable-background:new    ;}
	.st3{fill-rule:evenodd;clip-rule:evenodd;fill:#D40000;}
	.st4{stroke:#000000;stroke-width:5;stroke-miterlimit:10;}
	.st5{stroke:#000000;stroke-width:1.4295;}
</style><style
     type="text/css"
     id="style2-6">
	.st0{fill-rule:evenodd;clip-rule:evenodd;fill:#FF0000;fill-opacity:0;}
	.st1{fill:#D40000;}
	.st2{opacity:0.4217;fill-rule:evenodd;clip-rule:evenodd;fill:#0000FF;enable-background:new    ;}
	.st3{fill-rule:evenodd;clip-rule:evenodd;fill:#D40000;}
	.st4{stroke:#000000;stroke-width:5;stroke-miterlimit:10;}
	.st5{stroke:#000000;stroke-width:1.4295;}
</style></svg>
