<?xml version="1.0" encoding="UTF-8" standalone="no"?>
<!-- Created with Inkscape (http://www.inkscape.org/) -->

<svg
   width="94.720825mm"
   height="35.983334mm"
   viewBox="0 0 94.720825 35.983334"
   version="1.1"
   id="svg1"
   xml:space="preserve"
   xmlns="http://www.w3.org/2000/svg"
   xmlns:svg="http://www.w3.org/2000/svg"><defs
     id="defs1" /><g
     id="layer1"
     transform="translate(25.933586,-799.48595)"><g
       id="g147"><rect
         style="opacity:0;fill:#6e8894;fill-opacity:1;stroke:none;stroke-width:5.44692;stroke-linecap:square;stroke-linejoin:round;stroke-dasharray:none;stroke-opacity:1;paint-order:markers stroke fill"
         id="rect145"
         width="94.720833"
         height="35.983334"
         x="-25.933588"
         y="799.48596" /><path
         d="m 5.6069942,820.15466 2.3404686,-5.35401 h 1.7744729 l 2.3404683,5.35401 h -1.866256 l -1.7285811,-4.49737 h 0.7036703 l -1.7285814,4.49737 z m 1.3920434,-0.93312 0.4589154,-1.30027 h 2.462846 l 0.458915,1.30027 z m 5.8639164,0.93312 v -5.35401 h 2.860573 q 1.109046,0 1.636798,0.39773 0.527753,0.39007 0.527753,1.00196 0,0.40538 -0.229458,0.72662 -0.221809,0.31359 -0.65013,0.49716 -0.428321,0.18356 -1.055505,0.18356 l 0.152972,-0.41302 q 0.627184,0 1.078451,0.17592 0.458915,0.17591 0.70367,0.51245 0.252404,0.32889 0.252404,0.79546 0,0.69602 -0.581293,1.08609 -0.573645,0.39008 -1.68269,0.39008 z m 1.774473,-1.26201 h 1.0861 q 0.298295,0 0.443618,-0.10708 0.152972,-0.10708 0.152972,-0.3136 0,-0.20651 -0.152972,-0.31359 -0.145323,-0.10708 -0.443618,-0.10708 H 14.51505 v -1.19318 h 0.963722 q 0.305944,0 0.443618,-0.0994 0.145324,-0.10708 0.145324,-0.2983 0,-0.19886 -0.145324,-0.29829 -0.137674,-0.0994 -0.443618,-0.0994 h -0.841345 z m 7.46248,1.38439 q -0.657778,0 -1.216126,-0.20651 -0.550698,-0.20651 -0.956073,-0.58129 -0.405376,-0.38243 -0.634833,-0.89489 -0.221809,-0.51245 -0.221809,-1.11669 0,-0.61189 0.221809,-1.1167 0.229457,-0.51245 0.634833,-0.88723 0.405375,-0.38243 0.956073,-0.58895 0.558348,-0.20651 1.208478,-0.20651 0.657778,0 1.208477,0.20651 0.550698,0.20652 0.956074,0.58895 0.405375,0.37478 0.627184,0.88723 0.229458,0.50481 0.229458,1.1167 0,0.60424 -0.229458,1.11669 -0.221809,0.51246 -0.627184,0.89489 -0.405376,0.37478 -0.956074,0.58129 -0.550699,0.20651 -1.200829,0.20651 z m -0.0076,-1.46088 q 0.252403,0 0.466564,-0.0918 0.221809,-0.0918 0.382429,-0.26006 0.168269,-0.17591 0.260052,-0.42067 0.09178,-0.2524 0.09178,-0.56599 0,-0.3136 -0.09178,-0.55835 -0.09178,-0.2524 -0.260052,-0.42067 -0.16062,-0.17592 -0.382429,-0.2677 -0.214161,-0.0918 -0.466564,-0.0918 -0.252404,0 -0.474213,0.0918 -0.21416,0.0918 -0.382429,0.2677 -0.160621,0.16827 -0.252404,0.42067 -0.09178,0.24475 -0.09178,0.55835 0,0.31359 0.09178,0.56599 0.09178,0.24476 0.252404,0.42067 0.168269,0.16827 0.382429,0.26006 0.221809,0.0918 0.474213,0.0918 z m 6.751152,1.46088 q -1.231423,0 -1.919796,-0.66543 -0.688374,-0.66542 -0.688374,-1.86625 v -2.94471 h 1.805068 v 2.89117 q 0,0.61188 0.221809,0.87194 0.221809,0.2524 0.59659,0.2524 0.382429,0 0.59659,-0.2524 0.221809,-0.26006 0.221809,-0.87194 v -2.89117 h 1.774473 v 2.94471 q 0,1.20083 -0.688373,1.86625 -0.688373,0.66543 -1.919796,0.66543 z m 5.030224,-0.12238 v -3.95432 h -1.567961 v -1.39969 h 4.940989 v 1.39969 H 35.67875 v 3.95432 z"
         id="text145"
         style="font-weight:900;font-size:7.64859px;line-height:1.2;font-family:Montserrat;-inkscape-font-specification:'Montserrat, Heavy';letter-spacing:0.509906px;fill:#f1e0c5;stroke-width:10.1981;stroke-linecap:square;stroke-linejoin:round;paint-order:markers stroke fill"
         aria-label="ABOUT" /></g></g><style
     id="style2"
     type="text/css">
	.st0{fill-rule:evenodd;clip-rule:evenodd;fill:#FF0000;fill-opacity:0;}
	.st1{fill:#D40000;}
	.st2{opacity:0.4217;fill-rule:evenodd;clip-rule:evenodd;fill:#0000FF;enable-background:new    ;}
	.st3{fill-rule:evenodd;clip-rule:evenodd;fill:#D40000;}
	.st4{stroke:#000000;stroke-width:5;stroke-miterlimit:10;}
	.st5{stroke:#000000;stroke-width:1.4295;}
</style><style
     type="text/css"
     id="style2-6">
	.st0{fill-rule:evenodd;clip-rule:evenodd;fill:#FF0000;fill-opacity:0;}
	.st1{fill:#D40000;}
	.st2{opacity:0.4217;fill-rule:evenodd;clip-rule:evenodd;fill:#0000FF;enable-background:new    ;}
	.st3{fill-rule:evenodd;clip-rule:evenodd;fill:#D40000;}
	.st4{stroke:#000000;stroke-width:5;stroke-miterlimit:10;}
	.st5{stroke:#000000;stroke-width:1.4295;}
</style></svg>
