<?xml version="1.0" encoding="UTF-8" standalone="no"?>
<!-- Created with Inkscape (http://www.inkscape.org/) -->

<svg
   width="94.720833mm"
   height="35.983334mm"
   viewBox="0 0 94.720833 35.983334"
   version="1.1"
   id="svg1"
   xml:space="preserve"
   xmlns="http://www.w3.org/2000/svg"
   xmlns:svg="http://www.w3.org/2000/svg"><defs
     id="defs1" /><g
     id="layer1"
     transform="translate(303.84512,-550.67681)"><g
       id="g132"><rect
         style="opacity:0;fill:#6e8894;fill-opacity:1;stroke:none;stroke-width:5.44692;stroke-linecap:square;stroke-linejoin:round;stroke-dasharray:none;stroke-opacity:1;paint-order:markers stroke fill"
         id="rect132"
         width="94.720833"
         height="35.983334"
         x="-303.84512"
         y="550.67676" /><path
         d="m -273.49687,572.08557 2.77559,-6.07161 h 0.63318 l 2.7756,6.07161 h -0.67656 l -2.55007,-5.69864 h 0.26021 l -2.55008,5.69864 z m 1.09289,-1.62199 0.19082,-0.52042 h 3.53021 l 0.19082,0.52042 z m 6.67589,1.62199 v -6.07161 h 2.61946 q 1.01483,0 1.56995,0.40767 0.56379,0.40766 0.56379,1.1536 0,0.4944 -0.23419,0.83268 -0.22552,0.33828 -0.62451,0.51175 -0.39032,0.17347 -0.8587,0.17347 l 0.14746,-0.20817 q 0.58114,0 0.99747,0.18215 0.42502,0.17348 0.65921,0.5291 0.23419,0.34695 0.23419,0.86737 0,0.77197 -0.57247,1.19698 -0.56379,0.42501 -1.70872,0.42501 z m 0.64185,-0.5291 h 2.14241 q 0.79799,0 1.223,-0.26888 0.42501,-0.27756 0.42501,-0.87605 0,-0.58981 -0.42501,-0.8587 -0.42501,-0.27756 -1.223,-0.27756 h -2.2118 v -0.52909 h 2.00363 q 0.7286,0 1.12759,-0.27756 0.40766,-0.27756 0.40766,-0.82401 0,-0.55512 -0.40766,-0.824 -0.39899,-0.27756 -1.12759,-0.27756 h -1.93424 z m 9.13055,0.58114 q -0.68523,0 -1.27504,-0.22551 -0.58114,-0.23419 -1.01483,-0.65053 -0.42501,-0.42502 -0.66787,-0.98013 -0.23419,-0.5638 -0.23419,-1.23167 0,-0.66788 0.23419,-1.223 0.24286,-0.56379 0.66787,-0.98013 0.43369,-0.42501 1.01483,-0.65053 0.58114,-0.23419 1.27504,-0.23419 0.68522,0 1.26636,0.23419 0.58114,0.22552 1.00616,0.64185 0.43368,0.41634 0.66787,0.98014 0.24287,0.56379 0.24287,1.23167 0,0.66787 -0.24287,1.23167 -0.23419,0.56379 -0.66787,0.98013 -0.42502,0.41634 -1.00616,0.65053 -0.58114,0.22551 -1.26636,0.22551 z m 0,-0.57246 q 0.54644,0 1.00615,-0.18215 0.46838,-0.19082 0.80666,-0.5291 0.34695,-0.34695 0.53777,-0.79798 0.19082,-0.45971 0.19082,-1.00615 0,-0.54645 -0.19082,-0.99748 -0.19082,-0.45971 -0.53777,-0.79799 -0.33828,-0.34695 -0.80666,-0.52909 -0.45971,-0.19083 -1.00615,-0.19083 -0.54645,0 -1.01483,0.19083 -0.46838,0.18214 -0.81533,0.52909 -0.33827,0.33828 -0.53777,0.79799 -0.19082,0.45103 -0.19082,0.99748 0,0.53777 0.19082,0.99747 0.1995,0.45971 0.53777,0.80666 0.34695,0.33828 0.81533,0.5291 0.46838,0.18215 1.01483,0.18215 z m 7.64734,0.57246 q -1.16228,0 -1.83015,-0.66787 -0.66788,-0.66788 -0.66788,-1.97761 v -3.47817 h 0.64186 v 3.45214 q 0,1.07555 0.48572,1.5873 0.48573,0.51175 1.37045,0.51175 0.8934,0 1.37913,-0.51175 0.48573,-0.51175 0.48573,-1.5873 v -3.45214 h 0.6245 v 3.47817 q 0,1.30973 -0.66787,1.97761 -0.65921,0.66787 -1.82149,0.66787 z m 6.06005,-0.052 v -5.51649 h -2.13374 V 566.014 h 4.90933 v 0.55512 h -2.13373 v 5.51649 z"
         id="text132"
         style="font-size:8.67373px;line-height:1.2;font-family:Montserrat;-inkscape-font-specification:'Montserrat, Normal';letter-spacing:0.57825px;fill:#f1e0c5;stroke-width:11.565;stroke-linecap:square;stroke-linejoin:round;paint-order:markers stroke fill"
         aria-label="ABOUT" /></g></g></svg>
