<?xml version="1.0" encoding="UTF-8" standalone="no"?>
<!-- Created with Inkscape (http://www.inkscape.org/) -->

<svg
   width="94.720833mm"
   height="35.983334mm"
   viewBox="0 0 94.720833 35.983334"
   version="1.1"
   id="svg1"
   xml:space="preserve"
   xmlns="http://www.w3.org/2000/svg"
   xmlns:svg="http://www.w3.org/2000/svg"><defs
     id="defs1" /><g
     id="layer1"
     transform="translate(418.35291,-716.66332)"><rect
       style="opacity:0;fill:#6e8894;fill-opacity:1;stroke:none;stroke-width:5.44692;stroke-linecap:square;stroke-linejoin:round;stroke-dasharray:none;stroke-opacity:1;paint-order:markers stroke fill"
       id="rect138"
       width="94.720833"
       height="35.983334"
       x="-418.35294"
       y="716.66327" /><path
       d="m -403.37446,737.74278 q -0.68522,0 -1.27504,-0.22552 -0.58114,-0.23419 -1.01482,-0.65053 -0.42502,-0.42501 -0.66788,-0.98013 -0.23419,-0.56379 -0.23419,-1.23167 0,-0.66788 0.23419,-1.223 0.24286,-0.56379 0.66788,-0.98013 0.43368,-0.42501 1.01482,-0.65053 0.58114,-0.23419 1.27504,-0.23419 0.68523,0 1.26637,0.23419 0.58114,0.22552 1.00615,0.64186 0.43368,0.41634 0.66788,0.98013 0.24286,0.56379 0.24286,1.23167 0,0.66788 -0.24286,1.23167 -0.2342,0.56379 -0.66788,0.98013 -0.42501,0.41634 -1.00615,0.65053 -0.58114,0.22552 -1.26637,0.22552 z m 0,-0.57247 q 0.54645,0 1.00615,-0.18215 0.46839,-0.19082 0.80666,-0.52909 0.34695,-0.34695 0.53777,-0.79799 0.19082,-0.45971 0.19082,-1.00615 0,-0.54645 -0.19082,-0.99748 -0.19082,-0.45971 -0.53777,-0.79798 -0.33827,-0.34695 -0.80666,-0.5291 -0.4597,-0.19082 -1.00615,-0.19082 -0.54644,0 -1.01483,0.19082 -0.46838,0.18215 -0.81533,0.5291 -0.33827,0.33827 -0.53777,0.79798 -0.19082,0.45103 -0.19082,0.99748 0,0.53777 0.19082,0.99748 0.1995,0.45971 0.53777,0.80666 0.34695,0.33827 0.81533,0.52909 0.46839,0.18215 1.01483,0.18215 z m 5.20136,0.52042 v -6.07161 h 2.27251 q 0.77196,0 1.32708,0.25154 0.55512,0.24287 0.85003,0.71125 0.30358,0.45971 0.30358,1.11891 0,0.64186 -0.30358,1.11024 -0.29491,0.4597 -0.85003,0.71124 -0.55512,0.25154 -1.32708,0.25154 h -1.91689 l 0.28623,-0.30358 v 2.22047 z m 0.64185,-2.16843 -0.28623,-0.31225 h 1.89954 q 0.91075,0 1.37913,-0.39032 0.47705,-0.39899 0.47705,-1.11891 0,-0.72859 -0.47705,-1.12759 -0.46838,-0.39899 -1.37913,-0.39899 h -1.89954 l 0.28623,-0.30358 z m 6.64986,-1.1883 h 3.20928 v 0.54645 h -3.20928 z m 0.0694,2.80162 h 3.65164 v 0.55511 h -4.29349 v -6.07161 h 4.16339 v 0.55512 h -3.52154 z m 5.73913,0.55511 v -6.07161 h 0.52909 l 4.18942,5.27363 h -0.27756 v -5.27363 h 0.63318 v 6.07161 h -0.5291 l -4.18074,-5.27362 h 0.27756 v 5.27362 z m 12.15478,0.0521 q -0.67655,0 -1.30106,-0.21685 -0.61584,-0.22551 -0.95411,-0.57246 l 0.25154,-0.4944 q 0.32092,0.31225 0.8587,0.52909 0.54644,0.20817 1.14493,0.20817 0.57246,0 0.92809,-0.13878 0.36429,-0.14745 0.52909,-0.39032 0.17348,-0.24286 0.17348,-0.53777 0,-0.35562 -0.20817,-0.57246 -0.1995,-0.21685 -0.5291,-0.33828 -0.3296,-0.1301 -0.72859,-0.22552 -0.39899,-0.0954 -0.79798,-0.19949 -0.399,-0.11276 -0.73727,-0.29491 -0.3296,-0.18215 -0.53777,-0.47705 -0.1995,-0.30358 -0.1995,-0.78931 0,-0.45104 0.23419,-0.82401 0.24287,-0.38164 0.73727,-0.60716 0.4944,-0.23419 1.26636,-0.23419 0.51175,0 1.01483,0.14745 0.50308,0.13878 0.86737,0.39032 l -0.21684,0.51175 q -0.39032,-0.26021 -0.83268,-0.38164 -0.43368,-0.12143 -0.84135,-0.12143 -0.54644,0 -0.90207,0.14745 -0.35562,0.14745 -0.5291,0.39899 -0.1648,0.24287 -0.1648,0.55512 0,0.35562 0.1995,0.57247 0.20817,0.21684 0.53777,0.33827 0.33828,0.12143 0.73727,0.21685 0.39899,0.0954 0.78931,0.20816 0.39899,0.11276 0.72859,0.29491 0.33828,0.17348 0.53777,0.46838 0.20817,0.29491 0.20817,0.77196 0,0.44237 -0.24286,0.82401 -0.24287,0.37297 -0.74594,0.60716 -0.49441,0.22552 -1.27504,0.22552 z m 6.89272,0 q -0.68522,0 -1.27504,-0.22552 -0.58114,-0.23419 -1.01482,-0.65053 -0.42502,-0.42501 -0.66788,-0.98013 -0.23419,-0.56379 -0.23419,-1.23167 0,-0.66788 0.23419,-1.223 0.24286,-0.56379 0.66788,-0.98013 0.43368,-0.42501 1.01482,-0.65053 0.58114,-0.23419 1.27504,-0.23419 0.68523,0 1.26637,0.23419 0.58114,0.22552 1.00615,0.64186 0.43369,0.41634 0.66788,0.98013 0.24286,0.56379 0.24286,1.23167 0,0.66788 -0.24286,1.23167 -0.23419,0.56379 -0.66788,0.98013 -0.42501,0.41634 -1.00615,0.65053 -0.58114,0.22552 -1.26637,0.22552 z m 0,-0.57247 q 0.54645,0 1.00615,-0.18215 0.46839,-0.19082 0.80666,-0.52909 0.34695,-0.34695 0.53777,-0.79799 0.19082,-0.45971 0.19082,-1.00615 0,-0.54645 -0.19082,-0.99748 -0.19082,-0.45971 -0.53777,-0.79798 -0.33827,-0.34695 -0.80666,-0.5291 -0.4597,-0.19082 -1.00615,-0.19082 -0.54644,0 -1.01482,0.19082 -0.46839,0.18215 -0.81534,0.5291 -0.33827,0.33827 -0.53777,0.79798 -0.19082,0.45103 -0.19082,0.99748 0,0.53777 0.19082,0.99748 0.1995,0.45971 0.53777,0.80666 0.34695,0.33827 0.81534,0.52909 0.46838,0.18215 1.01482,0.18215 z m 7.64735,0.57247 q -1.16228,0 -1.83016,-0.66788 -0.66788,-0.66788 -0.66788,-1.97761 v -3.47817 h 0.64186 v 3.45215 q 0,1.07554 0.48573,1.58729 0.48573,0.51175 1.37045,0.51175 0.89339,0 1.37912,-0.51175 0.48573,-0.51175 0.48573,-1.58729 v -3.45215 h 0.62451 v 3.47817 q 0,1.30973 -0.66788,1.97761 -0.6592,0.66788 -1.82148,0.66788 z m 5.00185,-0.0521 v -6.07161 h 2.27251 q 0.77197,0 1.32708,0.25154 0.55512,0.24287 0.85003,0.71125 0.30358,0.45971 0.30358,1.11891 0,0.64186 -0.30358,1.11024 -0.29491,0.4597 -0.85003,0.71124 -0.55511,0.24287 -1.32708,0.24287 h -1.91689 l 0.28623,-0.29491 v 2.22047 z m 4.14604,0 -1.56127,-2.20312 h 0.6939 l 1.56994,2.20312 z m -3.50419,-2.16843 -0.28623,-0.30358 h 1.89955 q 0.91074,0 1.37912,-0.39899 0.47705,-0.39899 0.47705,-1.11891 0,-0.72859 -0.47705,-1.12759 -0.46838,-0.39899 -1.37912,-0.39899 h -1.89955 l 0.28623,-0.30358 z m 8.84431,2.22048 q -0.68522,0 -1.26636,-0.22552 -0.58114,-0.23419 -1.00615,-0.65053 -0.42502,-0.41634 -0.66788,-0.98013 -0.23419,-0.56379 -0.23419,-1.23167 0,-0.66788 0.23419,-1.23167 0.24286,-0.56379 0.66788,-0.98013 0.43368,-0.41634 1.01482,-0.64186 0.58114,-0.23419 1.26637,-0.23419 0.6592,0 1.24034,0.22552 0.58114,0.21684 0.98013,0.6592 l -0.40766,0.40767 q -0.37297,-0.38165 -0.82401,-0.54645 -0.45103,-0.17347 -0.97145,-0.17347 -0.54645,0 -1.01483,0.19082 -0.46838,0.18215 -0.81533,0.5291 -0.34695,0.33827 -0.54645,0.79798 -0.19082,0.45103 -0.19082,0.99748 0,0.54644 0.19082,1.00615 0.1995,0.45104 0.54645,0.79799 0.34695,0.33827 0.81533,0.52909 0.46838,0.18215 1.01483,0.18215 0.52042,0 0.97145,-0.17347 0.45104,-0.17348 0.82401,-0.55512 l 0.40766,0.40766 q -0.39899,0.44236 -0.98013,0.66788 -0.58114,0.22552 -1.24902,0.22552 z m 4.75032,-3.40878 h 3.20928 v 0.54645 h -3.20928 z m 0.0694,2.80162 h 3.65164 v 0.55511 h -4.2935 v -6.07161 h 4.16339 v 0.55512 h -3.52153 z"
       id="text138"
       style="font-size:8.67373px;line-height:1.2;font-family:Montserrat;-inkscape-font-specification:'Montserrat, Normal';letter-spacing:0.57825px;fill:#f1e0c5;stroke-width:11.565;stroke-linecap:square;stroke-linejoin:round;paint-order:markers stroke fill"
       aria-label="OPEN SOURCE" /></g></svg>
