<?xml version="1.0" encoding="UTF-8" standalone="no"?>
<!-- Created with Inkscape (http://www.inkscape.org/) -->

<svg
   width="94.720833mm"
   height="35.983334mm"
   viewBox="0 0 94.720833 35.983334"
   version="1.1"
   id="svg1"
   xml:space="preserve"
   xmlns="http://www.w3.org/2000/svg"
   xmlns:svg="http://www.w3.org/2000/svg"><defs
     id="defs1" /><g
     id="layer1"
     transform="translate(404.88339,-667.90795)"><path
       d="m -377.19067,688.93542 v -6.07161 h 2.27252 q 0.77196,0 1.32708,0.25154 0.55512,0.24287 0.85002,0.71125 0.30359,0.45971 0.30359,1.11891 0,0.64186 -0.30359,1.11024 -0.2949,0.4597 -0.85002,0.71124 -0.55512,0.25154 -1.32708,0.25154 h -1.9169 l 0.28624,-0.30358 v 2.22047 z m 0.64186,-2.16843 -0.28624,-0.31225 h 1.89955 q 0.91074,0 1.37912,-0.39032 0.47706,-0.39899 0.47706,-1.11891 0,-0.72859 -0.47706,-1.12759 -0.46838,-0.39899 -1.37912,-0.39899 h -1.89955 l 0.28624,-0.30358 z m 6.07739,2.16843 v -6.07161 h 2.27252 q 0.77196,0 1.32708,0.25154 0.55512,0.24287 0.85003,0.71125 0.30358,0.45971 0.30358,1.11891 0,0.64186 -0.30358,1.11024 -0.29491,0.4597 -0.85003,0.71124 -0.55512,0.24287 -1.32708,0.24287 h -1.91689 l 0.28623,-0.29491 v 2.22047 z m 4.14605,0 -1.56128,-2.20312 h 0.6939 l 1.56995,2.20312 z m -3.50419,-2.16843 -0.28623,-0.30358 h 1.89954 q 0.91074,0 1.37913,-0.39899 0.47705,-0.39899 0.47705,-1.11891 0,-0.72859 -0.47705,-1.12759 -0.46839,-0.39899 -1.37913,-0.39899 h -1.89954 l 0.28623,-0.30358 z m 6.2075,2.16843 v -6.07161 h 0.64185 v 6.07161 z m 5.83453,0.0521 q -0.68523,0 -1.26637,-0.22552 -0.58114,-0.23419 -1.00615,-0.65053 -0.42501,-0.41634 -0.66788,-0.98013 -0.23419,-0.56379 -0.23419,-1.23167 0,-0.66788 0.23419,-1.23167 0.24287,-0.56379 0.66788,-0.98013 0.43369,-0.41634 1.01483,-0.64186 0.58114,-0.23419 1.26636,-0.23419 0.6592,0 1.24034,0.22552 0.58114,0.21684 0.98013,0.6592 l -0.40766,0.40767 q -0.37297,-0.38165 -0.824,-0.54645 -0.45104,-0.17347 -0.97146,-0.17347 -0.54645,0 -1.01483,0.19082 -0.46838,0.18215 -0.81533,0.5291 -0.34695,0.33827 -0.54644,0.79798 -0.19083,0.45103 -0.19083,0.99748 0,0.54644 0.19083,1.00615 0.19949,0.45104 0.54644,0.79799 0.34695,0.33827 0.81533,0.52909 0.46838,0.18215 1.01483,0.18215 0.52042,0 0.97146,-0.17347 0.45103,-0.17348 0.824,-0.55512 l 0.40766,0.40766 q -0.39899,0.44236 -0.98013,0.66788 -0.58114,0.22552 -1.24901,0.22552 z m 4.17784,-0.0521 v -6.07161 h 0.64186 v 6.07161 z m 3.19772,0 v -6.07161 h 0.5291 l 4.18941,5.27363 h -0.27756 v -5.27363 h 0.63318 v 6.07161 h -0.52909 l -4.18074,-5.27362 h 0.27756 v 5.27362 z m 10.29282,0.0521 q -0.69389,0 -1.28371,-0.22552 -0.58114,-0.23419 -1.01482,-0.65053 -0.42502,-0.41634 -0.66788,-0.98013 -0.23419,-0.56379 -0.23419,-1.23167 0,-0.66788 0.23419,-1.23167 0.24286,-0.56379 0.67655,-0.98013 0.43369,-0.41634 1.01483,-0.64186 0.58981,-0.23419 1.28371,-0.23419 0.6939,0 1.26636,0.21684 0.58114,0.21685 0.98881,0.65921 l -0.39899,0.40766 q -0.38165,-0.38164 -0.84136,-0.54644 -0.4597,-0.1648 -0.9888,-0.1648 -0.56379,0 -1.04085,0.19082 -0.46838,0.18215 -0.824,0.5291 -0.34695,0.33827 -0.54645,0.79798 -0.19082,0.45103 -0.19082,0.99748 0,0.53777 0.19082,0.99748 0.1995,0.45971 0.54645,0.80666 0.35562,0.33827 0.824,0.52909 0.47706,0.18215 1.03218,0.18215 0.52042,0 0.98013,-0.15613 0.46838,-0.15612 0.8587,-0.52909 l 0.36429,0.48573 q -0.43368,0.38164 -1.01482,0.58114 -0.58114,0.19082 -1.21433,0.19082 z m 1.61332,-0.85003 v -2.23782 h 0.61583 v 2.31589 z"
       id="text137"
       style="font-size:8.67373px;line-height:1.2;font-family:Montserrat;-inkscape-font-specification:'Montserrat, Normal';letter-spacing:0.57825px;fill:#f1e0c5;stroke-width:11.565;stroke-linecap:square;stroke-linejoin:round;paint-order:markers stroke fill"
       aria-label="PRICING" /><rect
       style="opacity:0;fill:#6e8894;fill-opacity:1;stroke:none;stroke-width:5.44692;stroke-linecap:square;stroke-linejoin:round;stroke-dasharray:none;stroke-opacity:1;paint-order:markers stroke fill"
       id="rect137"
       width="94.720833"
       height="35.983334"
       x="-404.88339"
       y="667.90796" /></g></svg>
