<?xml version="1.0" encoding="UTF-8" standalone="no"?>
<!-- Created with Inkscape (http://www.inkscape.org/) -->

<svg
   width="94.720833mm"
   height="35.983334mm"
   viewBox="0 0 94.720833 35.983334"
   version="1.1"
   id="svg1"
   xml:space="preserve"
   xmlns="http://www.w3.org/2000/svg"
   xmlns:svg="http://www.w3.org/2000/svg"><defs
     id="defs1" /><g
     id="layer1"
     transform="translate(-79.623528,-799.48595)"><g
       id="g148"><rect
         style="opacity:0;fill:#6e8894;fill-opacity:1;stroke:none;stroke-width:5.44692;stroke-linecap:square;stroke-linejoin:round;stroke-dasharray:none;stroke-opacity:1;paint-order:markers stroke fill"
         id="rect146"
         width="94.720833"
         height="35.983334"
         x="79.623535"
         y="799.48596" /><path
         d="m 108.57379,820.15466 v -5.35401 h 2.57757 q 0.74956,0 1.29261,0.24475 0.5507,0.24476 0.849,0.70368 0.29829,0.45126 0.29829,1.0708 0,0.61953 -0.29829,1.0708 -0.2983,0.45127 -0.849,0.70367 -0.54305,0.24476 -1.29261,0.24476 h -1.57561 l 0.8031,-0.77251 v 2.08806 z m 1.80506,-1.8892 -0.8031,-0.8184 h 1.46088 q 0.37478,0 0.5507,-0.16827 0.18357,-0.16827 0.18357,-0.45891 0,-0.29065 -0.18357,-0.45892 -0.17592,-0.16827 -0.5507,-0.16827 h -1.46088 l 0.8031,-0.8184 z m 4.31126,1.8892 v -5.35401 h 2.57757 q 0.74956,0 1.29261,0.24475 0.5507,0.24476 0.849,0.70368 0.29829,0.45126 0.29829,1.0708 0,0.61953 -0.29829,1.0708 -0.2983,0.44362 -0.849,0.68072 -0.54305,0.23711 -1.29261,0.23711 h -1.57561 l 0.8031,-0.74191 v 2.08806 z m 3.20476,0 -1.31556,-1.95039 h 1.91215 l 1.33085,1.95039 z m -1.3997,-1.8892 -0.8031,-0.8184 h 1.46088 q 0.37478,0 0.5507,-0.16827 0.18357,-0.16827 0.18357,-0.45891 0,-0.29065 -0.18357,-0.45892 -0.17592,-0.16827 -0.5507,-0.16827 h -1.46088 l 0.8031,-0.8184 z m 4.40305,1.8892 v -5.35401 h 1.80507 v 5.35401 z m 5.9557,0.12238 q -0.64248,0 -1.19318,-0.19886 -0.54305,-0.20651 -0.94842,-0.5813 -0.39773,-0.37478 -0.61954,-0.88723 -0.22181,-0.51246 -0.22181,-1.13199 0,-0.61954 0.22181,-1.13199 0.22181,-0.51246 0.61954,-0.88724 0.40537,-0.37478 0.94842,-0.57365 0.5507,-0.20651 1.19318,-0.20651 0.78781,0 1.39205,0.27535 0.61189,0.27535 1.00961,0.79546 l -1.13964,1.01726 q -0.2371,-0.2983 -0.52775,-0.45892 -0.283,-0.16827 -0.64248,-0.16827 -0.283,0 -0.51246,0.0918 -0.22946,0.0918 -0.39772,0.2677 -0.16063,0.17591 -0.25241,0.42832 -0.0918,0.24475 -0.0918,0.5507 0,0.30594 0.0918,0.55834 0.0918,0.24476 0.25241,0.42068 0.16826,0.17591 0.39772,0.2677 0.22946,0.0918 0.51246,0.0918 0.35948,0 0.64248,-0.16062 0.29065,-0.16827 0.52775,-0.46656 l 1.13964,1.01726 q -0.39772,0.51245 -1.00961,0.79545 -0.60424,0.27535 -1.39205,0.27535 z m 3.43167,-0.12238 v -5.35401 h 1.80507 v 5.35401 z m 3.18691,0 v -5.35401 h 1.48383 l 2.7229,3.2583 h -0.68838 v -3.2583 h 1.75918 v 5.35401 h -1.48383 l -2.72289,-3.2583 h 0.68837 v 3.2583 z m 9.43582,0.12238 q -0.65013,0 -1.20083,-0.19886 -0.54305,-0.20651 -0.94842,-0.5813 -0.39773,-0.37478 -0.61954,-0.88723 -0.22181,-0.51246 -0.22181,-1.13199 0,-0.61954 0.22181,-1.13199 0.22181,-0.51246 0.62719,-0.88724 0.40537,-0.37478 0.95607,-0.57365 0.55835,-0.20651 1.22377,-0.20651 0.79546,0 1.41499,0.2677 0.62719,0.2677 1.03256,0.76486 l -1.15493,1.01726 q -0.25241,-0.29064 -0.5507,-0.43596 -0.29065,-0.15298 -0.65013,-0.15298 -0.2983,0 -0.54305,0.0918 -0.23711,0.0918 -0.40538,0.2677 -0.16827,0.17591 -0.26005,0.42067 -0.0918,0.24475 -0.0918,0.55835 0,0.29829 0.0918,0.5507 0.0918,0.24475 0.26005,0.42067 0.16827,0.17592 0.39773,0.27535 0.2371,0.0918 0.52775,0.0918 0.30595,0 0.59659,-0.0994 0.29065,-0.10708 0.61954,-0.35949 l 1.00961,1.23908 q -0.48951,0.32889 -1.11669,0.5048 -0.62719,0.17592 -1.21613,0.17592 z m 0.76486,-0.91018 v -2.03453 h 1.56796 v 2.26399 z"
         id="text146"
         style="font-weight:900;font-size:7.64859px;line-height:1.2;font-family:Montserrat;-inkscape-font-specification:'Montserrat, Heavy';letter-spacing:0.509906px;fill:#f1e0c5;stroke-width:10.1981;stroke-linecap:square;stroke-linejoin:round;paint-order:markers stroke fill"
         aria-label="PRICING" /></g></g><style
     id="style2"
     type="text/css">
	.st0{fill-rule:evenodd;clip-rule:evenodd;fill:#FF0000;fill-opacity:0;}
	.st1{fill:#D40000;}
	.st2{opacity:0.4217;fill-rule:evenodd;clip-rule:evenodd;fill:#0000FF;enable-background:new    ;}
	.st3{fill-rule:evenodd;clip-rule:evenodd;fill:#D40000;}
	.st4{stroke:#000000;stroke-width:5;stroke-miterlimit:10;}
	.st5{stroke:#000000;stroke-width:1.4295;}
</style><style
     type="text/css"
     id="style2-6">
	.st0{fill-rule:evenodd;clip-rule:evenodd;fill:#FF0000;fill-opacity:0;}
	.st1{fill:#D40000;}
	.st2{opacity:0.4217;fill-rule:evenodd;clip-rule:evenodd;fill:#0000FF;enable-background:new    ;}
	.st3{fill-rule:evenodd;clip-rule:evenodd;fill:#D40000;}
	.st4{stroke:#000000;stroke-width:5;stroke-miterlimit:10;}
	.st5{stroke:#000000;stroke-width:1.4295;}
</style></svg>
