<?xml version="1.0" encoding="UTF-8" standalone="no"?>
<!-- Created with Inkscape (http://www.inkscape.org/) -->

<svg
   width="106.18563mm"
   height="106.18558mm"
   viewBox="0 0 106.18563 106.18558"
   version="1.1"
   id="svg1"
   xml:space="preserve"
   xmlns="http://www.w3.org/2000/svg"
   xmlns:svg="http://www.w3.org/2000/svg"><defs
     id="defs1" /><g
     id="layer1"
     transform="translate(-1800.4456,-544.51728)"><rect
       style="opacity:1;fill:#6e8894;fill-opacity:1;stroke-width:6.53145;stroke-linecap:square;stroke-linejoin:round;paint-order:markers stroke fill"
       id="rect28"
       width="106.18559"
       height="106.18559"
       x="1800.4458"
       y="544.51727" /><path
       d="m 1841.8097,827.21857 c 0,-0.11501 0,-0.28753 -0.058,-0.40255 -1.9552,-6.38326 -17.5971,-5.52066 -22.8302,-5.52066 -0.8051,0 -5.1756,0.11501 -5.1756,-1.26515 0,-1.15014 2.8178,-3.22039 3.6229,-3.79546 9.8337,-7.30337 23.4053,-13.22658 35.7693,-13.22658 1.1501,0 4.313,-0.17252 4.313,1.61019 0,0.69008 -0.345,1.32266 -0.6326,1.89773 -1.4951,2.70282 -5.1181,5.0031 -7.7059,6.55578 -0.6901,0.40255 -1.4952,0.8051 -2.0702,1.32266 -0.5751,0.51756 -0.7476,0.97762 -0.7476,1.78272 0,0.57506 0.575,1.15013 1.1501,1.15013 0.5751,0 2.1853,-1.7252 2.8754,-2.18526 3.1053,-2.07025 9.9487,-6.38326 9.9487,-10.52376 0,-3.91047 -5.9808,-4.54305 -8.8561,-4.54305 -12.0765,0 -27.0283,6.03823 -36.6894,12.99656 -2.2428,1.6102 -6.4408,5.0031 -6.4408,7.99346 0,4.19801 4.8881,4.31302 7.936,4.31302 4.083,0 8.1084,-0.57507 12.1914,-0.57507 1.8978,0 10.6388,0.23003 10.6388,2.87535 0,0.28753 -0.1725,0.57507 -0.46,0.69008 -1.3227,0.51756 -3.2204,0.69008 -4.6006,0.97762 -3.9105,0.92011 -17.9997,4.25551 -17.9997,9.43113 0,2.70282 3.9105,3.45041 5.9808,3.45041 1.2651,0 2.4728,-0.17252 3.6804,-0.51756 6.7858,-1.89773 11.3864,-4.88809 15.4118,-10.69628 0.3451,-0.46006 0.4601,-0.57507 1.0352,-0.69009 1.8402,-0.40254 3.6804,-0.74759 5.5206,-1.03512 0.7476,-0.11501 1.5527,-0.17252 2.2428,-0.34504 0.4601,-0.11502 0.9201,-0.46006 0.9201,-0.97762 0,-0.92011 -1.1501,-1.15014 -1.8402,-1.15014 -2.3003,0 -4.5431,0.57507 -6.8433,0.8051 z m -20.0124,12.53651 c -0.6325,0 -2.9903,-0.0575 -2.9903,-1.09264 0,-2.87534 15.2393,-7.24587 18.0571,-7.24587 h 0.8626 c -3.2203,4.37053 -10.5237,8.33851 -15.9294,8.33851 z m 46.6905,-16.84953 c -1.1501,3.39291 -2.5303,7.01585 -2.5303,10.63878 0,3.10537 1.3802,6.26825 4.9456,6.26825 5.7507,0 13.2841,-9.60365 16.3319,-13.74415 4.1405,-5.69318 11.5589,-16.33196 11.5589,-23.69284 0,-1.32266 -0.4025,-2.70282 -1.9552,-2.70282 -1.0926,0 -1.6677,0.69008 -1.6677,1.7252 0,0.86261 0.115,1.32266 -0.23,2.24277 -3.2204,7.87845 -8.9136,17.82714 -14.7218,24.84298 -1.4952,1.84022 -6.6133,7.59091 -9.3161,7.59091 -3.6805,0 0.8626,-12.93905 1.3226,-14.31921 0.1726,-0.57507 0.6326,-1.89773 0.6326,-2.4728 0,-0.8051 -0.7476,-1.72521 -1.6102,-1.72521 -1.9552,0 -10.3512,9.1436 -15.4118,13.97418 -4.7731,4.60055 -3.7955,2.24277 -2.2428,-1.38017 2.4153,-5.46315 5.1181,-10.69628 8.5685,-15.64187 0.7476,-1.03513 3.0479,-2.99036 3.0479,-4.02549 0,-0.74759 -0.7476,-1.38016 -1.4377,-1.38016 -4.2555,0 -15.4693,21.91013 -15.4693,26.39566 0,1.43768 0.7476,3.04787 2.3578,3.04787 1.2076,0 2.5878,-1.09263 3.4504,-1.84022 4.4855,-4.08299 8.856,-8.39601 13.1115,-12.70903 0.4026,-0.40254 0.8051,-0.74759 1.2652,-1.09263 z"
       id="text72"
       style="font-size:57.5069px;line-height:1.3;font-family:Sansilk;-inkscape-font-specification:'Sansilk, Normal';letter-spacing:0.224879px;fill:#111427;stroke:#f1e0c5;stroke-width:5.29167;stroke-linecap:square"
       transform="skewY(-7.0211793)"
       aria-label="SW" /><g
       id="g62"
       transform="translate(148.31117,212.14294)"><g
         id="g36"
         transform="matrix(0.50899972,0,0,0.50899972,984.29606,243.92601)"
         style="stroke:#f1e0c5;stroke-width:10.3962;stroke-linejoin:round;stroke-dasharray:none;stroke-opacity:1"><path
           id="path32"
           style="fill:#111427;fill-opacity:1;stroke:#f1e0c5;stroke-width:10.3962;stroke-linecap:round;stroke-linejoin:round;stroke-dasharray:none;stroke-opacity:1"
           d="m 1450.8534,303.40304 a 18.567308,18.567308 0 0 1 -18.5648,18.56731 18.567308,18.567308 0 0 1 0,-2.2e-4 v 6e-4 a 18.567308,18.567308 0 0 1 18.5673,18.55682 v 0.01 h 2e-4 a 18.567308,18.567308 0 0 1 18.5598,-18.56731 18.567308,18.567308 0 0 1 0.01,4.5e-4 v -6.1e-4 a 18.567308,18.567308 0 0 1 -18.5673,-18.5623 18.567308,18.567308 0 0 1 2e-4,-0.005 z" /><path
           id="path34"
           style="fill:#111427;fill-opacity:1;stroke:#f1e0c5;stroke-width:10.3962;stroke-linecap:round;stroke-linejoin:round;stroke-dasharray:none;stroke-opacity:1"
           d="m 1381.8764,303.40304 a 18.567308,18.567308 0 0 1 -18.5648,18.56731 18.567308,18.567308 0 0 1 0,-2.2e-4 v 6e-4 a 18.567308,18.567308 0 0 1 18.5674,18.55683 v 0.01 h 2e-4 a 18.567308,18.567308 0 0 1 18.5598,-18.56731 18.567308,18.567308 0 0 1 0.01,4.5e-4 v -6e-4 a 18.567308,18.567308 0 0 1 -18.5673,-18.5623 18.567308,18.567308 0 0 1 2e-4,-0.005 z" /><path
           id="path35"
           style="fill:#111427;fill-opacity:1;stroke:#f1e0c5;stroke-width:10.3962;stroke-linecap:round;stroke-linejoin:round;stroke-dasharray:none;stroke-opacity:1"
           d="m 1416.365,303.40304 a 18.567308,18.567308 0 0 1 -18.5648,18.56731 18.567308,18.567308 0 0 1 0,-2.2e-4 v 6e-4 a 18.567308,18.567308 0 0 1 18.5673,18.55682 v 0.01 h 2e-4 a 18.567308,18.567308 0 0 1 18.5598,-18.56731 18.567308,18.567308 0 0 1 0.01,4.5e-4 v -6.1e-4 a 18.567308,18.567308 0 0 1 -18.5673,-18.5623 18.567308,18.567308 0 0 1 2e-4,-0.005 z" /></g><g
         id="g60"
         transform="matrix(0.50899972,0,0,0.50899972,984.29606,243.92601)"><path
           id="path43"
           style="fill:#111427;fill-opacity:1;stroke-width:2.91817;stroke-linecap:round"
           d="m 1450.8534,303.40304 a 18.567308,18.567308 0 0 1 -18.5648,18.56731 18.567308,18.567308 0 0 1 0,-2.2e-4 v 6e-4 a 18.567308,18.567308 0 0 1 18.5673,18.55682 v 0.01 h 2e-4 a 18.567308,18.567308 0 0 1 18.5598,-18.56731 18.567308,18.567308 0 0 1 0.01,4.5e-4 v -6.1e-4 a 18.567308,18.567308 0 0 1 -18.5673,-18.5623 18.567308,18.567308 0 0 1 2e-4,-0.005 z" /><path
           id="path57"
           style="fill:#111427;fill-opacity:1;stroke-width:2.91817;stroke-linecap:round"
           d="m 1381.8764,303.40304 a 18.567308,18.567308 0 0 1 -18.5648,18.56731 18.567308,18.567308 0 0 1 0,-2.2e-4 v 6e-4 a 18.567308,18.567308 0 0 1 18.5674,18.55683 v 0.01 h 2e-4 a 18.567308,18.567308 0 0 1 18.5598,-18.56731 18.567308,18.567308 0 0 1 0.01,4.5e-4 v -6e-4 a 18.567308,18.567308 0 0 1 -18.5673,-18.5623 18.567308,18.567308 0 0 1 2e-4,-0.005 z" /><path
           id="path58"
           style="fill:#111427;fill-opacity:1;stroke-width:2.91817;stroke-linecap:round"
           d="m 1416.365,303.40304 a 18.567308,18.567308 0 0 1 -18.5648,18.56731 18.567308,18.567308 0 0 1 0,-2.2e-4 v 6e-4 a 18.567308,18.567308 0 0 1 18.5673,18.55682 v 0.01 h 2e-4 a 18.567308,18.567308 0 0 1 18.5598,-18.56731 18.567308,18.567308 0 0 1 0.01,4.5e-4 v -6.1e-4 a 18.567308,18.567308 0 0 1 -18.5673,-18.5623 18.567308,18.567308 0 0 1 2e-4,-0.005 z" /></g></g><path
       d="m 1841.8097,827.21857 c 0,-0.11501 0,-0.28753 -0.058,-0.40255 -1.9552,-6.38326 -17.5971,-5.52066 -22.8302,-5.52066 -0.8051,0 -5.1756,0.11501 -5.1756,-1.26515 0,-1.15014 2.8178,-3.22039 3.6229,-3.79546 9.8337,-7.30337 23.4053,-13.22658 35.7693,-13.22658 1.1501,0 4.313,-0.17252 4.313,1.61019 0,0.69008 -0.345,1.32266 -0.6326,1.89773 -1.4951,2.70282 -5.1181,5.0031 -7.7059,6.55578 -0.6901,0.40255 -1.4952,0.8051 -2.0702,1.32266 -0.5751,0.51756 -0.7476,0.97762 -0.7476,1.78272 0,0.57506 0.575,1.15013 1.1501,1.15013 0.5751,0 2.1853,-1.7252 2.8754,-2.18526 3.1053,-2.07025 9.9487,-6.38326 9.9487,-10.52376 0,-3.91047 -5.9808,-4.54305 -8.8561,-4.54305 -12.0765,0 -27.0283,6.03823 -36.6894,12.99656 -2.2428,1.6102 -6.4408,5.0031 -6.4408,7.99346 0,4.19801 4.8881,4.31302 7.936,4.31302 4.083,0 8.1084,-0.57507 12.1914,-0.57507 1.8978,0 10.6388,0.23003 10.6388,2.87535 0,0.28753 -0.1725,0.57507 -0.46,0.69008 -1.3227,0.51756 -3.2204,0.69008 -4.6006,0.97762 -3.9105,0.92011 -17.9997,4.25551 -17.9997,9.43113 0,2.70282 3.9105,3.45041 5.9808,3.45041 1.2651,0 2.4728,-0.17252 3.6804,-0.51756 6.7858,-1.89773 11.3864,-4.88809 15.4118,-10.69628 0.3451,-0.46006 0.4601,-0.57507 1.0352,-0.69009 1.8402,-0.40254 3.6804,-0.74759 5.5206,-1.03512 0.7476,-0.11501 1.5527,-0.17252 2.2428,-0.34504 0.4601,-0.11502 0.9201,-0.46006 0.9201,-0.97762 0,-0.92011 -1.1501,-1.15014 -1.8402,-1.15014 -2.3003,0 -4.5431,0.57507 -6.8433,0.8051 z m -20.0124,12.53651 c -0.6325,0 -2.9903,-0.0575 -2.9903,-1.09264 0,-2.87534 15.2393,-7.24587 18.0571,-7.24587 h 0.8626 c -3.2203,4.37053 -10.5237,8.33851 -15.9294,8.33851 z m 46.6905,-16.84953 c -1.1501,3.39291 -2.5303,7.01585 -2.5303,10.63878 0,3.10537 1.3802,6.26825 4.9456,6.26825 5.7507,0 13.2841,-9.60365 16.3319,-13.74415 4.1405,-5.69318 11.5589,-16.33196 11.5589,-23.69284 0,-1.32266 -0.4025,-2.70282 -1.9552,-2.70282 -1.0926,0 -1.6677,0.69008 -1.6677,1.7252 0,0.86261 0.115,1.32266 -0.23,2.24277 -3.2204,7.87845 -8.9136,17.82714 -14.7218,24.84298 -1.4952,1.84022 -6.6133,7.59091 -9.3161,7.59091 -3.6805,0 0.8626,-12.93905 1.3226,-14.31921 0.1726,-0.57507 0.6326,-1.89773 0.6326,-2.4728 0,-0.8051 -0.7476,-1.72521 -1.6102,-1.72521 -1.9552,0 -10.3512,9.1436 -15.4118,13.97418 -4.7731,4.60055 -3.7955,2.24277 -2.2428,-1.38017 2.4153,-5.46315 5.1181,-10.69628 8.5685,-15.64187 0.7476,-1.03513 3.0479,-2.99036 3.0479,-4.02549 0,-0.74759 -0.7476,-1.38016 -1.4377,-1.38016 -4.2555,0 -15.4693,21.91013 -15.4693,26.39566 0,1.43768 0.7476,3.04787 2.3578,3.04787 1.2076,0 2.5878,-1.09263 3.4504,-1.84022 4.4855,-4.08299 8.856,-8.39601 13.1115,-12.70903 0.4026,-0.40254 0.8051,-0.74759 1.2652,-1.09263 z"
       id="text70"
       style="font-size:57.5069px;line-height:1.3;font-family:Sansilk;-inkscape-font-specification:'Sansilk, Normal';letter-spacing:0.224879px;fill:#111427;stroke-width:3.3732;stroke-linecap:square"
       transform="skewY(-7.0211793)"
       aria-label="SW" /></g><style
     id="style2"
     type="text/css">
	.st0{fill-rule:evenodd;clip-rule:evenodd;fill:#FF0000;fill-opacity:0;}
	.st1{fill:#D40000;}
	.st2{opacity:0.4217;fill-rule:evenodd;clip-rule:evenodd;fill:#0000FF;enable-background:new    ;}
	.st3{fill-rule:evenodd;clip-rule:evenodd;fill:#D40000;}
	.st4{stroke:#000000;stroke-width:5;stroke-miterlimit:10;}
	.st5{stroke:#000000;stroke-width:1.4295;}
</style><style
     type="text/css"
     id="style2-6">
	.st0{fill-rule:evenodd;clip-rule:evenodd;fill:#FF0000;fill-opacity:0;}
	.st1{fill:#D40000;}
	.st2{opacity:0.4217;fill-rule:evenodd;clip-rule:evenodd;fill:#0000FF;enable-background:new    ;}
	.st3{fill-rule:evenodd;clip-rule:evenodd;fill:#D40000;}
	.st4{stroke:#000000;stroke-width:5;stroke-miterlimit:10;}
	.st5{stroke:#000000;stroke-width:1.4295;}
</style></svg>
