<?xml version="1.0" encoding="UTF-8" standalone="no"?>
<!-- Created with Inkscape (http://www.inkscape.org/) -->

<svg
   width="106.18563mm"
   height="106.18558mm"
   viewBox="0 0 106.18563 106.18558"
   version="1.1"
   id="svg1"
   xml:space="preserve"
   sodipodi:docname="icon.svg"
   inkscape:version="1.4 (e7c3feb100, 2024-10-09)"
   xmlns:inkscape="http://www.inkscape.org/namespaces/inkscape"
   xmlns:sodipodi="http://sodipodi.sourceforge.net/DTD/sodipodi-0.dtd"
   xmlns="http://www.w3.org/2000/svg"
   xmlns:svg="http://www.w3.org/2000/svg"><sodipodi:namedview
     id="namedview1"
     pagecolor="#505050"
     bordercolor="#ffffff"
     borderopacity="1"
     inkscape:showpageshadow="0"
     inkscape:pageopacity="0"
     inkscape:pagecheckerboard="1"
     inkscape:deskcolor="#d1d1d1"
     inkscape:document-units="mm"
     inkscape:zoom="2.2250942"
     inkscape:cx="200.66566"
     inkscape:cy="200.66566"
     inkscape:window-width="1896"
     inkscape:window-height="1121"
     inkscape:window-x="10"
     inkscape:window-y="65"
     inkscape:window-maximized="1"
     inkscape:current-layer="svg1" /><defs
     id="defs1" /><path
     d="m 41.3641,55.864376 c 0,-0.11501 0,-0.28753 -0.058,-0.395407 -1.9552,-6.142458 -17.5971,-3.353405 -22.8302,-2.708897 -0.8051,0.09916 -5.1756,0.752436 -5.1756,-0.627724 0,-1.15014 2.8178,-3.56743 3.6229,-4.241656 9.8337,-8.514486 23.4053,-16.109172 35.7693,-17.63192 1.1501,-0.141646 4.313,-0.703708 4.313,1.079002 0,0.69008 -0.345,1.36515 -0.6326,1.975641 -1.4951,2.886956 -5.1181,5.633444 -7.7059,7.504837 -0.6901,0.487543 -1.4952,0.989249 -2.0702,1.577625 -0.5751,0.58839 -0.7476,1.069695 -0.7476,1.874795 0,0.57506 0.575,1.079313 1.1501,1.008484 0.5751,-0.07083 2.1853,-1.994342 2.8754,-2.539394 3.1053,-2.452698 9.9487,-7.60854 9.9487,-11.74904 0,-3.91047 -5.9808,-3.806456 -8.8561,-3.452334 -12.0765,1.487339 -27.0283,9.36703 -36.6894,17.515219 -2.2428,1.886422 -6.4408,5.796347 -6.4408,8.786707 0,4.19801 4.8881,3.711003 7.936,3.335624 4.083,-0.502861 8.1084,-1.573699 12.1914,-2.07656 1.8978,-0.233733 10.6388,-1.080243 10.6388,1.565077 0,0.28753 -0.1725,0.596315 -0.46,0.746734 -1.3227,0.680463 -3.2204,1.086704 -4.6006,1.544229 -3.9105,1.401726 -17.9997,6.472349 -17.9997,11.647969 0,2.70282 3.9105,2.968794 5.9808,2.713816 1.2651,-0.155809 2.4728,-0.477069 3.6804,-0.970837 6.7858,-2.733468 11.3864,-6.290437 15.4118,-12.594394 0.3451,-0.502563 0.4601,-0.631736 1.0352,-0.817585 1.8402,-0.629179 3.6804,-1.200868 5.5206,-1.715036 0.7476,-0.207085 1.5527,-0.363751 2.2428,-0.621263 0.4601,-0.171686 0.9201,-0.57338 0.9201,-1.09094 0,-0.92011 -1.1501,-1.008494 -1.8402,-0.923501 -2.3003,0.283305 -4.5431,1.134597 -6.8433,1.64792 z M 21.3517,70.865609 c -0.6325,0.0779 -2.9903,0.310785 -2.9903,-0.724355 0,-2.87534 15.2393,-9.122739 18.0571,-9.469779 l 0.8626,-0.106238 C 34.0608,65.332379 26.7574,70.199844 21.3517,70.865609 Z M 68.0422,48.265686 c -1.1501,3.534556 -2.5303,7.327481 -2.5303,10.950411 0,3.10537 1.3802,6.098265 4.9456,5.659151 5.7507,-0.708255 13.2841,-11.239717 16.3319,-15.755583 4.1405,-6.203123 11.5589,-17.755552 11.5589,-25.116432 0,-1.32266 -0.4025,-2.653248 -1.9552,-2.462018 -1.0926,0.134564 -1.6677,0.895474 -1.6677,1.930594 0,0.86261 0.115,1.308496 -0.23,2.271096 -3.2204,8.275074 -8.9136,18.924938 -14.7218,26.656114 -1.4952,2.024369 -6.6133,8.405403 -9.3161,8.738279 -3.6805,0.45329 0.8626,-13.045287 1.3226,-14.482101 0.1726,-0.596327 0.6326,-1.975641 0.6326,-2.550711 0,-0.8051 -0.7476,-1.633135 -1.6102,-1.526898 -1.9552,0.240802 -10.3512,10.418452 -15.4118,15.872294 -4.7731,5.188405 -3.7955,2.710223 -2.2428,-1.103947 2.4153,-5.760618 5.1181,-11.326624 8.5685,-16.697164 0.7476,-1.127205 3.0479,-3.365739 3.0479,-4.400869 0,-0.74759 -0.7476,-1.288086 -1.4377,-1.203093 -4.2555,0.524106 -15.4693,23.815325 -15.4693,28.300855 0,1.43768 0.7476,2.955796 2.3578,2.757484 1.2076,-0.148727 2.5878,-1.411343 3.4504,-2.26517 4.4855,-4.635424 8.856,-9.486713 13.1115,-14.32384 0.4026,-0.452124 0.8051,-0.846746 1.2652,-1.248452 z"
     id="text72"
     style="font-size:57.5069px;line-height:1.3;font-family:Sansilk;-inkscape-font-specification:'Sansilk, Normal';letter-spacing:0.224879px;fill:#111427;stroke:#f1e0c5;stroke-width:5.29167;stroke-linecap:square"
     aria-label="SW" /><g
     id="g62"
     transform="translate(-1652.1344,-332.37434)"><g
       id="g36"
       transform="matrix(0.50899972,0,0,0.50899972,984.29606,243.92601)"
       style="stroke:#f1e0c5;stroke-width:10.3962;stroke-linejoin:round;stroke-dasharray:none;stroke-opacity:1"><path
         id="path32"
         style="fill:#111427;fill-opacity:1;stroke:#f1e0c5;stroke-width:10.3962;stroke-linecap:round;stroke-linejoin:round;stroke-dasharray:none;stroke-opacity:1"
         d="m 1450.8534,303.40304 a 18.567308,18.567308 0 0 1 -18.5648,18.56731 18.567308,18.567308 0 0 1 0,-2.2e-4 v 6e-4 a 18.567308,18.567308 0 0 1 18.5673,18.55682 v 0.01 h 2e-4 a 18.567308,18.567308 0 0 1 18.5598,-18.56731 18.567308,18.567308 0 0 1 0.01,4.5e-4 v -6.1e-4 a 18.567308,18.567308 0 0 1 -18.5673,-18.5623 18.567308,18.567308 0 0 1 2e-4,-0.005 z" /><path
         id="path34"
         style="fill:#111427;fill-opacity:1;stroke:#f1e0c5;stroke-width:10.3962;stroke-linecap:round;stroke-linejoin:round;stroke-dasharray:none;stroke-opacity:1"
         d="m 1381.8764,303.40304 a 18.567308,18.567308 0 0 1 -18.5648,18.56731 18.567308,18.567308 0 0 1 0,-2.2e-4 v 6e-4 a 18.567308,18.567308 0 0 1 18.5674,18.55683 v 0.01 h 2e-4 a 18.567308,18.567308 0 0 1 18.5598,-18.56731 18.567308,18.567308 0 0 1 0.01,4.5e-4 v -6e-4 a 18.567308,18.567308 0 0 1 -18.5673,-18.5623 18.567308,18.567308 0 0 1 2e-4,-0.005 z" /><path
         id="path35"
         style="fill:#111427;fill-opacity:1;stroke:#f1e0c5;stroke-width:10.3962;stroke-linecap:round;stroke-linejoin:round;stroke-dasharray:none;stroke-opacity:1"
         d="m 1416.365,303.40304 a 18.567308,18.567308 0 0 1 -18.5648,18.56731 18.567308,18.567308 0 0 1 0,-2.2e-4 v 6e-4 a 18.567308,18.567308 0 0 1 18.5673,18.55682 v 0.01 h 2e-4 a 18.567308,18.567308 0 0 1 18.5598,-18.56731 18.567308,18.567308 0 0 1 0.01,4.5e-4 v -6.1e-4 a 18.567308,18.567308 0 0 1 -18.5673,-18.5623 18.567308,18.567308 0 0 1 2e-4,-0.005 z" /></g><g
       id="g60"
       transform="matrix(0.50899972,0,0,0.50899972,984.29606,243.92601)"><path
         id="path43"
         style="fill:#111427;fill-opacity:1;stroke-width:2.91817;stroke-linecap:round"
         d="m 1450.8534,303.40304 a 18.567308,18.567308 0 0 1 -18.5648,18.56731 18.567308,18.567308 0 0 1 0,-2.2e-4 v 6e-4 a 18.567308,18.567308 0 0 1 18.5673,18.55682 v 0.01 h 2e-4 a 18.567308,18.567308 0 0 1 18.5598,-18.56731 18.567308,18.567308 0 0 1 0.01,4.5e-4 v -6.1e-4 a 18.567308,18.567308 0 0 1 -18.5673,-18.5623 18.567308,18.567308 0 0 1 2e-4,-0.005 z" /><path
         id="path57"
         style="fill:#111427;fill-opacity:1;stroke-width:2.91817;stroke-linecap:round"
         d="m 1381.8764,303.40304 a 18.567308,18.567308 0 0 1 -18.5648,18.56731 18.567308,18.567308 0 0 1 0,-2.2e-4 v 6e-4 a 18.567308,18.567308 0 0 1 18.5674,18.55683 v 0.01 h 2e-4 a 18.567308,18.567308 0 0 1 18.5598,-18.56731 18.567308,18.567308 0 0 1 0.01,4.5e-4 v -6e-4 a 18.567308,18.567308 0 0 1 -18.5673,-18.5623 18.567308,18.567308 0 0 1 2e-4,-0.005 z" /><path
         id="path58"
         style="fill:#111427;fill-opacity:1;stroke-width:2.91817;stroke-linecap:round"
         d="m 1416.365,303.40304 a 18.567308,18.567308 0 0 1 -18.5648,18.56731 18.567308,18.567308 0 0 1 0,-2.2e-4 v 6e-4 a 18.567308,18.567308 0 0 1 18.5673,18.55682 v 0.01 h 2e-4 a 18.567308,18.567308 0 0 1 18.5598,-18.56731 18.567308,18.567308 0 0 1 0.01,4.5e-4 v -6.1e-4 a 18.567308,18.567308 0 0 1 -18.5673,-18.5623 18.567308,18.567308 0 0 1 2e-4,-0.005 z" /></g></g><path
     d="m 41.3641,55.864376 c 0,-0.11501 0,-0.28753 -0.058,-0.395407 -1.9552,-6.142458 -17.5971,-3.353405 -22.8302,-2.708897 -0.8051,0.09916 -5.1756,0.752436 -5.1756,-0.627724 0,-1.15014 2.8178,-3.56743 3.6229,-4.241656 9.8337,-8.514486 23.4053,-16.109172 35.7693,-17.63192 1.1501,-0.141646 4.313,-0.703708 4.313,1.079002 0,0.69008 -0.345,1.36515 -0.6326,1.975641 -1.4951,2.886956 -5.1181,5.633444 -7.7059,7.504837 -0.6901,0.487543 -1.4952,0.989249 -2.0702,1.577625 -0.5751,0.58839 -0.7476,1.069695 -0.7476,1.874795 0,0.57506 0.575,1.079313 1.1501,1.008484 0.5751,-0.07083 2.1853,-1.994342 2.8754,-2.539394 3.1053,-2.452698 9.9487,-7.60854 9.9487,-11.74904 0,-3.91047 -5.9808,-3.806456 -8.8561,-3.452334 -12.0765,1.487339 -27.0283,9.36703 -36.6894,17.515219 -2.2428,1.886422 -6.4408,5.796347 -6.4408,8.786707 0,4.19801 4.8881,3.711003 7.936,3.335624 4.083,-0.502861 8.1084,-1.573699 12.1914,-2.07656 1.8978,-0.233733 10.6388,-1.080243 10.6388,1.565077 0,0.28753 -0.1725,0.596315 -0.46,0.746734 -1.3227,0.680463 -3.2204,1.086704 -4.6006,1.544229 -3.9105,1.401726 -17.9997,6.472349 -17.9997,11.647969 0,2.70282 3.9105,2.968794 5.9808,2.713816 1.2651,-0.155809 2.4728,-0.477069 3.6804,-0.970837 6.7858,-2.733468 11.3864,-6.290437 15.4118,-12.594394 0.3451,-0.502563 0.4601,-0.631736 1.0352,-0.817585 1.8402,-0.629179 3.6804,-1.200868 5.5206,-1.715036 0.7476,-0.207085 1.5527,-0.363751 2.2428,-0.621263 0.4601,-0.171686 0.9201,-0.57338 0.9201,-1.09094 0,-0.92011 -1.1501,-1.008494 -1.8402,-0.923501 -2.3003,0.283305 -4.5431,1.134597 -6.8433,1.64792 z M 21.3517,70.865609 c -0.6325,0.0779 -2.9903,0.310785 -2.9903,-0.724355 0,-2.87534 15.2393,-9.122739 18.0571,-9.469779 l 0.8626,-0.106238 C 34.0608,65.332379 26.7574,70.199844 21.3517,70.865609 Z M 68.0422,48.265686 c -1.1501,3.534556 -2.5303,7.327481 -2.5303,10.950411 0,3.10537 1.3802,6.098265 4.9456,5.659151 5.7507,-0.708255 13.2841,-11.239717 16.3319,-15.755583 4.1405,-6.203123 11.5589,-17.755552 11.5589,-25.116432 0,-1.32266 -0.4025,-2.653248 -1.9552,-2.462018 -1.0926,0.134564 -1.6677,0.895474 -1.6677,1.930594 0,0.86261 0.115,1.308496 -0.23,2.271096 -3.2204,8.275074 -8.9136,18.924938 -14.7218,26.656114 -1.4952,2.024369 -6.6133,8.405403 -9.3161,8.738279 -3.6805,0.45329 0.8626,-13.045287 1.3226,-14.482101 0.1726,-0.596327 0.6326,-1.975641 0.6326,-2.550711 0,-0.8051 -0.7476,-1.633135 -1.6102,-1.526898 -1.9552,0.240802 -10.3512,10.418452 -15.4118,15.872294 -4.7731,5.188405 -3.7955,2.710223 -2.2428,-1.103947 2.4153,-5.760618 5.1181,-11.326624 8.5685,-16.697164 0.7476,-1.127205 3.0479,-3.365739 3.0479,-4.400869 0,-0.74759 -0.7476,-1.288086 -1.4377,-1.203093 -4.2555,0.524106 -15.4693,23.815325 -15.4693,28.300855 0,1.43768 0.7476,2.955796 2.3578,2.757484 1.2076,-0.148727 2.5878,-1.411343 3.4504,-2.26517 4.4855,-4.635424 8.856,-9.486713 13.1115,-14.32384 0.4026,-0.452124 0.8051,-0.846746 1.2652,-1.248452 z"
     id="text70"
     style="font-size:57.5069px;line-height:1.3;font-family:Sansilk;-inkscape-font-specification:'Sansilk, Normal';letter-spacing:0.224879px;fill:#111427;stroke-width:3.3732;stroke-linecap:square"
     aria-label="SW" /><style
     id="style2"
     type="text/css">
	.st0{fill-rule:evenodd;clip-rule:evenodd;fill:#FF0000;fill-opacity:0;}
	.st1{fill:#D40000;}
	.st2{opacity:0.4217;fill-rule:evenodd;clip-rule:evenodd;fill:#0000FF;enable-background:new    ;}
	.st3{fill-rule:evenodd;clip-rule:evenodd;fill:#D40000;}
	.st4{stroke:#000000;stroke-width:5;stroke-miterlimit:10;}
	.st5{stroke:#000000;stroke-width:1.4295;}
</style><style
     type="text/css"
     id="style2-6">
	.st0{fill-rule:evenodd;clip-rule:evenodd;fill:#FF0000;fill-opacity:0;}
	.st1{fill:#D40000;}
	.st2{opacity:0.4217;fill-rule:evenodd;clip-rule:evenodd;fill:#0000FF;enable-background:new    ;}
	.st3{fill-rule:evenodd;clip-rule:evenodd;fill:#D40000;}
	.st4{stroke:#000000;stroke-width:5;stroke-miterlimit:10;}
	.st5{stroke:#000000;stroke-width:1.4295;}
</style></svg>
