<?xml version="1.0" encoding="UTF-8" standalone="no"?>
<!-- Created with Inkscape (http://www.inkscape.org/) -->

<svg
   width="94.720825mm"
   height="35.983334mm"
   viewBox="0 0 94.720825 35.983334"
   version="1.1"
   id="svg1"
   xml:space="preserve"
   xmlns="http://www.w3.org/2000/svg"
   xmlns:svg="http://www.w3.org/2000/svg"><defs
     id="defs1" /><g
     id="layer1"
     transform="translate(138.60691,-929.57237)"><g
       id="g6"><rect
         style="opacity:0;fill:#6e8894;fill-opacity:1;stroke:none;stroke-width:5.44692;stroke-linecap:square;stroke-linejoin:round;stroke-dasharray:none;stroke-opacity:1;paint-order:markers stroke fill"
         id="rect5"
         width="94.720833"
         height="35.983334"
         x="-138.60692"
         y="929.57233" /><path
         d="m -105.86168,950.24103 v -5.35402 h 2.63876 q 0.89489,0 1.57561,0.32889 0.68072,0.32124 1.06315,0.91783 0.38243,0.59659 0.38243,1.42264 0,0.8337 -0.38243,1.43794 -0.38243,0.59659 -1.06315,0.92548 -0.68072,0.32124 -1.57561,0.32124 z m 1.80506,-1.40734 h 0.75721 q 0.38243,0 0.66543,-0.14533 0.29065,-0.14532 0.45127,-0.42832 0.16062,-0.29064 0.16062,-0.70367 0,-0.40537 -0.16062,-0.68837 -0.16062,-0.283 -0.45127,-0.42832 -0.283,-0.14532 -0.66543,-0.14532 h -0.75721 z m 5.022579,1.40734 v -5.35402 h 1.805068 v 5.35402 z m 6.001597,0.12238 q -0.657778,0 -1.216125,-0.20652 -0.550699,-0.20651 -0.956074,-0.58129 -0.405375,-0.38243 -0.634833,-0.89488 -0.221809,-0.51246 -0.221809,-1.1167 0,-0.61189 0.221809,-1.11669 0.229458,-0.51246 0.634833,-0.88724 0.405375,-0.38243 0.956074,-0.58894 0.558347,-0.20651 1.208477,-0.20651 0.657779,0 1.208477,0.20651 0.550699,0.20651 0.956074,0.58894 0.405375,0.37478 0.627184,0.88724 0.229458,0.5048 0.229458,1.11669 0,0.60424 -0.229458,1.1167 -0.221809,0.51245 -0.627184,0.89488 -0.405375,0.37478 -0.956074,0.58129 -0.550698,0.20652 -1.200829,0.20652 z m -0.0076,-1.46089 q 0.252403,0 0.466564,-0.0918 0.221809,-0.0918 0.382429,-0.26005 0.168269,-0.17592 0.260052,-0.42067 0.09178,-0.25241 0.09178,-0.566 0,-0.31359 -0.09178,-0.55835 -0.09178,-0.2524 -0.260052,-0.42067 -0.16062,-0.17592 -0.382429,-0.2677 -0.214161,-0.0918 -0.466564,-0.0918 -0.252404,0 -0.474213,0.0918 -0.21416,0.0918 -0.382429,0.2677 -0.160621,0.16827 -0.252404,0.42067 -0.09178,0.24476 -0.09178,0.55835 0,0.31359 0.09178,0.566 0.09178,0.24475 0.252404,0.42067 0.168269,0.16827 0.382429,0.26005 0.221809,0.0918 0.474213,0.0918 z m 6.965312,1.46089 q -0.65013,0 -1.200828,-0.19887 -0.54305,-0.20651 -0.948426,-0.58129 -0.397726,-0.37478 -0.619535,-0.88724 -0.221809,-0.51245 -0.221809,-1.13199 0,-0.61953 0.221809,-1.13199 0.221809,-0.51246 0.627184,-0.88724 0.405375,-0.37478 0.956074,-0.57364 0.558347,-0.20651 1.223774,-0.20651 0.795454,0 1.414989,0.2677 0.627185,0.2677 1.03256,0.76486 l -1.154937,1.01726 q -0.252404,-0.29065 -0.550699,-0.43597 -0.290646,-0.15297 -0.65013,-0.15297 -0.298295,0 -0.54305,0.0918 -0.237106,0.0918 -0.405375,0.2677 -0.168269,0.17592 -0.260052,0.42067 -0.09178,0.24476 -0.09178,0.55835 0,0.2983 0.09178,0.5507 0.09178,0.24475 0.260052,0.42067 0.168269,0.17592 0.397727,0.27535 0.237106,0.0918 0.527753,0.0918 0.305943,0 0.59659,-0.0994 0.290646,-0.10708 0.619535,-0.35948 l 1.009614,1.23907 q -0.48951,0.32889 -1.116694,0.50481 -0.627184,0.17592 -1.216126,0.17592 z m 0.764859,-0.91019 v -2.03452 h 1.567961 v 2.26398 z m 5.665049,0.91019 q -0.657779,0 -1.216126,-0.20652 -0.550699,-0.20651 -0.956074,-0.58129 -0.405375,-0.38243 -0.634833,-0.89488 -0.221809,-0.51246 -0.221809,-1.1167 0,-0.61189 0.221809,-1.11669 0.229458,-0.51246 0.634833,-0.88724 0.405375,-0.38243 0.956074,-0.58894 0.558347,-0.20651 1.208477,-0.20651 0.657779,0 1.208477,0.20651 0.550699,0.20651 0.956074,0.58894 0.405375,0.37478 0.627185,0.88724 0.229457,0.5048 0.229457,1.11669 0,0.60424 -0.229457,1.1167 -0.22181,0.51245 -0.627185,0.89488 -0.405375,0.37478 -0.956074,0.58129 -0.550698,0.20652 -1.200828,0.20652 z m -0.0076,-1.46089 q 0.252404,0 0.466564,-0.0918 0.221809,-0.0918 0.38243,-0.26005 0.168269,-0.17592 0.260052,-0.42067 0.09178,-0.25241 0.09178,-0.566 0,-0.31359 -0.09178,-0.55835 -0.09178,-0.2524 -0.260052,-0.42067 -0.160621,-0.17592 -0.38243,-0.2677 -0.21416,-0.0918 -0.466564,-0.0918 -0.252403,0 -0.474212,0.0918 -0.214161,0.0918 -0.38243,0.2677 -0.16062,0.16827 -0.252403,0.42067 -0.09178,0.24476 -0.09178,0.55835 0,0.31359 0.09178,0.566 0.09178,0.24475 0.252403,0.42067 0.168269,0.16827 0.38243,0.26005 0.221809,0.0918 0.474212,0.0918 z"
         id="text6"
         style="font-weight:900;font-size:7.64859px;line-height:1.2;font-family:Montserrat;-inkscape-font-specification:'Montserrat, Heavy';letter-spacing:0.509906px;fill:#f1e0c5;stroke-width:10.1981;stroke-linecap:square;stroke-linejoin:round;paint-order:markers stroke fill"
         aria-label="DIOGO" /></g></g><style
     id="style2"
     type="text/css">
	.st0{fill-rule:evenodd;clip-rule:evenodd;fill:#FF0000;fill-opacity:0;}
	.st1{fill:#D40000;}
	.st2{opacity:0.4217;fill-rule:evenodd;clip-rule:evenodd;fill:#0000FF;enable-background:new    ;}
	.st3{fill-rule:evenodd;clip-rule:evenodd;fill:#D40000;}
	.st4{stroke:#000000;stroke-width:5;stroke-miterlimit:10;}
	.st5{stroke:#000000;stroke-width:1.4295;}
</style><style
     type="text/css"
     id="style2-6">
	.st0{fill-rule:evenodd;clip-rule:evenodd;fill:#FF0000;fill-opacity:0;}
	.st1{fill:#D40000;}
	.st2{opacity:0.4217;fill-rule:evenodd;clip-rule:evenodd;fill:#0000FF;enable-background:new    ;}
	.st3{fill-rule:evenodd;clip-rule:evenodd;fill:#D40000;}
	.st4{stroke:#000000;stroke-width:5;stroke-miterlimit:10;}
	.st5{stroke:#000000;stroke-width:1.4295;}
</style></svg>
