<?xml version="1.0" encoding="UTF-8" standalone="no"?>
<!-- Created with Inkscape (http://www.inkscape.org/) -->

<svg
   width="121.4403mm"
   height="121.71434mm"
   viewBox="0 0 121.4403 121.71434"
   version="1.1"
   id="svg1"
   xml:space="preserve"
   xmlns="http://www.w3.org/2000/svg"
   xmlns:svg="http://www.w3.org/2000/svg"><defs
     id="defs1" /><g
     id="layer1"
     transform="translate(289.0629,-808.54762)"><g
       id="g113"><rect
         style="fill:none;fill-opacity:1;stroke:none;stroke-width:7.5104;stroke-linecap:square;stroke-linejoin:round;paint-order:markers stroke fill"
         id="rect112"
         width="121.44031"
         height="121.44031"
         x="-289.06293"
         y="808.68463" /><g
         id="g94"
         style="fill:#f1e0c5;fill-opacity:1"><g
           id="g88"
           transform="matrix(0.46069489,0,0,0.46069489,-233.57879,751.4523)"
           style="fill:#f1e0c5;fill-opacity:1"><path
             id="path83"
             style="opacity:1;fill:#f1e0c5;fill-opacity:1;fill-rule:evenodd;stroke:none;stroke-width:3.72589;stroke-miterlimit:4;stroke-dasharray:none"
             d="m 42.955078,468.4082 -67.25,116.48242 -7.875,13.63868 H 2.0195312 17.835938 68.074219 89.904297 118.08203 l -7.875,-13.63868 z m -99.03125,171.5293 -35.470703,61.43555 h 50.005859 l 11.5625,-20.02735 H 115.88867 l 11.5625,20.02735 h 50.00586 L 141.98828,639.9375 H 91.980469 -6.0703125 Z"
             transform="scale(0.26458333)" /><path
             id="path84"
             style="opacity:1;fill:#f1e0c5;fill-opacity:1;fill-rule:evenodd;stroke:none;stroke-width:7.47968;stroke-miterlimit:4;stroke-dasharray:none"
             d="M -91.546875,742.78125 V 1037.1426 H 177.45703 V 742.78125 Z m 41.408203,41.4082 h 33.470703 v 211.54493 h -33.470703 z m 74.878906,0 H 61.169922 V 995.73438 H 24.740234 Z m 77.837886,0 h 33.47071 v 211.54493 h -33.47071 z"
             transform="scale(0.26458333)" /><path
             id="path85"
             style="opacity:1;fill:#f1e0c5;fill-opacity:1;fill-rule:evenodd;stroke:none;stroke-width:1.979;stroke-miterlimit:4;stroke-dasharray:none"
             d="m -24.221777,285.36656 v 25.54674 c 0,8.37597 6.743022,15.11898 15.1189735,15.11898 H 31.833198 c 8.375951,0 15.118974,-6.74301 15.118974,-15.11898 v -25.54674 h -10.95592 v 23.09884 c 0,3.66239 -2.948072,6.61096 -6.61045,6.61096 H -6.6548909 c -3.6623771,0 -6.6109661,-2.94857 -6.6109661,-6.61096 v -23.09884 z" /><path
             style="fill:#f1e0c5;fill-opacity:1;stroke:none;stroke-width:0.264583px;stroke-linecap:butt;stroke-linejoin:miter;stroke-opacity:1"
             d="m -20.312484,285.36656 h 60.937453 l 0.801806,10.95592 h -59.601103 z"
             id="path86" /></g><path
           d="m -206.90058,841.99172 v 35.87999 c 4.71466,3.07848 8.63828,7.22342 11.45408,12.0995 3.14779,-5.45163 4.80572,-11.6355 4.80746,-17.93068 0.64103,-12.24809 -5.50648,-23.54342 -16.26154,-30.04881 z m 5.06687,12.09953 c 4.85795,6.30883 6.75766,13.96561 5.15162,23.78046 -1.00621,-2.41681 -3.46685,-4.47122 -5.15162,-5.99707 z"
           style="fill:#f1e0c5;fill-opacity:1;fill-rule:evenodd;stroke:none;stroke-width:3.79526;stroke-miterlimit:4;stroke-dasharray:none"
           id="path88" /><path
           id="path89"
           style="fill:#f1e0c5;fill-opacity:1;fill-rule:evenodd;stroke:none;stroke-width:3.79526;stroke-miterlimit:4;stroke-dasharray:none"
           d="m -249.78498,841.99154 v 35.87999 c -4.71465,3.07848 -8.63828,7.22342 -11.45408,12.0995 -3.14779,-5.45163 -4.80571,-11.6355 -4.80745,-17.93068 -0.64104,-12.24809 5.50648,-23.54342 16.26153,-30.04881 z m -5.06687,12.09953 c -4.85795,6.30883 -6.75765,13.96561 -5.15162,23.78046 1.00621,-2.41681 3.46685,-4.47122 5.15162,-5.99707 z" /><g
           transform="translate(-342.22967,780.73663)"
           id="g91"
           style="fill:#f1e0c5;fill-opacity:1;stroke:none"><path
             style="color:#000000;font-style:normal;font-variant:normal;font-weight:normal;font-stretch:normal;font-size:medium;line-height:normal;font-family:sans-serif;font-variant-ligatures:normal;font-variant-position:normal;font-variant-caps:normal;font-variant-numeric:normal;font-variant-alternates:normal;font-variant-east-asian:normal;font-feature-settings:normal;font-variation-settings:normal;text-indent:0;text-align:start;text-decoration:none;text-decoration-line:none;text-decoration-style:solid;text-decoration-color:#000000;letter-spacing:normal;word-spacing:normal;text-transform:none;writing-mode:lr-tb;direction:ltr;text-orientation:mixed;dominant-baseline:auto;baseline-shift:baseline;text-anchor:start;white-space:normal;shape-padding:0;shape-margin:0;inline-size:0;clip-rule:nonzero;display:inline;overflow:visible;visibility:visible;isolation:auto;mix-blend-mode:normal;color-interpolation:sRGB;color-interpolation-filters:linearRGB;solid-color:#000000;solid-opacity:1;vector-effect:none;fill:#f1e0c5;fill-opacity:1;fill-rule:nonzero;stroke:none;stroke-width:1.76389;stroke-linecap:butt;stroke-linejoin:miter;stroke-miterlimit:10;stroke-dasharray:none;stroke-dashoffset:0;stroke-opacity:1;color-rendering:auto;image-rendering:auto;shape-rendering:auto;text-rendering:auto;enable-background:accumulate;stop-color:#000000;stop-opacity:1"
             d="m 118.08721,140.71108 c 1.74625,0.10584 3.46604,0.23813 5.15937,0.44979 l 3.62479,-3.62479 5.37105,5.37104 c 3.25437,0.87313 6.27062,1.98438 8.94291,3.28084 l -11.48291,-11.45646 7.85812,-7.88458 h -5.63562 l -5.02709,5.05354 -5.02708,-5.05354 h -5.63563 l 7.85813,7.88458 z"
             id="path90" /><path
             style="color:#000000;font-style:normal;font-variant:normal;font-weight:normal;font-stretch:normal;font-size:medium;line-height:normal;font-family:sans-serif;font-variant-ligatures:normal;font-variant-position:normal;font-variant-caps:normal;font-variant-numeric:normal;font-variant-alternates:normal;font-variant-east-asian:normal;font-feature-settings:normal;font-variation-settings:normal;text-indent:0;text-align:start;text-decoration:none;text-decoration-line:none;text-decoration-style:solid;text-decoration-color:#000000;letter-spacing:normal;word-spacing:normal;text-transform:none;writing-mode:lr-tb;direction:ltr;text-orientation:mixed;dominant-baseline:auto;baseline-shift:baseline;text-anchor:start;white-space:normal;shape-padding:0;shape-margin:0;inline-size:0;clip-rule:nonzero;display:inline;overflow:visible;visibility:visible;isolation:auto;mix-blend-mode:normal;color-interpolation:sRGB;color-interpolation-filters:linearRGB;solid-color:#000000;solid-opacity:1;vector-effect:none;fill:#f1e0c5;fill-opacity:1;fill-rule:nonzero;stroke:none;stroke-width:1.76389;stroke-linecap:butt;stroke-linejoin:miter;stroke-miterlimit:10;stroke-dasharray:none;stroke-dashoffset:0;stroke-opacity:1;color-rendering:auto;image-rendering:auto;shape-rendering:auto;text-rendering:auto;enable-background:accumulate;stop-color:#000000;stop-opacity:1"
             d="m 114.11133,125.96484 8.73437,8.76368 -6.77343,6.74414 1.96093,0.11914 c 1.73686,0.10527 3.43824,0.2352 5.10352,0.44336 l 0.42773,0.0547 3.30664,-3.30664 4.91407,4.91407 0.22851,0.0625 c 3.20521,0.85994 6.17124,1.95356 8.78711,3.22265 l 4.72852,2.29297 -14.58008,-14.54492 8.73633,-8.76563 h -8.12696 l -4.66015,4.68555 -4.66016,-4.68555 z m 4.24805,1.76368 h 3.14453 l 5.39453,5.42187 5.39258,-5.42187 h 3.14453 l -6.98047,7.0039 9.27344,9.25196 c -1.64512,-0.63185 -3.18979,-1.33971 -4.9961,-1.83399 l -5.86133,-5.86133 -3.95703,3.95703 c -0.94545,-0.1106 -1.90364,-0.17674 -2.85937,-0.25 l 5.28711,-5.26171 z"
             id="path91" /></g><g
           style="fill:#f1e0c5;fill-opacity:1;stroke:none"
           id="g93"
           transform="translate(-342.22967,780.76194)"><path
             id="path92"
             d="m 86.681171,146.32025 c 2.67229,-1.32292 5.715,-2.43417 8.99583,-3.33375 l 5.476869,-5.47688 3.70417,3.70417 c 1.69333,-0.21167 3.41313,-0.37042 5.15938,-0.44979 l -6.05896,-6.05896 7.85812,-7.88458 h -5.63562 l -5.02709,5.05354 -5.027079,-5.05354 h -5.66208 l 7.85812,7.88458 z"
             style="color:#000000;font-style:normal;font-variant:normal;font-weight:normal;font-stretch:normal;font-size:medium;line-height:normal;font-family:sans-serif;font-variant-ligatures:normal;font-variant-position:normal;font-variant-caps:normal;font-variant-numeric:normal;font-variant-alternates:normal;font-variant-east-asian:normal;font-feature-settings:normal;font-variation-settings:normal;text-indent:0;text-align:start;text-decoration:none;text-decoration-line:none;text-decoration-style:solid;text-decoration-color:#000000;letter-spacing:normal;word-spacing:normal;text-transform:none;writing-mode:lr-tb;direction:ltr;text-orientation:mixed;dominant-baseline:auto;baseline-shift:baseline;text-anchor:start;white-space:normal;shape-padding:0;shape-margin:0;inline-size:0;clip-rule:nonzero;display:inline;overflow:visible;visibility:visible;isolation:auto;mix-blend-mode:normal;color-interpolation:sRGB;color-interpolation-filters:linearRGB;solid-color:#000000;solid-opacity:1;vector-effect:none;fill:#f1e0c5;fill-opacity:1;fill-rule:nonzero;stroke:none;stroke-width:1.76389;stroke-linecap:butt;stroke-linejoin:miter;stroke-miterlimit:10;stroke-dasharray:none;stroke-dashoffset:0;stroke-opacity:1;color-rendering:auto;image-rendering:auto;shape-rendering:auto;text-rendering:auto;enable-background:accumulate;stop-color:#000000;stop-opacity:1" /><path
             id="path93"
             d="m 88.339844,125.93945 8.736328,8.76367 -14.832031,14.79688 4.828125,-2.38867 c 2.609726,-1.29195 5.601581,-2.38607 8.83789,-3.27344 l 0.22461,-0.0625 5.017574,-5.01758 3.38672,3.38477 0.42774,-0.0527 c 1.67425,-0.20928 3.37064,-0.36717 5.08984,-0.44531 l 1.99805,-0.0898 -6.84961,-6.85157 8.73633,-8.76367 h -8.12696 l -4.66015,4.6836 -4.660159,-4.6836 z m 4.25,1.76367 h 3.169922 l 5.394534,5.42188 5.39258,-5.42188 h 3.14453 l -6.97852,7.00391 5.34375,5.34375 c -0.95952,0.0745 -1.92403,0.13579 -2.86523,0.24805 l -4.03711,-4.03711 -5.970706,5.9707 c -1.816864,0.5069 -3.367199,1.22249 -5.021485,1.86133 l 9.408203,-9.38672 z"
             style="color:#000000;font-style:normal;font-variant:normal;font-weight:normal;font-stretch:normal;font-size:medium;line-height:normal;font-family:sans-serif;font-variant-ligatures:normal;font-variant-position:normal;font-variant-caps:normal;font-variant-numeric:normal;font-variant-alternates:normal;font-variant-east-asian:normal;font-feature-settings:normal;font-variation-settings:normal;text-indent:0;text-align:start;text-decoration:none;text-decoration-line:none;text-decoration-style:solid;text-decoration-color:#000000;letter-spacing:normal;word-spacing:normal;text-transform:none;writing-mode:lr-tb;direction:ltr;text-orientation:mixed;dominant-baseline:auto;baseline-shift:baseline;text-anchor:start;white-space:normal;shape-padding:0;shape-margin:0;inline-size:0;clip-rule:nonzero;display:inline;overflow:visible;visibility:visible;isolation:auto;mix-blend-mode:normal;color-interpolation:sRGB;color-interpolation-filters:linearRGB;solid-color:#000000;solid-opacity:1;vector-effect:none;fill:#f1e0c5;fill-opacity:1;fill-rule:nonzero;stroke:none;stroke-width:1.76389;stroke-linecap:butt;stroke-linejoin:miter;stroke-miterlimit:10;stroke-dasharray:none;stroke-dashoffset:0;stroke-opacity:1;color-rendering:auto;image-rendering:auto;shape-rendering:auto;text-rendering:auto;enable-background:accumulate;stop-color:#000000;stop-opacity:1" /></g></g></g></g><style
     id="style2"
     type="text/css">
	.st0{fill-rule:evenodd;clip-rule:evenodd;fill:#FF0000;fill-opacity:0;}
	.st1{fill:#D40000;}
	.st2{opacity:0.4217;fill-rule:evenodd;clip-rule:evenodd;fill:#0000FF;enable-background:new    ;}
	.st3{fill-rule:evenodd;clip-rule:evenodd;fill:#D40000;}
	.st4{stroke:#000000;stroke-width:5;stroke-miterlimit:10;}
	.st5{stroke:#000000;stroke-width:1.4295;}
</style><style
     type="text/css"
     id="style2-6">
	.st0{fill-rule:evenodd;clip-rule:evenodd;fill:#FF0000;fill-opacity:0;}
	.st1{fill:#D40000;}
	.st2{opacity:0.4217;fill-rule:evenodd;clip-rule:evenodd;fill:#0000FF;enable-background:new    ;}
	.st3{fill-rule:evenodd;clip-rule:evenodd;fill:#D40000;}
	.st4{stroke:#000000;stroke-width:5;stroke-miterlimit:10;}
	.st5{stroke:#000000;stroke-width:1.4295;}
</style></svg>
