<?xml version="1.0" encoding="UTF-8" standalone="no"?>
<!-- Created with Inkscape (http://www.inkscape.org/) -->

<svg
   width="23.207886mm"
   height="23.209986mm"
   viewBox="0 0 23.207886 23.209986"
   version="1.1"
   id="svg1"
   xml:space="preserve"
   xmlns="http://www.w3.org/2000/svg"
   xmlns:svg="http://www.w3.org/2000/svg"><defs
     id="defs1" /><g
     id="layer1"
     transform="translate(1186.299,-442.80892)"><g
       id="g178"><rect
         style="fill:none;fill-opacity:1;stroke:none;stroke-width:12.4552;stroke-linecap:round;stroke-linejoin:round;stroke-dasharray:none;stroke-opacity:1;paint-order:markers stroke fill"
         id="rect177"
         width="23.207928"
         height="23.207928"
         x="-1186.2991"
         y="442.80994" /><path
         id="path177"
         style="fill:#f1e0c5;fill-opacity:1;stroke-width:0.0719471"
         d="m -1185.152,442.81061 c -0.023,-0.003 -0.037,-0.002 -0.042,0.003 -0.024,0.0254 -0.1592,1.48219 -0.255,2.74698 -0.1874,2.47177 -0.2129,4.56643 -0.066,5.42526 0.039,0.22584 0.1513,0.65253 0.259,0.98036 0.3535,1.07631 0.9155,2.08044 1.6781,2.99817 0.2232,0.26861 0.8584,0.90638 1.1165,1.12101 0.4073,0.3387 0.8986,0.6851 1.3135,0.92599 0.2144,0.1245 1.0435,0.54189 1.0764,0.54189 0.039,0 0.011,0.0284 -0.2579,0.26662 -0.7665,0.67843 -1.5482,1.49106 -2.1973,2.28421 -0.6219,0.75981 -1.1233,1.57368 -1.3977,2.26841 -0.3552,0.89966 -0.3836,1.70968 -0.082,2.34593 0.2208,0.46592 0.4918,0.72717 1.01,0.97321 0.3647,0.17317 0.729,0.27413 1.1254,0.31194 0.2173,0.0207 0.7393,0.0202 0.9994,-8.5e-4 1.006,-0.0819 2.2216,-0.40363 3.5502,-0.93964 0.5324,-0.21481 1.4613,-0.65697 2.2124,-1.05308 l 0.4039,-0.21305 0.01,0.004 0.01,-0.004 0.4039,0.21305 c 0.7511,0.39611 1.68,0.83827 2.2124,1.05308 1.3286,0.53601 2.5442,0.85773 3.5502,0.93964 0.2601,0.0211 0.7821,0.0217 0.9994,8.5e-4 0.3964,-0.0378 0.7607,-0.13877 1.1254,-0.31194 0.5181,-0.24604 0.7892,-0.50729 1.0099,-0.97321 0.3014,-0.63625 0.273,-1.44627 -0.082,-2.34593 -0.2743,-0.69473 -0.7757,-1.5086 -1.3976,-2.26841 -0.6491,-0.79315 -1.4309,-1.60578 -2.1973,-2.28421 -0.2691,-0.23817 -0.2966,-0.26662 -0.2579,-0.26662 0.033,0 0.862,-0.41739 1.0764,-0.54189 0.4149,-0.24089 0.9062,-0.58729 1.3135,-0.92599 0.2581,-0.21463 0.8933,-0.8524 1.1165,-1.12101 0.7625,-0.91773 1.3246,-1.92186 1.6781,-2.99817 0.1077,-0.32783 0.2204,-0.75452 0.259,-0.98036 0.1468,-0.85883 0.1214,-2.95349 -0.066,-5.42526 -0.096,-1.26479 -0.2311,-2.72161 -0.255,-2.74698 -0.034,-0.0363 -0.7164,0.17031 -1.1755,0.35598 -1.3815,0.55867 -3.5584,1.81591 -6.0781,3.5103 -0.6594,0.44334 -1.6052,1.09984 -2.1035,1.45996 -0.1571,0.11351 -0.3455,0.24921 -0.4188,0.30154 -0.073,0.0523 -0.2575,0.18622 -0.4093,0.29755 -0.1518,0.11132 -0.2863,0.20868 -0.2989,0.21634 -9e-4,4.2e-4 -0.01,-0.006 -0.012,-0.006 0,1.5e-4 -0.011,0.007 -0.012,0.006 -0.013,-0.008 -0.1472,-0.10502 -0.299,-0.21634 -0.1518,-0.11133 -0.336,-0.24522 -0.4093,-0.29755 -0.073,-0.0523 -0.2617,-0.18803 -0.4188,-0.30154 -0.4982,-0.36012 -1.4441,-1.01662 -2.1035,-1.45996 -2.5197,-1.69439 -4.6966,-2.95163 -6.078,-3.5103 -0.4018,-0.16245 -0.9743,-0.34095 -1.1341,-0.35874 z" /></g></g><style
     id="style2"
     type="text/css">
	.st0{fill-rule:evenodd;clip-rule:evenodd;fill:#FF0000;fill-opacity:0;}
	.st1{fill:#D40000;}
	.st2{opacity:0.4217;fill-rule:evenodd;clip-rule:evenodd;fill:#0000FF;enable-background:new    ;}
	.st3{fill-rule:evenodd;clip-rule:evenodd;fill:#D40000;}
	.st4{stroke:#000000;stroke-width:5;stroke-miterlimit:10;}
	.st5{stroke:#000000;stroke-width:1.4295;}
</style><style
     type="text/css"
     id="style2-6">
	.st0{fill-rule:evenodd;clip-rule:evenodd;fill:#FF0000;fill-opacity:0;}
	.st1{fill:#D40000;}
	.st2{opacity:0.4217;fill-rule:evenodd;clip-rule:evenodd;fill:#0000FF;enable-background:new    ;}
	.st3{fill-rule:evenodd;clip-rule:evenodd;fill:#D40000;}
	.st4{stroke:#000000;stroke-width:5;stroke-miterlimit:10;}
	.st5{stroke:#000000;stroke-width:1.4295;}
</style></svg>
