<?xml version="1.0" encoding="UTF-8" standalone="no"?>
<!-- Created with Inkscape (http://www.inkscape.org/) -->

<svg
   width="52.018997mm"
   height="52.019051mm"
   viewBox="0 0 52.018997 52.019051"
   version="1.1"
   id="svg1"
   xml:space="preserve"
   xmlns="http://www.w3.org/2000/svg"
   xmlns:svg="http://www.w3.org/2000/svg"><defs
     id="defs1" /><g
     id="layer1"
     transform="translate(-128.03568,-979.42908)"><g
       transform="matrix(0.21697186,0,0,0.21697186,90.676766,838.12883)"
       id="g3136"
       style="fill:#f1e0c5;fill-opacity:1"><path
         id="path3132"
         style="fill:#f1e0c5;fill-opacity:1;fill-rule:evenodd;stroke:none;stroke-width:1.11803;stroke-linecap:round;stroke-miterlimit:4;stroke-dasharray:none"
         d="m 240.6832,719.73762 v 34.24997 34.25 34.25 h 34.25 v -34.25 -8.5625 h 34.25 v -17.125 h -34.25 v -8.5625 -34.24997 z m 68.5,42.81247 h 34.25 v -42.81247 h -34.25 z m 0,17.125 v 42.8125 h 34.25 v -42.8125 z" /><path
         id="path3134"
         style="fill:#f1e0c5;fill-opacity:1;fill-rule:evenodd;stroke:none;stroke-width:1;stroke-linecap:round;stroke-miterlimit:4;stroke-dasharray:none"
         d="m 172.1832,651.23762 v 34.25 34.25 34.24997 34.25 34.25 34.25 17.125 h 17.125 v 17.125 h 17.125 171.25 34.25 v -34.25 -34.25 -34.25 -34.25 -34.24997 -34.25 -17.125 h -17.125 v -17.125 h -17.125 -171.25 z m 34.25,34.25 h 171.25 v 34.25 34.24997 34.25 34.25 34.25 h -171.25 v -34.25 -34.25 -34.25 -34.24997 z" /></g></g></svg>
