<?xml version="1.0" encoding="UTF-8" standalone="no"?>
<!-- Created with Inkscape (http://www.inkscape.org/) -->

<svg
   width="96.362595mm"
   height="96.362595mm"
   viewBox="0 0 96.362595 96.362595"
   version="1.1"
   id="svg1"
   xml:space="preserve"
   xmlns="http://www.w3.org/2000/svg"
   xmlns:svg="http://www.w3.org/2000/svg"><defs
     id="defs1" /><g
     id="layer1"
     transform="translate(-1952.7668,-549.42883)"><g
       id="g105"><rect
         style="opacity:1;fill:none;fill-opacity:1;stroke-width:5.92724;stroke-linecap:square;stroke-linejoin:round;paint-order:markers stroke fill"
         id="rect3"
         width="96.36264"
         height="96.36264"
         x="1952.7668"
         y="549.42877" /><g
         id="g104"
         transform="translate(147.41617,-0.32260263)"><text
           xml:space="preserve"
           style="font-style:normal;font-variant:normal;font-weight:normal;font-stretch:normal;font-size:57.5069px;line-height:1.3;font-family:Sansilk;-inkscape-font-specification:'Sansilk, Normal';font-variant-ligatures:normal;font-variant-caps:normal;font-variant-numeric:normal;font-variant-east-asian:normal;text-align:start;letter-spacing:0.224879px;writing-mode:lr-tb;direction:ltr;text-anchor:start;fill:#111427;fill-opacity:1;stroke:#f1e0c5;stroke-width:5.29167;stroke-linecap:square;stroke-dasharray:none;stroke-opacity:1"
           x="1808.2191"
           y="843.0097"
           id="text3"
           transform="skewY(-7.0211793)"><tspan
             id="tspan3"
             style="font-style:normal;font-variant:normal;font-weight:normal;font-stretch:normal;font-size:57.5069px;font-family:Sansilk;-inkscape-font-specification:'Sansilk, Normal';font-variant-ligatures:normal;font-variant-caps:normal;font-variant-numeric:normal;font-variant-east-asian:normal;fill:#111427;fill-opacity:1;stroke:#f1e0c5;stroke-width:5.29167;stroke-dasharray:none;stroke-opacity:1"
             x="1808.2191"
             y="843.0097">SW</tspan></text><g
           id="g103"
           transform="translate(148.30462,212.46554)"><g
             id="g89"
             transform="matrix(0.50899972,0,0,0.50899972,984.29606,243.92601)"
             style="stroke:#f1e0c5;stroke-width:10.3962;stroke-linejoin:round;stroke-dasharray:none;stroke-opacity:1"><path
               id="path67"
               style="fill:#111427;fill-opacity:1;stroke:#f1e0c5;stroke-width:10.3962;stroke-linecap:round;stroke-linejoin:round;stroke-dasharray:none;stroke-opacity:1"
               d="m 1450.8534,303.40304 a 18.567308,18.567308 0 0 1 -18.5648,18.56731 18.567308,18.567308 0 0 1 0,-2.2e-4 v 6e-4 a 18.567308,18.567308 0 0 1 18.5673,18.55682 v 0.01 h 2e-4 a 18.567308,18.567308 0 0 1 18.5598,-18.56731 18.567308,18.567308 0 0 1 0.01,4.5e-4 v -6.1e-4 a 18.567308,18.567308 0 0 1 -18.5673,-18.5623 18.567308,18.567308 0 0 1 2e-4,-0.005 z" /><path
               id="path71"
               style="fill:#111427;fill-opacity:1;stroke:#f1e0c5;stroke-width:10.3962;stroke-linecap:round;stroke-linejoin:round;stroke-dasharray:none;stroke-opacity:1"
               d="m 1381.8764,303.40304 a 18.567308,18.567308 0 0 1 -18.5648,18.56731 18.567308,18.567308 0 0 1 0,-2.2e-4 v 6e-4 a 18.567308,18.567308 0 0 1 18.5674,18.55683 v 0.01 h 2e-4 a 18.567308,18.567308 0 0 1 18.5598,-18.56731 18.567308,18.567308 0 0 1 0.01,4.5e-4 v -6e-4 a 18.567308,18.567308 0 0 1 -18.5673,-18.5623 18.567308,18.567308 0 0 1 2e-4,-0.005 z" /><path
               id="path87"
               style="fill:#111427;fill-opacity:1;stroke:#f1e0c5;stroke-width:10.3962;stroke-linecap:round;stroke-linejoin:round;stroke-dasharray:none;stroke-opacity:1"
               d="m 1416.365,303.40304 a 18.567308,18.567308 0 0 1 -18.5648,18.56731 18.567308,18.567308 0 0 1 0,-2.2e-4 v 6e-4 a 18.567308,18.567308 0 0 1 18.5673,18.55682 v 0.01 h 2e-4 a 18.567308,18.567308 0 0 1 18.5598,-18.56731 18.567308,18.567308 0 0 1 0.01,4.5e-4 v -6.1e-4 a 18.567308,18.567308 0 0 1 -18.5673,-18.5623 18.567308,18.567308 0 0 1 2e-4,-0.005 z" /></g><g
             id="g102"
             transform="matrix(0.50899972,0,0,0.50899972,984.29606,243.92601)"><path
               id="path97"
               style="fill:#111427;fill-opacity:1;stroke-width:2.91817;stroke-linecap:round"
               d="m 1450.8534,303.40304 a 18.567308,18.567308 0 0 1 -18.5648,18.56731 18.567308,18.567308 0 0 1 0,-2.2e-4 v 6e-4 a 18.567308,18.567308 0 0 1 18.5673,18.55682 v 0.01 h 2e-4 a 18.567308,18.567308 0 0 1 18.5598,-18.56731 18.567308,18.567308 0 0 1 0.01,4.5e-4 v -6.1e-4 a 18.567308,18.567308 0 0 1 -18.5673,-18.5623 18.567308,18.567308 0 0 1 2e-4,-0.005 z" /><path
               id="path98"
               style="fill:#111427;fill-opacity:1;stroke-width:2.91817;stroke-linecap:round"
               d="m 1381.8764,303.40304 a 18.567308,18.567308 0 0 1 -18.5648,18.56731 18.567308,18.567308 0 0 1 0,-2.2e-4 v 6e-4 a 18.567308,18.567308 0 0 1 18.5674,18.55683 v 0.01 h 2e-4 a 18.567308,18.567308 0 0 1 18.5598,-18.56731 18.567308,18.567308 0 0 1 0.01,4.5e-4 v -6e-4 a 18.567308,18.567308 0 0 1 -18.5673,-18.5623 18.567308,18.567308 0 0 1 2e-4,-0.005 z" /><path
               id="path102"
               style="fill:#111427;fill-opacity:1;stroke-width:2.91817;stroke-linecap:round"
               d="m 1416.365,303.40304 a 18.567308,18.567308 0 0 1 -18.5648,18.56731 18.567308,18.567308 0 0 1 0,-2.2e-4 v 6e-4 a 18.567308,18.567308 0 0 1 18.5673,18.55682 v 0.01 h 2e-4 a 18.567308,18.567308 0 0 1 18.5598,-18.56731 18.567308,18.567308 0 0 1 0.01,4.5e-4 v -6.1e-4 a 18.567308,18.567308 0 0 1 -18.5673,-18.5623 18.567308,18.567308 0 0 1 2e-4,-0.005 z" /></g></g><text
           xml:space="preserve"
           style="font-style:normal;font-variant:normal;font-weight:normal;font-stretch:normal;font-size:57.5069px;line-height:1.3;font-family:Sansilk;-inkscape-font-specification:'Sansilk, Normal';font-variant-ligatures:normal;font-variant-caps:normal;font-variant-numeric:normal;font-variant-east-asian:normal;text-align:start;letter-spacing:0.224879px;writing-mode:lr-tb;direction:ltr;text-anchor:start;fill:#111427;fill-opacity:1;stroke-width:3.3732;stroke-linecap:square"
           x="1808.2191"
           y="843.0097"
           id="text103"
           transform="skewY(-7.0211793)"><tspan
             id="tspan103"
             style="font-style:normal;font-variant:normal;font-weight:normal;font-stretch:normal;font-size:57.5069px;font-family:Sansilk;-inkscape-font-specification:'Sansilk, Normal';font-variant-ligatures:normal;font-variant-caps:normal;font-variant-numeric:normal;font-variant-east-asian:normal;fill:#111427;fill-opacity:1;stroke-width:3.3732"
             x="1808.2191"
             y="843.0097">SW</tspan></text></g></g></g><style
     id="style2"
     type="text/css">
	.st0{fill-rule:evenodd;clip-rule:evenodd;fill:#FF0000;fill-opacity:0;}
	.st1{fill:#D40000;}
	.st2{opacity:0.4217;fill-rule:evenodd;clip-rule:evenodd;fill:#0000FF;enable-background:new    ;}
	.st3{fill-rule:evenodd;clip-rule:evenodd;fill:#D40000;}
	.st4{stroke:#000000;stroke-width:5;stroke-miterlimit:10;}
	.st5{stroke:#000000;stroke-width:1.4295;}
</style><style
     type="text/css"
     id="style2-6">
	.st0{fill-rule:evenodd;clip-rule:evenodd;fill:#FF0000;fill-opacity:0;}
	.st1{fill:#D40000;}
	.st2{opacity:0.4217;fill-rule:evenodd;clip-rule:evenodd;fill:#0000FF;enable-background:new    ;}
	.st3{fill-rule:evenodd;clip-rule:evenodd;fill:#D40000;}
	.st4{stroke:#000000;stroke-width:5;stroke-miterlimit:10;}
	.st5{stroke:#000000;stroke-width:1.4295;}
</style></svg>
