<?xml version="1.0" encoding="UTF-8" standalone="no"?>
<!-- Created with Inkscape (http://www.inkscape.org/) -->

<svg
   width="96.362595mm"
   height="96.362595mm"
   viewBox="0 0 96.362595 96.362595"
   version="1.1"
   id="svg1"
   xml:space="preserve"
   sodipodi:docname="our-work.svg"
   inkscape:version="1.4 (e7c3feb100, 2024-10-09)"
   xmlns:inkscape="http://www.inkscape.org/namespaces/inkscape"
   xmlns:sodipodi="http://sodipodi.sourceforge.net/DTD/sodipodi-0.dtd"
   xmlns="http://www.w3.org/2000/svg"
   xmlns:svg="http://www.w3.org/2000/svg"><sodipodi:namedview
     id="namedview1"
     pagecolor="#505050"
     bordercolor="#ffffff"
     borderopacity="1"
     inkscape:showpageshadow="0"
     inkscape:pageopacity="0"
     inkscape:pagecheckerboard="1"
     inkscape:deskcolor="#d1d1d1"
     inkscape:document-units="mm"
     inkscape:zoom="1.8304811"
     inkscape:cx="159.79406"
     inkscape:cy="170.72015"
     inkscape:window-width="1896"
     inkscape:window-height="1121"
     inkscape:window-x="10"
     inkscape:window-y="65"
     inkscape:window-maximized="1"
     inkscape:current-layer="svg1" /><defs
     id="defs1" /><rect
     style="fill:none;fill-opacity:1;stroke-width:5.92724;stroke-linecap:square;stroke-linejoin:round;paint-order:markers stroke fill"
     id="rect3"
     width="96.36264"
     height="96.36264"
     x="4.5703124e-05"
     y="-5.8027344e-05" /><g
     id="text3"
     transform="skewY(-7.0211793)"><path
       style="-inkscape-font-specification:'Sansilk, Normal';fill:#111427;stroke-linecap:square"
       d="m 36.452546,55.442303 c 0,-0.115014 0,-0.287535 -0.05751,-0.402548 -1.955234,-6.383266 -17.597111,-5.520663 -22.830239,-5.520663 -0.805097,0 -5.1756213,0.115014 -5.1756213,-1.265152 0,-1.150138 2.8178383,-3.220386 3.6229343,-3.795455 9.83368,-7.303377 23.405309,-13.226587 35.769293,-13.226587 1.150138,0 4.313017,-0.172521 4.313017,1.610193 0,0.690083 -0.345041,1.322659 -0.632576,1.897728 -1.495179,2.702824 -5.118114,5.0031 -7.705924,6.555786 -0.690083,0.402549 -1.49518,0.805097 -2.070249,1.322659 -0.575069,0.517562 -0.747589,0.977617 -0.747589,1.782714 0,0.575069 0.575069,1.150138 1.150138,1.150138 0.575069,0 2.185262,-1.725207 2.875345,-2.185262 3.105372,-2.070249 9.948693,-6.383266 9.948693,-10.523763 0,-3.910469 -5.980717,-4.543045 -8.856062,-4.543045 -12.076449,0 -27.028244,6.038224 -36.689403,12.996559 -2.2427691,1.610194 -6.4407729,5.003101 -6.4407729,7.99346 0,4.198003 4.8880866,4.313017 7.9359519,4.313017 4.08299,0 8.108473,-0.575069 12.191463,-0.575069 1.897728,0 10.638777,0.230028 10.638777,2.875345 0,0.287535 -0.172521,0.575069 -0.460055,0.690083 -1.322659,0.517562 -3.220387,0.690083 -4.600552,0.977617 -3.910469,0.920111 -17.99966,4.255511 -17.99966,9.431132 0,2.702824 3.910469,3.450414 5.980717,3.450414 1.265152,0 2.472797,-0.172521 3.680442,-0.517562 6.785814,-1.897728 11.386367,-4.888087 15.41185,-10.696284 0.345041,-0.460055 0.460055,-0.575069 1.035124,-0.690082 1.840221,-0.402549 3.680441,-0.74759 5.520662,-1.035125 0.74759,-0.115013 1.552687,-0.17252 2.242769,-0.345041 0.460056,-0.115014 0.920111,-0.460055 0.920111,-0.977617 0,-0.920111 -1.150138,-1.150138 -1.840221,-1.150138 -2.300276,0 -4.543045,0.575069 -6.843321,0.805096 z M 16.440145,67.978807 c -0.632576,0 -2.990359,-0.05751 -2.990359,-1.092631 0,-2.875345 15.239329,-7.245869 18.057167,-7.245869 h 0.862603 c -3.220386,4.370524 -10.523763,8.3385 -15.929411,8.3385 z M 63.130607,51.129285 c -1.150138,3.392908 -2.530303,7.015842 -2.530303,10.638777 0,3.105373 1.380165,6.268252 4.945593,6.268252 5.75069,0 13.284094,-9.603652 16.33196,-13.744149 4.140497,-5.693183 11.558887,-16.33196 11.558887,-23.692843 0,-1.322659 -0.402548,-2.702825 -1.955234,-2.702825 -1.092632,0 -1.667701,0.690083 -1.667701,1.725207 0,0.862604 0.115014,1.322659 -0.230027,2.24277 -3.220387,7.878445 -8.91357,17.827139 -14.721767,24.842981 -1.495179,1.840221 -6.613293,7.590911 -9.316118,7.590911 -3.680441,0 0.862604,-12.939053 1.322659,-14.319219 0.172521,-0.575069 0.632576,-1.897727 0.632576,-2.472796 0,-0.805097 -0.74759,-1.725207 -1.610193,-1.725207 -1.955235,0 -10.351242,9.143597 -15.41185,13.974176 -4.773072,4.600553 -3.795455,2.24277 -2.242769,-1.380165 2.41529,-5.463156 5.118114,-10.696284 8.568528,-15.641877 0.74759,-1.035124 3.047866,-2.990359 3.047866,-4.025483 0,-0.74759 -0.74759,-1.380166 -1.437672,-1.380166 -4.255511,0 -15.469357,21.910129 -15.469357,26.395668 0,1.437672 0.74759,3.047865 2.357783,3.047865 1.207645,0 2.587811,-1.092631 3.450414,-1.84022 4.485539,-4.08299 8.856063,-8.396008 13.111574,-12.709026 0.402548,-0.402548 0.805096,-0.747589 1.265151,-1.092631 z"
       id="path1" /><path
       style="-inkscape-font-specification:'Sansilk, Normal';fill:#f1e0c5;stroke-linecap:square"
       d="m 91.482422,25.25 c -1.103334,0 -2.355192,0.428188 -3.183594,1.320312 -0.828401,0.892125 -1.130859,2.04325 -1.130859,3.050782 0,1.084769 0.104057,0.853323 -0.0625,1.298828 -3.106825,7.58248 -8.727754,17.391426 -14.28125,24.099609 l -0.0078,0.0098 -0.0078,0.0098 c -0.666457,0.820256 -2.286063,2.675483 -3.947266,4.210938 -0.680108,0.628626 -1.331911,1.124549 -1.933594,1.552734 0.06151,-0.793215 0.08338,-1.525085 0.3125,-2.589843 0.683206,-3.174898 1.86681,-6.580897 2.138672,-7.396485 l 0.01172,-0.03906 0.01172,-0.03711 c 0.06069,-0.202285 0.233563,-0.720042 0.390625,-1.265625 0.157062,-0.545583 0.353515,-0.975659 0.353515,-1.96875 0,-1.221497 -0.466922,-2.154819 -1.152343,-2.923828 -0.178042,-0.199754 -0.445754,-0.348299 -0.671875,-0.52539 l 0.05859,-0.171875 -0.142578,0.105468 c -0.632214,-0.470741 -1.376747,-0.855468 -2.347656,-0.855468 -1.275502,0 -1.791284,0.424534 -2.390625,0.789062 -0.599341,0.364528 -1.177768,0.800105 -1.804688,1.3125 -1.253838,1.024791 -2.676631,2.353294 -4.189453,3.822266 -1.188812,1.154354 -2.259215,2.22734 -3.478515,3.451172 1.490738,-2.834325 3.090217,-5.595921 4.933593,-8.240235 0.0925,-0.124249 0.876467,-0.952455 1.621094,-1.785156 0.375093,-0.419458 0.755309,-0.862993 1.109375,-1.400391 0.354067,-0.537397 0.806641,-1.138233 0.806641,-2.376953 0,-1.25574 -0.59504,-2.255197 -1.3125,-2.916015 -0.71746,-0.660819 -1.61604,-1.109375 -2.769531,-1.109375 -0.486932,0 -0.824868,0.172444 -1.212891,0.287109 0.199301,-0.669821 0.355469,-1.362846 0.355469,-2.126953 0,-1.652046 -0.739468,-3.20808 -1.75,-4.22461 -1.010533,-1.016529 -2.201843,-1.602477 -3.375,-2.011718 -2.346314,-0.818482 -4.745253,-0.953125 -6.376953,-0.953125 -12.958394,0 -28.113709,6.205397 -38.2363285,13.496093 -1.2011456,0.862488 -2.9190669,2.184727 -4.4472656,3.820313 -1.5293029,1.636768 -3.09375002,3.587018 -3.09375002,6.320312 0,1.562962 0.52626881,3.070285 1.43359372,4.148438 0.907325,1.078153 2.0673729,1.701935 3.1738281,2.083984 2.2129105,0.764099 4.4173958,0.726563 5.9746093,0.726563 4.331425,0 8.356852,-0.576172 12.191406,-0.576172 0.267172,0 1.229257,0.110762 1.78125,0.130859 -2.241106,0.580582 -4.874745,1.325 -7.646484,2.427735 -2.133679,0.848883 -4.191642,1.837778 -5.898437,3.140625 -1.7067962,1.302846 -3.3027349,3.136529 -3.3027349,5.630859 0,1.313709 0.5513836,2.579174 1.3085938,3.433594 0.7572101,0.85442 1.6502871,1.37214 2.5175781,1.740234 1.734582,0.736189 3.447177,0.921875 4.800781,0.921875 1.504374,0 2.971875,-0.2108 4.402344,-0.61914 h 0.0039 c 7.031838,-1.96911 12.312479,-5.40169 16.585938,-11.402344 1.086787,-0.233927 2.173658,-0.418792 3.259765,-0.611328 -0.351397,1.114071 -0.564453,2.160399 -0.564453,3.257812 0,1.177448 0.255875,2.388696 1.017578,3.53125 0.761704,1.142555 2.297334,2.164063 3.984375,2.164063 2.803546,0 4.229647,-1.661527 5.183594,-2.488282 l 0.02539,-0.01953 0.02344,-0.02344 c 2.67311,-2.433215 5.201324,-5.008034 7.78125,-7.542969 -0.106201,0.817669 -0.361328,1.571613 -0.361328,2.423828 0,1.944662 0.387405,3.989447 1.583984,5.773438 1.19658,1.783991 3.440776,3.140625 6.00586,3.140625 4.348193,0 7.864926,-2.976562 11.03125,-6.074219 3.166324,-3.097657 5.869704,-6.624217 7.43164,-8.746094 l 0.0059,-0.0059 0.0039,-0.0078 c 2.089253,-2.872723 5.039275,-7.030284 7.507813,-11.496094 2.468537,-4.465809 4.55664,-9.182676 4.55664,-13.751953 0,-0.929747 -0.07998,-2.009645 -0.75,-3.169922 C 94.662013,26.269411 93.042716,25.25 91.482422,25.25 Z M 47.78125,33.876953 c 0.310994,0 0.585283,0.03211 0.917969,0.03906 -1.183646,1.634256 -3.975243,3.713661 -6.304688,5.111328 -0.581115,0.336227 -1.508444,0.751936 -2.478515,1.625 -0.95898,0.863081 -1.623047,2.564975 -1.623047,3.748047 0,1.169479 0.501409,2.030705 1.132812,2.662109 0.631404,0.631404 1.49263,1.134766 2.66211,1.134766 1.466684,0 1.714822,-0.478588 2.107421,-0.751954 0.3926,-0.273365 0.714748,-0.549495 1.025391,-0.820312 0.621285,-0.541633 1.345704,-1.148438 1.210938,-1.058594 0.714036,-0.476024 1.978911,-1.483678 3.033203,-2.220703 -0.906418,1.426517 -1.831258,2.654512 -2.695313,4.21875 -0.936159,1.694771 -1.622161,3.30739 -2.429687,4.986328 -0.234366,-0.02245 -0.544669,-0.15625 -0.75586,-0.15625 -2.024076,0 -3.62547,0.346225 -5.248047,0.603516 -0.999668,-1.83082 -2.696442,-3.112734 -4.515625,-3.927735 -2.220775,-0.994916 -4.736387,-1.501005 -7.292968,-1.810546 -5.113162,-0.619083 -10.491702,-0.386719 -12.962891,-0.386719 -0.06742,0 -0.243131,-0.01193 -0.328125,-0.01172 0.08556,-0.06267 0.252486,-0.205737 0.314453,-0.25 l 0.01953,-0.01367 0.01953,-0.01563 C 23.037781,39.565142 36.262292,33.876953 47.78125,33.876953 Z M 5.9277344,48.710937 c 0.1257896,0.685769 0.3410821,1.398336 0.7226562,1.804688 0.0048,0.0051 0.00887,0.0047 0.013672,0.0098 -0.011643,-0.0039 -0.037388,-0.0019 -0.048828,-0.0059 C 6.1186848,50.348077 5.8661558,50.15535 5.7617187,50.03125 5.6572817,49.90715 5.5722656,49.825102 5.5722656,49.289062 c 0,-0.05488 0.3060034,-0.443407 0.3554688,-0.578125 z m 32.8339846,5.144532 0.164062,0.410156 c -0.03381,-0.11037 -0.102002,-0.195744 -0.140625,-0.302734 -0.02962,-0.06611 0.01257,-0.03542 -0.02344,-0.107422 z m -0.882813,6.888672 -0.05664,0.08203 c 0.0207,-0.02759 -0.03696,0.0302 -0.02344,0.01367 0.02494,-0.0357 0.05521,-0.05982 0.08008,-0.0957 z"
       id="path2" /></g><g
     id="g103"
     transform="translate(-1657.046,-337.28589)"><g
       id="g89"
       transform="matrix(0.50899972,0,0,0.50899972,984.29606,243.92601)"
       style="stroke:#f1e0c5;stroke-width:10.3962;stroke-linejoin:round;stroke-dasharray:none;stroke-opacity:1"><path
         id="path67"
         style="fill:#111427;fill-opacity:1;stroke:#f1e0c5;stroke-width:10.3962;stroke-linecap:round;stroke-linejoin:round;stroke-dasharray:none;stroke-opacity:1"
         d="m 1450.8534,303.40304 a 18.567308,18.567308 0 0 1 -18.5648,18.56731 18.567308,18.567308 0 0 1 0,-2.2e-4 v 6e-4 a 18.567308,18.567308 0 0 1 18.5673,18.55682 v 0.01 h 2e-4 a 18.567308,18.567308 0 0 1 18.5598,-18.56731 18.567308,18.567308 0 0 1 0.01,4.5e-4 v -6.1e-4 a 18.567308,18.567308 0 0 1 -18.5673,-18.5623 18.567308,18.567308 0 0 1 2e-4,-0.005 z" /><path
         id="path71"
         style="fill:#111427;fill-opacity:1;stroke:#f1e0c5;stroke-width:10.3962;stroke-linecap:round;stroke-linejoin:round;stroke-dasharray:none;stroke-opacity:1"
         d="m 1381.8764,303.40304 a 18.567308,18.567308 0 0 1 -18.5648,18.56731 18.567308,18.567308 0 0 1 0,-2.2e-4 v 6e-4 a 18.567308,18.567308 0 0 1 18.5674,18.55683 v 0.01 h 2e-4 a 18.567308,18.567308 0 0 1 18.5598,-18.56731 18.567308,18.567308 0 0 1 0.01,4.5e-4 v -6e-4 a 18.567308,18.567308 0 0 1 -18.5673,-18.5623 18.567308,18.567308 0 0 1 2e-4,-0.005 z" /><path
         id="path87"
         style="fill:#111427;fill-opacity:1;stroke:#f1e0c5;stroke-width:10.3962;stroke-linecap:round;stroke-linejoin:round;stroke-dasharray:none;stroke-opacity:1"
         d="m 1416.365,303.40304 a 18.567308,18.567308 0 0 1 -18.5648,18.56731 18.567308,18.567308 0 0 1 0,-2.2e-4 v 6e-4 a 18.567308,18.567308 0 0 1 18.5673,18.55682 v 0.01 h 2e-4 a 18.567308,18.567308 0 0 1 18.5598,-18.56731 18.567308,18.567308 0 0 1 0.01,4.5e-4 v -6.1e-4 a 18.567308,18.567308 0 0 1 -18.5673,-18.5623 18.567308,18.567308 0 0 1 2e-4,-0.005 z" /></g><g
       id="g102"
       transform="matrix(0.50899972,0,0,0.50899972,984.29606,243.92601)"><path
         id="path97"
         style="fill:#111427;fill-opacity:1;stroke-width:2.91817;stroke-linecap:round"
         d="m 1450.8534,303.40304 a 18.567308,18.567308 0 0 1 -18.5648,18.56731 18.567308,18.567308 0 0 1 0,-2.2e-4 v 6e-4 a 18.567308,18.567308 0 0 1 18.5673,18.55682 v 0.01 h 2e-4 a 18.567308,18.567308 0 0 1 18.5598,-18.56731 18.567308,18.567308 0 0 1 0.01,4.5e-4 v -6.1e-4 a 18.567308,18.567308 0 0 1 -18.5673,-18.5623 18.567308,18.567308 0 0 1 2e-4,-0.005 z" /><path
         id="path98"
         style="fill:#111427;fill-opacity:1;stroke-width:2.91817;stroke-linecap:round"
         d="m 1381.8764,303.40304 a 18.567308,18.567308 0 0 1 -18.5648,18.56731 18.567308,18.567308 0 0 1 0,-2.2e-4 v 6e-4 a 18.567308,18.567308 0 0 1 18.5674,18.55683 v 0.01 h 2e-4 a 18.567308,18.567308 0 0 1 18.5598,-18.56731 18.567308,18.567308 0 0 1 0.01,4.5e-4 v -6e-4 a 18.567308,18.567308 0 0 1 -18.5673,-18.5623 18.567308,18.567308 0 0 1 2e-4,-0.005 z" /><path
         id="path102"
         style="fill:#111427;fill-opacity:1;stroke-width:2.91817;stroke-linecap:round"
         d="m 1416.365,303.40304 a 18.567308,18.567308 0 0 1 -18.5648,18.56731 18.567308,18.567308 0 0 1 0,-2.2e-4 v 6e-4 a 18.567308,18.567308 0 0 1 18.5673,18.55682 v 0.01 h 2e-4 a 18.567308,18.567308 0 0 1 18.5598,-18.56731 18.567308,18.567308 0 0 1 0.01,4.5e-4 v -6.1e-4 a 18.567308,18.567308 0 0 1 -18.5673,-18.5623 18.567308,18.567308 0 0 1 2e-4,-0.005 z" /></g></g><path
     d="m 36.452546,55.442303 c 0,-0.115014 0,-0.287535 -0.05751,-0.402548 -1.955234,-6.383266 -17.597111,-5.520663 -22.830239,-5.520663 -0.805097,0 -5.1756213,0.115014 -5.1756213,-1.265152 0,-1.150138 2.8178383,-3.220386 3.6229343,-3.795455 9.83368,-7.303377 23.405309,-13.226587 35.769293,-13.226587 1.150138,0 4.313017,-0.172521 4.313017,1.610193 0,0.690083 -0.345041,1.322659 -0.632576,1.897728 -1.495179,2.702824 -5.118114,5.0031 -7.705924,6.555786 -0.690083,0.402549 -1.49518,0.805097 -2.070249,1.322659 -0.575069,0.517562 -0.747589,0.977617 -0.747589,1.782714 0,0.575069 0.575069,1.150138 1.150138,1.150138 0.575069,0 2.185262,-1.725207 2.875345,-2.185262 3.105372,-2.070249 9.948693,-6.383266 9.948693,-10.523763 0,-3.910469 -5.980717,-4.543045 -8.856062,-4.543045 -12.076449,0 -27.028244,6.038224 -36.689403,12.996559 -2.2427691,1.610194 -6.4407729,5.003101 -6.4407729,7.99346 0,4.198003 4.8880866,4.313017 7.9359519,4.313017 4.08299,0 8.108473,-0.575069 12.191463,-0.575069 1.897728,0 10.638777,0.230028 10.638777,2.875345 0,0.287535 -0.172521,0.575069 -0.460055,0.690083 -1.322659,0.517562 -3.220387,0.690083 -4.600552,0.977617 -3.910469,0.920111 -17.99966,4.255511 -17.99966,9.431132 0,2.702824 3.910469,3.450414 5.980717,3.450414 1.265152,0 2.472797,-0.172521 3.680442,-0.517562 6.785814,-1.897728 11.386367,-4.888087 15.41185,-10.696284 0.345041,-0.460055 0.460055,-0.575069 1.035124,-0.690082 1.840221,-0.402549 3.680441,-0.74759 5.520662,-1.035125 0.74759,-0.115013 1.552687,-0.17252 2.242769,-0.345041 0.460056,-0.115014 0.920111,-0.460055 0.920111,-0.977617 0,-0.920111 -1.150138,-1.150138 -1.840221,-1.150138 -2.300276,0 -4.543045,0.575069 -6.843321,0.805096 z M 16.440145,67.978807 c -0.632576,0 -2.990359,-0.05751 -2.990359,-1.092631 0,-2.875345 15.239329,-7.245869 18.057167,-7.245869 h 0.862603 c -3.220386,4.370524 -10.523763,8.3385 -15.929411,8.3385 z M 63.130607,51.129285 c -1.150138,3.392908 -2.530303,7.015842 -2.530303,10.638777 0,3.105373 1.380165,6.268252 4.945593,6.268252 5.75069,0 13.284094,-9.603652 16.33196,-13.744149 4.140497,-5.693183 11.558887,-16.33196 11.558887,-23.692843 0,-1.322659 -0.402548,-2.702825 -1.955234,-2.702825 -1.092632,0 -1.667701,0.690083 -1.667701,1.725207 0,0.862604 0.115014,1.322659 -0.230027,2.24277 -3.220387,7.878445 -8.91357,17.827139 -14.721767,24.842981 -1.495179,1.840221 -6.613293,7.590911 -9.316118,7.590911 -3.680441,0 0.862604,-12.939053 1.322659,-14.319219 0.172521,-0.575069 0.632576,-1.897727 0.632576,-2.472796 0,-0.805097 -0.74759,-1.725207 -1.610193,-1.725207 -1.955235,0 -10.351242,9.143597 -15.41185,13.974176 -4.773072,4.600553 -3.795455,2.24277 -2.242769,-1.380165 2.41529,-5.463156 5.118114,-10.696284 8.568528,-15.641877 0.74759,-1.035124 3.047866,-2.990359 3.047866,-4.025483 0,-0.74759 -0.74759,-1.380166 -1.437672,-1.380166 -4.255511,0 -15.469357,21.910129 -15.469357,26.395668 0,1.437672 0.74759,3.047865 2.357783,3.047865 1.207645,0 2.587811,-1.092631 3.450414,-1.84022 4.485539,-4.08299 8.856063,-8.396008 13.111574,-12.709026 0.402548,-0.402548 0.805096,-0.747589 1.265151,-1.092631 z"
     id="text103"
     style="font-size:57.5069px;line-height:1.3;font-family:Sansilk;-inkscape-font-specification:'Sansilk, Normal';letter-spacing:0.224879px;fill:#111427;stroke-width:3.3732;stroke-linecap:square"
     transform="skewY(-7.0211793)"
     aria-label="SW" /><style
     id="style2"
     type="text/css">
	.st0{fill-rule:evenodd;clip-rule:evenodd;fill:#FF0000;fill-opacity:0;}
	.st1{fill:#D40000;}
	.st2{opacity:0.4217;fill-rule:evenodd;clip-rule:evenodd;fill:#0000FF;enable-background:new    ;}
	.st3{fill-rule:evenodd;clip-rule:evenodd;fill:#D40000;}
	.st4{stroke:#000000;stroke-width:5;stroke-miterlimit:10;}
	.st5{stroke:#000000;stroke-width:1.4295;}
</style><style
     type="text/css"
     id="style2-6">
	.st0{fill-rule:evenodd;clip-rule:evenodd;fill:#FF0000;fill-opacity:0;}
	.st1{fill:#D40000;}
	.st2{opacity:0.4217;fill-rule:evenodd;clip-rule:evenodd;fill:#0000FF;enable-background:new    ;}
	.st3{fill-rule:evenodd;clip-rule:evenodd;fill:#D40000;}
	.st4{stroke:#000000;stroke-width:5;stroke-miterlimit:10;}
	.st5{stroke:#000000;stroke-width:1.4295;}
</style></svg>
