<?xml version="1.0" encoding="UTF-8" standalone="no"?>
<!-- Created with Inkscape (http://www.inkscape.org/) -->

<svg
   width="468.60919mm"
   height="468.60913mm"
   viewBox="0 0 468.60919 468.60913"
   version="1.1"
   id="svg1"
   xml:space="preserve"
   xmlns="http://www.w3.org/2000/svg"
   xmlns:svg="http://www.w3.org/2000/svg"><defs
     id="defs1" /><g
     id="layer1"
     transform="translate(-330.98651,-1414.8477)"><g
       id="g26"><rect
         style="opacity:0;fill:#f1e0c5;fill-opacity:1;stroke-width:5.05859;stroke-linecap:square;stroke-linejoin:round;paint-order:markers stroke fill"
         id="rect24"
         width="468.6091"
         height="468.6091"
         x="330.98657"
         y="1414.8478" /><g
         id="g24"><path
           id="path316"
           style="color:#000000;fill:#f1e0c5;fill-opacity:1;stroke-width:2.37632;-inkscape-stroke:none"
           d="m 727.01309,1477.533 -49.04937,223.7506 52.23433,14.1682 69.39765,-218.2985 z m -61.36798,245.565 -17.24505,64.3593 64.35805,17.245 17.24505,-64.3605 z" /><path
           style="fill:#29cf95;fill-opacity:1;stroke:none;stroke-width:0.643781px;stroke-linecap:butt;stroke-linejoin:miter;stroke-opacity:1"
           d="m 723.10899,1495.3392 -6.33033,-1.6787 -46.51908,212.2082 41.26939,11.2264 1.96356,-6.1744 11.47565,3.113 -5.52108,17.3664 -63.199,-17.1085 51.58213,-235.297 17.82563,4.7265 z"
           id="path318" /><path
           style="fill:#29cf95;fill-opacity:1;stroke:none;stroke-width:0.643781px;stroke-linecap:butt;stroke-linejoin:miter;stroke-opacity:1"
           d="m 660.92363,1740.719 3.07431,-11.4737 -17.26517,-4.6259 -20.31936,75.833 75.83295,20.3193 4.72274,-17.621 -11.4749,-3.0743 -1.64844,6.1461 -52.88188,-14.1707 14.17451,-52.8819 z"
           id="path320" /><path
           id="path324"
           style="color:#000000;fill:#f1e0c5;fill-opacity:1;stroke-width:2.37632;-inkscape-stroke:none"
           d="m 579.29963,1477.533 -49.04937,223.7506 52.23433,14.1682 69.39765,-218.2985 z m -61.36798,245.565 -17.24505,64.3593 64.35805,17.245 17.24505,-64.3605 z" /><path
           style="fill:#29cf95;fill-opacity:1;stroke:none;stroke-width:0.643781px;stroke-linecap:butt;stroke-linejoin:miter;stroke-opacity:1"
           d="m 575.39553,1495.3392 -6.33033,-1.6787 -46.51908,212.2082 41.26939,11.2264 1.96356,-6.1744 11.47565,3.113 -5.52108,17.3664 -63.199,-17.1085 51.58213,-235.297 17.82563,4.7265 z"
           id="path326" /><path
           style="fill:#29cf95;fill-opacity:1;stroke:none;stroke-width:0.643781px;stroke-linecap:butt;stroke-linejoin:miter;stroke-opacity:1"
           d="m 513.21017,1740.719 3.07431,-11.4737 -17.26517,-4.6259 -20.31936,75.833 75.83295,20.3193 4.72274,-17.621 -11.4749,-3.0743 -1.64844,6.1461 -52.88188,-14.1707 14.17451,-52.8819 z"
           id="path328" /><path
           id="path332"
           style="color:#000000;fill:#f1e0c5;fill-opacity:1;stroke-width:2.37632;-inkscape-stroke:none"
           d="m 431.58621,1477.533 -49.04937,223.7506 52.23433,14.1682 69.39765,-218.2985 z m -61.36798,245.565 -17.24505,64.3593 64.35805,17.245 17.24505,-64.3605 z" /><path
           style="fill:#29cf95;fill-opacity:1;stroke:none;stroke-width:0.643781px;stroke-linecap:butt;stroke-linejoin:miter;stroke-opacity:1"
           d="m 427.68211,1495.3392 -6.33033,-1.6787 -46.51908,212.2082 41.26939,11.2264 1.96356,-6.1744 11.47565,3.113 -5.52108,17.3664 -63.199,-17.1085 51.58213,-235.297 17.82563,4.7265 z"
           id="path334" /><path
           style="fill:#29cf95;fill-opacity:1;stroke:none;stroke-width:0.643781px;stroke-linecap:butt;stroke-linejoin:miter;stroke-opacity:1"
           d="m 365.49675,1740.719 3.07431,-11.4737 -17.26517,-4.6259 -20.31936,75.833 75.83295,20.3193 4.72274,-17.621 -11.4749,-3.0743 -1.64844,6.1461 -52.88188,-14.1707 14.17451,-52.8819 z"
           id="path336" /></g></g></g></svg>
